<svg version="1" xmlns="http://www.w3.org/2000/svg" width="234.667" height="234.667" viewBox="0 0 176.000000 176.000000"><path d="M84.5 1.8c-4.2 2.4-16.7 9.9-18.3 11-1 .7-.7 1.6 1.5 4 1.5 1.8 3.3 3.2 4.1 3.2.7 0 4.4-1.8 8.3-4 3.9-2.2 7.5-4 8-4s6.7 3.3 13.7 7.4c7 4.1 14.6 8.4 16.8 9.7 2.3 1.3 11.2 6.4 19.8 11.4l15.5 9L154 88v38.5l-5.7 3.3c-3.2 1.8-8.5 4.8-11.8 6.8-3.3 1.9-6.6 3.7-7.4 4.1-.9.4-14.2-12.3-39-37.4-20.7-20.9-38.7-38.5-39.9-39.2-2.8-1.5-5.9 0-6.7 3.2-.3 1.2-.4 11.2-.3 22.2l.3 20h9l.2-14c0-7.7.2-14.4.2-14.8.1-.5 16.5 15.6 36.5 35.7s37 36.6 37.7 36.5c.8 0 2.8-.9 4.4-1.9 1.7-1 5.3-3.1 8-4.5 2.8-1.5 5.6-3.2 6.4-3.8.7-.6 5-3.2 9.5-5.7l8.1-4.5V43.6l-10.9-6.3c-6-3.5-11.2-6.3-11.6-6.3-.5 0-1-.3-1.2-.8-.1-.4-1.6-1.4-3.3-2.3-1.6-.9-8.6-4.9-15.5-8.9s-14.4-8.3-16.8-9.7c-2.4-1.3-6.9-4-10-5.9C91.1 1.6 88.3 0 88 .1c-.3 0-1.8.8-3.5 1.7z"/><path d="M46 24.1c-.8.5-8.7 5.1-17.5 10.2l-16 9.3V132.3l8.5 5c4.7 2.7 11 6.4 14 8.1 3 1.8 16.2 9.5 29.2 17L88 176.2l9.7-5.7c13.3-7.7 13.4-7.8 9.7-11.4-1.6-1.7-3.3-3.1-3.8-3.1-.6 0-4 1.8-7.7 4s-7.2 4-7.8 4c-.6 0-6.6-3.2-13.4-7.1-6.7-3.9-21.3-12.3-32.4-18.7L22 126.5l.1-38.5V49.5l12.2-7 12.1-7 37.7 37.7C104.9 94 122.5 111 123.3 111c.9 0 2.3-.7 3.1-1.6 1.4-1.4 1.6-4.6 1.4-23.7l-.3-22.2h-8l-.5 15.3-.5 15.2-34.8-34.9C64.6 39.8 48.6 23.9 48.2 23.6c-.4-.2-1.4 0-2.2.5z"/></svg>