<svg version="1" xmlns="http://www.w3.org/2000/svg" width="346.667" height="346.667" viewBox="0 0 260.000000 260.000000"><path d="M120.5 5.4C106.2 13.8 81.8 28 36.8 54.1L17 65.5v129l10.3 5.9c5.6 3.3 13.8 8 18.2 10.6 4.4 2.6 21.1 12.3 37 21.5 16 9.2 32.8 19 37.4 21.8 4.6 2.8 8.9 5 9.5 5 .6 0 13.3-7.1 28.1-15.7 14.9-8.7 31.1-18.1 36-21 5-2.9 17.9-10.4 28.7-16.7l19.8-11.4v-129l-3.8-2.1c-2-1.1-13.6-7.8-25.7-14.9-12.1-7.1-24.5-14.3-27.5-16-7.9-4.6-47.9-27.8-52-30.3L129.4.1l-8.9 5.3zM154 48.7c12.9 7.5 26.4 15.2 30 17.2 17.5 9.7 28.1 16.6 28.6 18.5.2 1.2.3 22.8.2 48l-.3 46-14 8.2c-7.7 4.6-16.9 10-20.4 12l-6.4 3.8-40.8-41.1L90 120.2l-.2 17-.3 17.1h-8l-.3-23.8c-.2-16.7.1-24.2.9-25.1 3.4-4.2 4.9-3 48.4 41.1 23.1 23.4 42.5 42.5 43 42.5.6 0 7.1-3.5 14.5-7.8l13.5-7.8.3-42.7.2-42.6-7.2-4.2c-4-2.3-12.5-7.2-18.8-10.9-6.3-3.7-16.4-9.5-22.5-13-6-3.4-13.8-8-17.2-10.1-3.4-2.2-6.5-3.9-6.8-3.9-.2 0-4.3 2.3-9.1 5.2l-8.6 5.1-3.6-3.8c-2-2-3.2-3.9-2.7-4.1.6-.3 5.7-3.3 11.5-6.9 5.8-3.5 11.2-6.4 12-6.4.8-.1 12.1 6.1 25 13.6zm-29.3 49.6l38.3 38.2.2-16.5.3-16.5 4.4-.3c2.8-.2 4.7.1 5.2 1 1.4 2.1 1.1 45.3-.3 48.2-1.3 3-4 4.1-6.4 2.8-.9-.5-19.9-19.2-42.3-41.5L83.5 73.2l-9.6 5.7c-5.3 3.1-11.2 6.6-13.2 7.8L57 88.9v83.6l3.8 2.1c2 1.1 18.3 10.5 36.1 20.9l32.5 18.9 5-2.9c2.8-1.6 6.8-3.8 8.8-4.9l3.7-2.1 3.7 3.6c2 2 3.4 4.2 3 4.7-.3.6-5.8 4.1-12.1 7.7-7.6 4.5-12.1 6.5-13.3 6.1-.9-.4-7.3-4-14.2-8.1-6.9-4-24.9-14.5-40-23.3l-27.5-15.9-.3-48.5-.2-48.6 13.2-7.7C66.5 70.2 75 65.2 78 63.4c3-1.9 6.2-3.4 7-3.4.9 0 18.7 17.2 39.7 38.3z"/></svg>