<svg version="1" xmlns="http://www.w3.org/2000/svg" width="1706.667" height="917.333" viewBox="0 0 1280 688">
  <path d="M322.5 1.1C315.4 1.9 312 4 312 7.6c0 1-1.5 1.4-5.5 1.4-3.9 0-5.6.4-6.3 1.6-.5 1-3.2 2.1-6.3 2.6-3 .6-7.2 1.3-9.4 1.7l-4 .7 3.2.8c1.7.4 3.8 1.8 4.7 3.1 1.9 2.9 4.9 3.9 7.5 2.6 1.4-.8 3.1-.7 6.1.4 6.3 2.2 13.1 1.9 19.6-1 6.4-2.8 9.4-3.2 9.4-1 0 4.4-18.8 10.3-25.7 8.1-1.2-.4-3.2-.2-4.3.4-1.8.9-1.9 1.4-.9 2.6 2 2.4 8.5 5.4 11.8 5.4 3.5 0 4.8 1.5 3.1 3.5-2.6 3.1-16.6.8-18-2.9-.4-1.2-1.5-2.8-2.4-3.5-.9-.7-1.6-2.4-1.6-3.7 0-1.4-.6-2.4-1.4-2.4-.8 0-4.2-1.3-7.5-2.9-7.3-3.4-12.6-3-8.9.7.9.9.6 1.2-1.5 1.2-1.5 0-3.6.9-4.8 2.1-1.9 1.9-1.9 2.3-.6 3.6.8.8 3.7 1.9 6.3 2.4 2.7.5 5.2 1.3 5.8 1.9.9.9.6 1.1-3.8 2.4-1.2.4-1.2 1-.3 3 1 2.2 1.8 2.6 5.8 2.6 3.1 0 5.5-.7 7.2-2 1.4-1.1 3-2 3.7-2 1.7 0 9.4 4.7 11.5 7 1.7 1.8 1.7 2 .1 2.6-1.9.7-6.6-1-6.6-2.5 0-.5 1.2-.4 2.7.4 3.3 1.7 4.4 1.1 1.7-1-2.4-1.9-5.5-1.9-8-.1-1.9 1.5-1.9 1.5 0 2.9 1 .8 1.6 1.9 1.2 2.5-1.1 1.8-2.6 1.4-1.9-.4.5-1.4.3-1.5-1.5-.5-5.1 2.7-2.9 3.4 16.1 5 10 .9 12.4.8 15.8-.5 4.3-1.8 5.3-3.4 1.6-2.7-2.7.5-9.7-2.1-9.7-3.6 0-.6 2.1-1.1 4.8-1.1 6.4-.1 17.2-5.1 17.2-8.2 0-.4-1.6-.8-3.5-.8-2.3 0-3.5-.5-3.5-1.3 0-1.4 4-3.7 6.5-3.7.8 0 1.5-.7 1.5-1.5 0-1.8 3.6-2 7.6-.5 2.4.9 3.3.7 6.8-1.8 2.3-1.6 7.9-4.9 12.6-7.2 7.5-3.8 8.2-4.4 6-5-1.6-.4-2.6-.2-2.8.6-.4 1.7-6.3 3.7-7.5 2.5-1.6-1.6.1-2.8 7.6-5.6 3.9-1.5 9.2-3.6 11.7-4.7l4.5-1.9-2.9-2.6c-2.7-2.3-3.6-2.5-9-2.1-6.9.6-8.6.2-8.6-1.8 0-.7-1-1.6-2.2-1.8-4.3-.9-33.3-1.2-40.3-.5zM463.3 2c-.6 2.4-3.9 2.6-8.6.7-1.8-.8-6.5-1.3-10.7-1.3-7 .1-7.5.3-7.8 2.3-.4 2.6 1.5 3.1 2.4.8.9-2.2 2.7-1.8 5.4.9 1.4 1.6 2 3.1 1.6 4.2-.6 1.5-1.9 1.6-11.4 1.2-12-.7-13.2-.5-13.2 2.3 0 2.3-3.2 2.6-5 .4-.7-.8-1.6-1.5-2.1-1.5s-.9.7-.9 1.5c0 1.2-1.6 1.5-7.7 1.6-10.1.1-15.7 1.7-16.1 4.7-.4 2.5-3.8 5.3-5.7 4.6-.7-.3-1.6-.1-2 .5-.3.6-1.8 1.1-3.3 1.1-3.9.1-12 3.9-10.4 4.9.8.4 3.2.5 5.5 0 2.3-.4 4.5-.5 5-.2 1.2.7-3.3 8-5.7 9.1-2.1 1.1-4.2 1.6-12.8 3.2-5.8 1.1-10.5 3.4-8.9 4.4.6.4 4.5 1 8.6 1.3 11.3.9 12.2 4.2 1.6 5.9-4 .6-6.8 2.4-3.8 2.4.8 0 2.1 1 2.9 2.1 1.6 2.5 2.2 2.6 21.3 1.1 15.9-1.2 13.9-1.9 21.3 7.9 6.6 8.8 8.6 12.5 9.2 16.9l.6 4.5 1.4-2.8c1.7-3.4 4.1-3.2 5.4.6 1.2 3.3.1 5.6-3.5 7.4l-2.4 1.3h2.5c2.7 0 9 3.4 9 4.8 0 .5-.9 1.7-2 2.7-2.4 2.2-2.5 3.8-.4 5.6 1.4 1.1 1.1 1.5-2 3.1-4.1 2.1-5 4.4-1.1 2.6 1.4-.6 2.8-.8 3.1-.5.8.8-1.4 6.6-3.2 8.7-.7.9-1.1 2.6-.8 3.8.5 1.8 1 2 2.5 1.1 1.7-.9 1.9-.6 1.9 2.8 0 6.9 8.8 17.7 15.9 19.5 2.8.7 4.5 1.8 4.9 3 .6 2.4 1.9 2.3 5.9-.8 2.8-2.1 3.3-3.1 3.3-6.8 0-2.3.7-5.1 1.5-6.2.8-1 1.5-2.7 1.5-3.8 0-2.8 11.5-13.6 14.6-13.6 5 0 9.4-2.7 11.3-7 1-2.3 3-4.8 4.5-5.6 1.4-.8 3.8-2.1 5.4-2.9 1.7-.9 5.5-1.5 10.2-1.5 4.1-.1 9.3-.8 11.5-1.6 2.2-.8 6.4-2.2 9.4-3.1 6.5-2 4.9-3.1-4.6-3.2-4.7-.1-6.3-.5-6.3-1.5 0-.8.6-1.6 1.4-1.9.8-.3 1.6-1.6 1.8-2.9.2-1.8 1-2.4 3.9-2.6 3-.3 3.7.1 4.7 2.3 1.7 3.8 6.1 3 4.6-.9-1.1-2.9-6.9-5.6-11.9-5.6-4.6 0-4.7-.1-4.1-2.6.5-1.9.1-3-1.6-4.4-2.9-2.3-1.8-3.5 3.2-3.2 3.4.2 4 0 4-1.7 0-3.2 2.6-3.1 9.4.5 7.7 4 8.7 4.2 5.7 1-2.9-3-2-4.6 2.5-4.6 1.9 0 3.4-.3 3.4-.8-.1-1.7-3.7-4.9-6.3-5.6-3.7-.9-3.4-3.1.6-4.4l3.2-1-3.7-.1c-2-.1-4-.6-4.4-1.3-1.3-2 2.8-3.9 7.9-3.6 2.8.2 4.6-.1 4.3-.7-.1-.6-1-.9-1.8-.7-1.7.3-5.8-3.4-5.8-5.3 0-.7-.3-2-.6-2.8-.3-.9.8-2.2 3-3.5 2-1.2 3.6-2.7 3.6-3.3 0-.7.7-2.1 1.7-3.1 1.5-1.7 1.5-1.8-1.4-1.2-2 .4-3.3.1-3.8-.7-1.3-1.9 2.1-3.7 8.5-4.4 3.2-.4 6.1-1.2 6.3-1.9.3-.7 3.4-2.3 6.8-3.6 5.9-2.1 6.2-2.3 3.9-3.2-1.4-.5-5-.7-8-.4-16 1.7-21.8 2.5-24.2 3.1-2.4.6-2.8.4-2.8-1.4 0-2-.5-2.1-8.2-2.1-7.1 0-10 .6-19.6 4-10.3 3.5-14.2 4.1-14.2 2 0-1 14.4-7.5 19.7-8.9 2.3-.6 7.8-1.6 12.3-2.2 4.6-.5 9.6-1.6 11.4-2.4 3-1.3 2.8-1.3-4.1-1.2-7.7.2-9.3-.4-7.3-2.8 1.1-1.3.6-1.5-4-1.5-2.9 0-11.1.7-18.2 1.6-7.1.9-13.1 1.4-13.5 1.1-1.2-1.2 1.9-3.7 5.6-4.4l3.6-.7-5-.7c-2.7-.4-8.5-.8-12.8-.8-7.1-.1-7.9.1-8.4 1.9zm-64.7 16.1c.6 1-1.1 2.9-2.6 2.9-.3 0-1.1-.4-1.9-.9-1.7-1.1-.5-3.1 1.9-3.1 1 0 2.2.5 2.6 1.1zm113.2 70c-.2.6-.8 1-1.3 1s-1.1-.4-1.3-1c-.2-.6.4-1.1 1.3-1.1s1.5.5 1.3 1.1z"/>
  <path d="M426.5 3c-.4.7-.3 1.6.3 2.2 1.4 1.4 4.5.2 4-1.5-.6-1.6-3.4-2.1-4.3-.7zM420.5 4.9c-.7 1.2 1.2 2.4 2.5 1.6 1.1-.7.4-2.5-1-2.5-.5 0-1.1.4-1.5.9zM542.9 13.1c-1.1.6-1.1 1.1-.2 2 1.2 1.2 4.3.6 4.3-1 0-1.4-2.5-2-4.1-1zM815.7 15.9c-.3 1.4-1.1 1.8-2.6 1.4-1.4-.4-2.1-.1-2.1 1 0 1.4 2.7 4.4 3.4 3.6 1.5-1.7 3.4-6.9 2.7-7.3-.5-.3-1.1.3-1.4 1.3zM828.5 15.9c-.8 1.5.3 3.1 2.1 3.1.9 0 1.4-.7 1.2-1.7-.4-2-2.4-2.8-3.3-1.4zM787.7 17.6c-.8.8.1 2.4 1.4 2.4.5 0 .9-.7.9-1.5 0-1.5-1.2-2-2.3-.9zM803.2 19.1c-1.3.5-3.5.6-4.9.3-1.9-.5-2.4-.3-2.1.7.3.8 1.1 1.4 1.9 1.5.8 0 2.2.4 3.2.8 2 .9 6.7-.7 6.7-2.3 0-1.4-2.3-1.9-4.8-1zM819.6 18.7c-1.1 1.1-.6 2.3.9 2.3.8 0 1.5-.4 1.5-.9 0-1.3-1.6-2.2-2.4-1.4zM927.7 18.6c-1.4 1.4-.7 3.5 1.1 3.2.9-.2 1.7-1 1.7-1.7 0-1.6-1.8-2.5-2.8-1.5zM364 20c-1.3.8-1.2 1 .3 1 .9 0 1.7-.5 1.7-1 0-1.2-.1-1.2-2 0zM322.7 22.6c-2.7 1.4-4.6 2.8-4.3 3.1.8.8 9.2-2.5 10.6-4.3 1.9-2.2-.7-1.7-6.3 1.2zM940.1 22.3c-5.9 3-5.2 5.1 1.9 5.5 8.8.5 11.6-2.9 5.1-6.2-2.5-1.3-3.1-1.3-7 .7zM773 22.4c-5 1.6-4.7 4.4 1 7.2 2.4 1.2 4.8 2 5.2 1.8 1.4-.9.8-2.2-1.2-2.7-2.3-.6-2.7-3.5-.5-4.3.8-.4 1.5-1 1.5-1.4 0-1.5-2.5-1.8-6-.6zM832.8 22.2c-1.6.5-2.8 1.6-2.8 2.4 0 1 .7 1.3 2.8.8 4.7-1 5.2-1.3 5.2-2.9 0-1.7-1.3-1.8-5.2-.3zM782.1 23.4c-1 1.2-.9 2.1.5 4.3 3.1 4.9 7.4 7.2 7.4 3.8 0-.9-.9-1.5-2.1-1.5-1.8 0-1.9-.2-.9-1.5 1.6-1.9 5.6-1.9 6.3-.1.5 1.1 2 1.4 6.1 1.2 6.2-.3 7.1-.8 6.2-3.1-.5-1.3-1-1.4-2.7-.5-1.7.9-2.5.8-4-.6-1.1-1-3.6-1.8-5.9-1.8-2.1-.1-4.2-.4-4.6-.9-1.2-1.2-5.1-.8-6.3.7zM821.1 24.4c-1.3 1.4-1.8 2.7-1.3 3 1.6.9 3.9-.3 5.7-3 1.4-2.2 1.4-2.4-.3-2.4-1 0-2.9 1.1-4.1 2.4zM808 23.9c0 2 2 6.1 3 6.1s4.5-4.8 3.9-5.4c-1.1-1-6.9-1.6-6.9-.7zM685.7 30.1c-1.7 3.1-1.7 3.1-3.5 1.1-1.7-2-9.2-4-9.2-2.5 0 .4.5 1.5 1 2.3.6 1 .3 2.1-1.2 3.7l-2.1 2.2-2.9-2.4c-3.6-3-3.9-3-7.1-.5-2.4 1.9-6.7 2.8-6.7 1.3 0-.3.7-1.5 1.7-2.5 1.5-1.7 1.5-1.8-.3-1.8-3.3 0-9.4 2-9.4 3.1 0 .6.9.8 1.9.4 1.1-.3 2.2-.1 2.6.5.9 1.4-2.3 5-4.3 5-1.2 0-1.2.3-.2 1.5 1.4 1.7 4 2 4 .5 0-.6 1-.5 2.5.2 2.1 1 3.2.8 6.4-1 3.6-2 7.1-2.1 7.1-.2 0 .5-1.7 1.9-3.7 3.2l-3.8 2.3 2.8.3c1.5.2 2.7.7 2.7 1.2s-1.2 1.8-2.7 2.9c-1.9 1.4-2.3 2-1.2 2.1.9 0 2.4.9 3.4 2s2.2 2 2.6 2c.4 0 2.2-2.7 4-5.9 1.7-3.3 4-6.8 5-7.7 1.8-1.6 2.2-1.6 5.4-.1 2.4 1.2 3.4 2.2 3.2 3.6-.1 1.1.1 2 .6 2 4.1.4 6.8-.1 6.5-1.1-.2-.6-2.6-2.3-5.4-3.7-2.7-1.4-6-3.6-7.2-4.9C677 38 675.6 37 675 37c-.5 0-1-.4-1-.9 0-1.8 3.5-2.1 11.1-1 7.7 1.2 7.7 1.2 12.3-1.7 2.5-1.6 4.6-3.2 4.6-3.5 0-.4-2.4-1-5.2-1.3-2.9-.4-6.2-.9-7.3-1.2-1.5-.3-2.5.4-3.8 2.7zM720.1 28.9c-1.7 1.1-.5 3.1 1.9 3.1s3.6-2 1.9-3.1c-.8-.5-1.6-.9-1.9-.9-.3 0-1.1.4-1.9.9zM737 30.6c0 .9.5 1.4 1.2 1.2 1.8-.6 2.1-2.8.4-2.8-.9 0-1.6.7-1.6 1.6zM816.7 29.6c-.8.8.1 2.4 1.4 2.4.5 0 .9-.7.9-1.5 0-1.5-1.2-2-2.3-.9zM931.5 30c-.7 1.1 3.9 2.5 5.4 1.5.6-.3 1.1-1 1.1-1.6 0-1.2-5.7-1.2-6.5.1zM942.9 30.4c-1.9.7-4.7 1.9-6.3 2.8l-2.9 1.5 7.4 1.8c4.1 1 9.4 2.7 11.8 3.7 5.2 2.2 6.1 1.5 6.1-4.8 0-5.4-.8-6-4.1-2.8l-2.8 2.7-1-2.5c-1.2-3.1-3.8-3.9-8.2-2.4zM251 31.5c0 1.6 2.7 3.2 3.7 2.1.7-.7-1.6-3.6-2.8-3.6-.5 0-.9.7-.9 1.5zM545.7 33.6c-.8.8.1 2.4 1.4 2.4.5 0 .9-.7.9-1.5 0-1.5-1.2-2-2.3-.9zM233.3 36.8c1 1 1.7 2.3 1.7 2.9 0 .6 1.1.8 2.6.5 1.8-.3 4 .6 8 3.3 5.7 3.9 7.3 4.1 5.5.6-2.4-4.3-11.2-9.1-16.9-9.1-2.4 0-2.4.1-.9 1.8zM964.8 40c-4.1 4.4-4.9 6.7-2 5.5.9-.3 4.6-1.3 8.2-2.1 3.6-.9 6.9-1.9 7.4-2.4 1.1-1-5.1-5-7.8-5-1.1 0-3.6 1.8-5.8 4zM706.5 38c-.4.7-.3 1.6.3 2.2 1.4 1.4 4.5.2 4-1.5-.6-1.6-3.4-2.1-4.3-.7zM699.2 40.1c.2.6.8 1 1.3 1s1.1-.4 1.3-1c.2-.6-.4-1.1-1.3-1.1s-1.5.5-1.3 1.1zM208 43c-2.2.7-2 .8 1.5 1l4 .1-4.2 2.1c-4.1 1.9-5.8 4.8-3 4.8 2.2 0 9.7-5.9 9.7-7.5 0-1.6-3.7-1.9-8-.5zM937.2 43.1c.2.6.8 1 1.3 1s1.1-.4 1.3-1c.2-.6-.4-1.1-1.3-1.1s-1.5.5-1.3 1.1zM983.2 43.1c.2.6.8 1 1.3 1s1.1-.4 1.3-1c.2-.6-.4-1.1-1.3-1.1s-1.5.5-1.3 1.1zM260.9 45c1.9 1.6 2.6 1.8 3.8.8 1.3-1 1.2-1.3-.4-1.9-1-.4-2.7-.8-3.8-.8-1.9 0-1.8.1.4 1.9zM542.2 46.1c.2.6.8 1 1.3 1s1.1-.4 1.3-1c.2-.6-.4-1.1-1.3-1.1s-1.5.5-1.3 1.1zM932.7 45.6c-.8.8.1 2.4 1.4 2.4.5 0 .9-.7.9-1.5 0-1.5-1.2-2-2.3-.9zM198 47c0 .5.5 1 1 1 .6 0 1-.5 1-1 0-.6-.4-1-1-1-.5 0-1 .4-1 1zM231.6 47.9c-.4.7-.5 1.5-.2 1.8.9.9 1.9-.4 1.4-1.8-.4-1.1-.6-1.1-1.2 0zM925.5 48c-.4.6-.3 1.6.3 2.2.6.6 1.2.6 1.7-.2.4-.6.3-1.6-.3-2.2-.6-.6-1.2-.6-1.7.2zM969.6 51.1c-2 2.4-2.4 3.5-1.6 4.9 1.5 2.8 1.3 3-3.4 3-2.4 0-6.3.7-8.7 1.6-2.8.9-5.8 1.3-8.3.9-2.1-.3-7.7.2-12.5 1-4.7.9-11 2-14 2.6-3 .5-6.5 1.6-7.9 2.5l-2.4 1.6 2.1 2.2c3.2 3.4 2.8 5.7-.9 4.9-1.7-.3-6.5-.6-10.8-.7-7.7-.1-7.7-.1-8 2.6-.3 2.3.2 3 3.2 4.2 3.7 1.6 6.6 5.9 6.6 10.1 0 2-.5 2.5-2.5 2.5-2.1 0-2.5-.5-2.5-2.8 0-1.6-.8-3.6-1.7-4.4-2.7-2.4-9.1-4.1-12.5-3.4-1.8.3-3.7.1-4.4-.5-3.1-2.6-1.1 1 2.2 4.1 2.6 2.3 3.3 3.5 2.3 4-2.8 1.8-9.3-2.4-11.3-7.4l-1.2-3-2.3 3.7c-2 3.2-2.1 4.2-1.2 6.9.6 1.7 1.1 4.1 1.1 5.4 0 1.8.7 2.3 4.2 2.9 4.5.8 10.8 5.9 10.8 8.8 0 .9 1 2.3 2.2 3.1 1.7 1.2 1.9 1.9 1 2.8-1.9 1.9-6.1-.7-7.9-5-2.9-6.9-5.2-6.9-9.3.2-4 7.1-9.4 11.9-12.3 11-4.3-1.3-7.8-3.5-7.4-4.7.6-1.9 4.7-2 6.7-.2 1.7 1.6 1.9 1.5 3.5-.9 2.8-4.3 4.1-14.7 2.7-21.6-.7-3.3-1-7.5-.7-9.3.8-4.1-1.1-6-5.6-5.5-2.5.2-3.7 1.1-5.2 3.8-1 1.9-3.2 4.9-4.8 6.5-1.6 1.7-2.9 3.4-2.9 3.7 0 .4 1.8 2.8 4.1 5.4 2.2 2.5 3.9 5.4 3.7 6.3-.5 2.4-4.4 2.5-7.5.3-3.4-2.4-9.6-4.2-14.5-4.2-2.7 0-4.7.8-7.1 3-4.2 3.7-8.2 4.1-7.1.8l.6-2.1-3.3 1.9c-1.9 1.1-5.4 2.8-7.8 3.8-4.5 1.7-4.5 1.7-6.2-.5-1.6-2.2-1.7-2.2-5.8-.6-2.3 1-5 1.7-6 1.7s-4.2 1.7-7.2 3.8c-7.3 5.1-8.8 5.6-11 3.6-2.4-2.2-2.4-3.1.2-3.9 1.8-.6 1.9-.9.8-1.9-2.2-1.9-6.8-3.6-7.4-2.7-.2.5 0 2.2.6 3.9.6 1.7.9 4.3.7 5.9-.3 2.5-.8 2.9-4.8 3.3-5.2.7-9 2.8-9 5 0 3.9-4.1 5-9 2.5-3.5-1.8-3.8-1-1 2 1.8 1.9 1.9 2.3.6 3.5-2.5 2-8.7-1.7-11.1-6.7-1.1-2.3-3.1-5.3-4.4-6.7-2.2-2.3-2.2-2.6-.6-3.2.9-.4 4 .1 6.8 1.1 8.5 3.1 17.7 2.3 19.8-1.7 1.5-2.7-.5-4.3-12.1-9.9-4.7-2.3-9.7-4.8-11.2-5.5-1.5-.8-5.6-1.4-9.5-1.4-3.8 0-7.3-.3-7.7-.7-.4-.4.3-1.5 1.6-2.5 2.2-1.7 2.2-1.8.3-1.8-1.1 0-3.1-.7-4.4-1.6-1.3-.9-2.6-1.3-3-.8-.3.5-2 1-3.8 1-2.5.1-3-.2-2.6-1.4.5-1.2.1-1.4-1.8-.9-1.3.4-3.1.7-4 .7-1 0-1.6.7-1.5 1.7.1 1.5-.7 1.8-4.6 1.8-3.8 0-4.7.3-4.3 1.5.3 1.1-1.1 2-5.3 3.3-3.1.9-6.7 1.7-7.9 1.7-2 0-2.2.4-1.6 3 .5 2.8.2 3.2-2.6 4.3-1.8.6-3.4 2.1-3.7 3.2-.3 1.1-2.7 3.3-5.4 5-2.7 1.6-5 3.9-5.2 4.9-.2 1.3-1.5 2.3-3.5 2.8-3.8 1-3.7.8-1.8 4.4 2 3.9 1.9 5.7-.5 7.9-1.7 1.5-2.4 1.6-4.6.7-3.2-1.5-4.4-1.5-4.4 0 0 .7-2 3.1-4.6 5.3l-4.6 4 .9 8.5c.7 7.9 1 8.5 3.2 8.8 3.5.5 6.6-.5 10.1-3.4 1.8-1.6 3.5-2.3 4-1.8 1 1.1 6 13.3 6 14.8 0 .7.7 2.1 1.5 3.4l1.6 2.2 3.7-2c2-1.1 4.7-2 5.9-2 2.1 0 2.3-.5 2.3-4.8.1-5 1.3-7.4 4.4-8.5 1-.4 1.6-1 1.3-1.4-.4-.3-.2-1.2.4-1.9.8-1 .6-2-1-4-1.4-1.8-2.1-4.1-2.1-7.2 0-3.9.5-4.9 3.8-8.1 2.1-2 5-4.3 6.4-5.3 1.3-.9 3-3.4 3.7-5.8 1-3.3 2-4.5 4.8-5.6 3.1-1.3 3.7-1.3 5.9.1 1.3.8 2.4 2.3 2.4 3.1 0 .9-2.5 4.4-5.6 7.7-3.1 3.4-6 7.2-6.5 8.5-1.1 2.8-.2 9.5 1.6 11.9 1.2 1.6 1.6 1.6 7.4 0 9.9-2.8 19.1-1.9 19.1 1.7 0 1.5-2.3 2-13.7 3.2-7.1.7-8.7 2.6-5.8 7 3 4.6-.2 9.9-3.5 5.9-1.6-2-4.6-1.9-5.4.1-.3.9-.6 2.8-.6 4.4 0 4.2-.9 5.7-4.6 8-2.7 1.7-3.7 1.9-5.5 1-1.8-1-3.3-.7-9.2 2l-7 3.3-1.7-2.3c-1.6-2.1-2-2.2-5-1.1-2.7.9-3.8.8-5.7-.5-3.2-2-3.6-3.5-2.4-7.9.8-3 .7-3.7-.6-4.2-2.5-1-3.3 1.8-2.7 8.8l.6 6.6-3.7.6c-5.8.9-12.5 4-12.5 5.7 0 2.7-2.9 5.8-5.9 6.5-1.6.3-3.2 1.3-3.5 2-.8 2.3-8.7 7.5-11.2 7.5-1.4 0-2.5.8-2.9 2-.5 1.6-1.5 2-4.6 2-4.8 0-5 1.2-.5 3.8 6.2 3.7 9.6 14.9 6 20-1.6 2.3-1.9 2.3-13.5 1.6l-11.9-.7v6.8c0 3.7-.5 8.5-1.1 10.6-1.6 5.1.2 9.4 4.4 10.8 1.7.6 3.9 1.9 4.9 2.8 1.7 1.5 2.3 1.5 9.4-.7 8.5-2.7 12.4-6.2 12.4-11.1 0-2.3.7-3.4 3.1-4.7 5.5-3 8.9-6.3 8.9-8.6 0-3.5 3.1-5.6 8.1-5.6 2.4-.1 5.5-.7 6.9-1.5 4.9-2.8 7.1-1.9 14 5.4 3.6 3.7 8.4 7.8 10.7 8.9 5 2.6 7.3 5.6 7.3 9.5 0 1.6.4 2.6 1 2.2.6-.3 1-2.9 1-5.6 0-4.7.1-4.9 2.1-3.9 1.1.7 2.3.9 2.6.6.3-.2-2.6-2.5-6.4-4.9-5.5-3.6-7.9-5.9-11.1-11.1-2.3-3.6-4.2-6.9-4.2-7.4s.9-1.7 1.9-2.6c1.9-1.7 2.2-1.5 8.3 4.2 3.4 3.2 8.3 7.6 10.7 9.8 2.5 2.2 5.3 6.1 6.6 9.1 2.7 6 7.4 12.3 9.3 12.3 1.8 0 1.4-1.8-.5-2.3-1.4-.4-1.3-.5.3-.6 1.2 0 2.5.7 2.8 1.6.7 1.7-.9 3.3-3.1 3.3-.7 0-1.3.9-1.3 2 0 2.5.5 2.5 4.6-.1 4.1-2.5 4.2-4.1.9-8.1-2.8-3.3-2.8-5.5-.1-5 .9.2 1.9-.4 2.2-1.3.5-1.1 2.1-1.5 5.9-1.5 6.5 0 8.9-1.9 8.2-6.4-.9-5.7 6-18 11.6-21.1 4.3-2.3 8.1-.8 7.1 2.9-.4 1.7.1 2.5 2.1 3.4 2.7 1.3 5.5 1.6 5.5.7 0-.3-.7-1.6-1.6-3-1.5-2.2-1.4-2.4 1-4 3.2-2.1 10.1-3.1 11-1.6.4.6-.1 2.5-1 4.3l-1.7 3.2 7.2 6.6c3.9 3.6 7.1 7.2 7.1 8.1-.1 5.1-9.7 6.5-19.5 2.8-3.6-1.4-7-1.9-9.3-1.6-5 .7-13.8 4-16 6-1 1-2.8 1.7-4.1 1.7-2.9 0-3.5 2.1-2.5 8.3 1.3 7.5 3.6 8.4 19.4 8.2l12.2-.2-.6 4.1c-1.2 7.9-4.9 18.7-7.3 21.2-1.9 2.1-2.9 2.5-5.1 1.9-1.5-.5-5.6-.7-9.2-.7-5.1.2-8.8-.6-17.2-3.4-6.2-2-11.6-3.3-12.7-2.9-1.1.3-3 2.5-4.3 4.8-3.5 6.4-3.2 6.4-23.3-4.1l-11-5.8v-6.6c0-7.2-.9-9-4.6-9-9.3-.3-22.7 1.9-34.4 5.4-12.1 3.6-17.5 4.2-17.5 1.8 0-2.1-2-.8-3.6 2.2-.9 1.8-3.9 5.4-6.5 7.9-4.3 4.2-4.9 5.2-4.9 8.9 0 5.6-2.3 10.1-7 13.9-2.2 1.8-5.8 6-8.1 9.4-2.3 3.4-5.3 7.5-6.8 9-2.5 2.7-2.6 3.4-3.2 19-.4 9.8-1.2 17.5-2 19.4-1.1 2.8-1.1 3.4.3 5 3.9 4.4 13.8 20 13.8 21.7 0 3.3 4.9 9.4 10.6 13.1l5.3 3.6 10.8-.7c6.6-.3 14.2-1.5 19.5-3 12.1-3.3 14-3.2 18.6 1.4 3.4 3.5 4 3.8 7.2 3.1 2.4-.5 4.2-.3 5.8.7 2.1 1.4 2.2 2.1 2.2 14.7v13.3l4 5.5c2.3 2.9 4.4 6.5 4.7 7.9.3 1.4 1.6 4.3 2.9 6.5 1.5 2.7 2.5 6.4 2.9 11.5.6 6.7.4 8.4-2.4 16.6-1.7 5.1-3.1 10.6-3.1 12.3 0 1.7 1.3 6.4 3 10.5 1.6 4.1 3.6 11.6 4.5 16.8 2.1 11.6 4.4 18.6 10.1 29.9 4.4 8.9 5.4 13.4 3.2 14.2-1.8.6.1 3.8 3.4 5.6 2.2 1.3 4 1.3 12.4.2 13.7-1.9 19.5-4.2 24.2-9.7 6.3-7.4 10.1-14.6 11.7-22 1.2-5.9 2-7.4 5.3-10.4 2.2-1.9 4.2-4.3 4.5-5.2.6-1.8-.6-10.9-1.8-14.1-.8-2 5-8.2 12.6-13.3 6.6-4.5 8.3-8.7 7.7-19.4-.3-4.7-1-9.5-1.6-10.7-.6-1.1-1.9-5.5-2.7-9.8-1.5-7.3-1.5-8.1 0-12.3 2.9-7.3 10.9-18.3 18.4-25 4-3.5 8.8-8.9 10.8-12 3.9-6.2 11.3-21.5 11.3-23.5 0-.7.9-3 1.9-5.1l2-3.8-2.2.5c-1.2.3-6.4 1.4-11.5 2.3-10.8 2.1-13.1 1.5-16.4-4.4-1-1.9-4.5-6.9-7.8-11.2-3.2-4.3-6.4-8.9-7.1-10.2-.6-1.3-2.2-3.5-3.6-4.9-1.8-2-2.6-4.1-2.9-8.5-.7-6.8-5-17.8-11.2-28.1-2.6-4.3-4.2-8.2-4-9.5.4-2.8 1.9-2.8 3.4.1l1.1 2.2 1.4-2.2c1.4-2.1 1.5-2.1 4.4 2.1 1.6 2.3 3.9 7.2 5.1 10.8 1.5 4.2 2.9 6.9 4.2 7.3 2.1.8 3.8 4.5 4.6 10.3.5 3.7 1.9 6.2 8.5 15.1 2.3 3.1 3.2 5.7 4 11.3 1 7.9 2.2 10.2 5.3 10.2 3.2 0 35-16.6 40.5-21.2 2.8-2.4 5.2-4.8 5.2-5.4.1-.6 1.2-2.1 2.6-3.4 1.4-1.3 2.5-3 2.5-3.8 0-.9.8-2.4 1.8-3.5 1.6-1.9 1.6-2-1.7-4.6-5.6-4.2-9.1-8.2-9.1-10.2 0-2.6-.8-2.4-3.3.7-2.1 2.7-8.9 6.3-11.9 6.4-.9 0-2.1-1.2-2.7-2.8-.6-1.5-3.6-7.4-6.6-13.1-5.9-10.9-6-13.1-.9-13.1 2.5 0 4.1 1.3 8.7 7.4 3.6 4.7 8 6.9 13.6 6.7 4-.1 5 .4 7.1 2.9 2.3 2.7 3.3 3.1 11 4 4.7.5 10.9 1 13.7 1 4.6 0 5.8.4 9.2 3.5 2.1 1.9 5.4 4.2 7.4 5 4.2 1.7 5.4 3.3 3.3 4.1-2.1.8-2 3.1.2 4.3 2.1 1.1 3.5.4 5.2-2.8 1.8-3.5 2.7-1.2 3.5 9.3.7 9.2 3.6 20.5 6.1 24.1.8 1.1 1.4 2.6 1.4 3.5 0 2 9.1 21 10.1 21 .4 0 1.9-2.4 3.4-5.3 1.9-4 2.8-7.8 3.4-15.1.4-5.3 1.2-10.1 1.7-10.5.5-.5 4.1-3.5 7.9-6.8 3.9-3.3 9.5-9 12.4-12.5 4.7-5.9 5.7-6.6 9.7-7.2 2.4-.3 5.5-1.3 6.8-2.1 2.4-1.6 2.5-1.5 5.4 2.7 8.4 12.2 8.2 11.8 8.2 17.9 0 5.3.2 5.9 2.1 5.9 1.1 0 3.4-1 5.1-2.1 3.5-2.6 4.3-1.9 5.3 4.8.3 2.5 1.3 6.3 2.1 8.5.8 2.4 1.4 7.9 1.4 13.4 0 8 .4 10.1 2.4 14.1 1.4 2.7 3 6.6 3.6 8.8 2.3 7.8 11 17.2 11 11.8 0-4.4-3.5-13.5-6.9-17.6-9.4-11.9-10.2-14.7-6.7-23.1 1.3-3.2 1.9-3.6 5.1-3.6 4.3 0 7.5 1.5 7.5 3.5 0 .8 1.4 3 3 4.8 1.7 1.9 3 4.4 3 5.6 0 1.1.4 2.1.9 2.1.6 0 3.9-2.5 7.6-5.6l6.5-5.6-.5-5.1c-1.2-10.3-1.7-11.8-6.1-18.4-7.1-10.6-7-9.7-2.3-14.8 4.4-4.8 5.7-5.3 8.9-3.3 1.6 1 2.2 1 2.8.1.8-1.3 9.5-4.7 16.7-6.4 4.1-1 6.1-2.4 11.3-7.7 3.4-3.5 6.2-6.9 6.2-7.6 0-.7 1.6-3.6 3.5-6.6 3.9-6.3 4.2-7.8 1.8-9.5-1.7-1.2-1.7-1.4.1-3.4 1.9-2.1 1.9-2.1-.2-2.1-2.5 0-3-2.8-.7-3.6 2.2-.9 1.9-2.3-1.5-7.4-1.6-2.5-3-5.4-3-6.5 0-2.5 4-6.9 8-9 1.7-.9 3-1.7 3-1.9 0-.2-1.9-.1-4.2.1-5 .5-11.6-1.4-13.2-3.9-1.4-2.2 3-7 9.5-10.3 6-3.1 7.6-1.9 4.8 3.6-2.2 4.4-1.6 5.1 1.3 1.4 3.6-4.6 12.8-2.6 11.5 2.5-.4 1.7.2 3.2 2.3 5.7 2.4 2.7 3 4.3 3 7.8 0 4.9.6 5.3 5 3 3.8-2 3.8-4.2 0-13.5l-3-7.3 7.9-8.6c7.8-8.5 8-8.6 12.1-8.3 3.5.3 4.7-.1 7.2-2.5 4.3-4 12.1-14.9 15.2-21 5.3-10.5 7.2-25.1 3.8-29.3-1.7-2-2.1-2.1-5.9-1-3.9 1.2-4.4 1.1-7.2-1.3-1.7-1.4-3.6-2.7-4.3-2.9-2.6-.9 11.8-14.9 23.1-22.5 5.5-3.7 6.7-3.9 15.3-2.7 2.7.3 6.2.1 8.2-.6 2.9-.9 4.9-.8 10.5.6 6.7 1.6 10.8 1.4 9.7-.4-1.7-2.9 12.4-13.2 18-13.2 3.9 0 4.9 1.2 3.2 3.9-.7 1.1-1 2.3-.6 2.6 1 1.1 9.7-5 10.2-7.2.6-2.1 4.2-4.1 5.4-2.9 1 1.1-2.6 7.4-5.4 9.3-1.5 1-6.4 5.3-11 9.5-4.5 4.3-8.7 7.8-9.2 7.8-1.9 0-5 6.5-5.7 12-.6 4.7 1.4 19.2 2.8 20.7.6.6 10.7-9.9 10.2-10.6-.8-1.5 3.5-7.1 5.5-7.1 1.5 0 2-.7 2-2.6 0-3.3 1.7-6.4 3.5-6.4 1.7 0 1.9-1.1.6-2.5-.5-.6-1.2-2.8-1.5-5-.7-4.4 1.9-10.1 5.2-11.1.9-.3 3.1-1.2 4.7-2 4.1-1.9 14-3 14.9-1.5 1.2 1.8 4.3 1.3 8.3-1.5 8-5.4 13.7-7.7 19.8-8 4.9-.2 6-.6 6.3-2.1.3-2.6-3.4-8.2-6.2-9.2-2.5-1-4.1-3.7-2.6-4.6.5-.3 2.9 0 5.5.6 5.1 1.3 7.5.2 7.5-3.5 0-1.1.4-2.7.9-3.5 1-1.6 3.1-.6 3.1 1.4 0 2.1 1.6 2.6 4.4 1.4 2.1-1 2.9-.8 5.3 1 7.1 5.5 13.5 8.8 11.8 6.1-1.1-1.8 2.3-5.9 6-7.4 4.5-1.9 4.4-3.1-.2-5.5-6.9-3.4-8.2-3.5-9.5-.7-1.5 3.4-3.5 3.3-4.3-.3-1.7-7.8-15.7-14.6-36-17.5-5.5-.8-11.4-1.8-13-2.1-3.1-.7-3.1-.7-2.7 3.4.5 4.9-.4 5.1-8.8 2.1-3.8-1.3-8.3-1.9-14.5-2-11.6 0-13.3-.5-14.9-4.5-1.7-4-4.3-4.6-17.3-3.8-8.4.5-10 .3-11.2-1.1-.7-.9-2.2-1.6-3.3-1.6-1.3 0-2.4-1.1-3.1-2.9-1.5-4-3.6-4.3-10.1-1.3-6.1 2.7-7.5 2.6-5.5-.7.7-1.1 1.1-2.2.9-2.4-1.2-1.1-18.2-1.3-18.5-.3-.2.6-.6 2.3-.9 3.8-.8 3.7-6.8 5.5-11.7 3.4-2.4-1-4-1.1-6.1-.4-1.6.6-4 .7-5.5.3-2.1-.5-3.1-.1-4.9 2.2l-2.2 2.8-3.5-1.8c-4.6-2.5-12.1-10.2-11.3-11.6.4-.6 1.6-1.1 2.7-1.1 2.5 0 2.4-1.5-.3-3.4-2.8-2-10.7-2.1-15.2-.2-6 2.5-15.6 2.5-18.1-.1-2-1.9-12-2.2-15.4-.4-1.9 1.1-2.3.8-4.3-3.4-2.3-4.7-4.5-5.6-9.3-3.5-1.8.8-1.8.9-.2.9 2.3.1 8.1 3.1 7.3 3.8-.3.3-1.1.1-1.8-.5-1.2-.9-4.9-1.6-7.2-1.3-.4.1.2.9 1.4 1.9l2.3 1.8-4.6 1.8c-4.7 1.8-12.2 2.4-13.5 1.1-.4-.4.2-1.3 1.3-2.1 7.3-5.2 13.3-8.6 16.7-9.3 4.9-1.1 8.2-3.9 6.7-5.7-.7-.8-.7-1.4.1-1.9 1.8-1.1 1.1-2.5-1.4-2.5-1.4 0-2.8-.5-3.2-1.1-.4-.8-3.1-.9-8.6-.4-6.2.5-8.8.3-12.3-1.1-4.7-1.7-5.5-2.8-3-3.8 2.9-1.1 1.5-2.6-2.4-2.6-3.1 0-4.4.6-6.5 3.1zM721.3 151.2c2.2 2.6 2.2 3.8-.2 3.8-1.1 0-2.6.2-3.3.5-1.8.7-4.3-3.8-3.4-6 .8-2.1 4.4-1.2 6.9 1.7zm72.5 78c.3 2.4 0 2.8-2.2 2.8-2.3 0-3.8 1.2-4.2 3.5-.1.5-.5 1.7-.9 2.6-.4 1 .4 2.8 1.9 4.7 1.5 1.6 2.6 3.8 2.6 4.8 0 1.1.4 2.5.9 3.3.8 1.2 1.2 1.2 2.5.2 1.3-1.1 1.9-1.1 3.1-.1 2.2 1.8 1.9 2.4-1.7 3.8l-3.2 1.2 2.1 2.2c2.9 3.3 3.2 12.2.4 13.7-4.3 2.3-10.9.6-13.1-3.4-1-1.8-.9-3.3.5-7.7 1.7-5.4 1.7-5.6-.4-8.4-2.4-3.4-6.1-13.3-6.1-16.7 0-4.4 8.9-10 15-9.4 1.9.1 2.6.8 2.8 2.9zm27.2 4.1c0 2-.8 4.1-1.9 5.1-1.6 1.5-1.9 1.5-3.1.1-1.1-1.3-1-2.2.3-5 2.2-4.6 4.7-4.6 4.7-.2zM284.7 49.6c-.8.8.1 2.4 1.4 2.4.5 0 .9-.7.9-1.5 0-1.5-1.2-2-2.3-.9zM947 50.6c0 .9.5 1.4 1.2 1.2 1.8-.6 2.1-2.8.4-2.8-.9 0-1.6.7-1.6 1.6zM185.7 52.4c-3.2 1.1-7.4 3.4-9.5 5.1l-3.6 2.9 3.4.8c3.2.7 3.8.4 6.3-2.7 2.3-2.7 3.4-3.4 5.2-2.9 1.9.5 2.7 0 4-2.5 1.8-3.6 1.9-3.5-5.8-.7zM921.6 50.7c-1.1 1.1-.6 2.3.9 2.3.8 0 1.5-.4 1.5-.9 0-1.3-1.6-2.2-2.4-1.4z"/>
  <path d="M986.6 50.7c-1.1 1.1-.6 2.3.9 2.3.8 0 1.5-.4 1.5-.9 0-1.3-1.6-2.2-2.4-1.4zM200.2 53.2c.6 1.8 2.8 2.1 2.8.4 0-.9-.7-1.6-1.6-1.6-.9 0-1.4.5-1.2 1.2zM349.5 52.9c-.7 1.2 1.2 2.4 2.5 1.6 1.1-.7.4-2.5-1-2.5-.5 0-1.1.4-1.5.9zM696.6 53.7c-1.1 1.1-.6 2.3.9 2.3.8 0 1.5-.4 1.5-.9 0-1.3-1.6-2.2-2.4-1.4zM1134.6 53.7c-1.1 1.1-.6 2.3.9 2.3.8 0 1.5-.4 1.5-.9 0-1.3-1.6-2.2-2.4-1.4zM263.5 55c-.7 1.1 2.4 2.5 7.9 3.6 4 .7 6.6 2.7 6.6 4.9 0 1.7 3.1 3.5 5.9 3.5 1.1 0 4 .7 6.5 1.5 3.6 1.2 6.8 1.4 17.5.7 7.2-.5 13.2-1 13.4-1.3.2-.2.7-1.7 1.1-3.2.6-2.6.5-2.7-1.3-1.7-1.1.5-9.1 1.1-17.8 1.3-13.8.2-16.2 0-18.6-1.6-1.5-.9-2.7-2.4-2.7-3.2 0-1.4-3.2-2.5-11-4-1.9-.4-4.2-.9-5.2-1.1-.9-.3-1.9 0-2.3.6zM841 57.1c-3 1.1-8.1 2.2-11.3 2.4-3.2.2-8.6 1.3-12 2.4-3.4 1.1-7.5 2.1-9.2 2.3-2.4.2-2.9.7-2.7 2.3.1 1.3-1 3.2-2.8 5-3.4 3.3-3.8 5.1-1.2 5.8 1.1.3.7.5-1 .6-1.8.1-3.7 1.3-5.7 3.8-3.7 4.5-3.8 5.1-.8 5.5 1.2.2 2.6 1.3 3.2 2.5 1 2.3 3.2 3.3 7.8 3.3h2.9l-2.6-3.1c-4.1-4.8-3.4-7.1 4.8-15.7 6.3-6.7 9-8.2 18.9-10.7 11-2.8 20.7-6.3 20.7-7.6 0-1.4-2.9-1-9 1.2zM950 56.6c0 .9.5 1.4 1.2 1.2 1.8-.6 2.1-2.8.4-2.8-.9 0-1.6.7-1.6 1.6zM218.8 59.1c-.5 4.8-2.8 5.8-8.5 3.5-12.6-4.8-17.9-4.5-15.4 1 .9 2 1.5 2.4 2.3 1.6 1.6-1.6 6-1.5 8.3.2 1.8 1.3 1.7 1.4-1.1 2.9l-2.9 1.6h3c4.4.1 23.8-5.4 24.3-6.7.2-.7-.7-1.2-2.2-1.2-1.8 0-3-.9-4.1-3-2-3.9-3.3-3.8-3.7.1zM236.7 56.6c-.8.8.1 2.4 1.4 2.4.5 0 .9-.7.9-1.5 0-1.5-1.2-2-2.3-.9zM245.2 56.9c-1.9 1.2.2 4.6 4.6 7.3 2.6 1.6 3.5 1.8 4.7.8 4.7-3.9-4-11.5-9.3-8.1zm4.8 2.6c.7.9 1 1.8.7 2.1-1 1.1-3.7-.5-3.7-2.1 0-1.9 1.4-1.9 3 0zM1146 57.5c0 .9.5 1.5 1.1 1.3.6-.2 1.1-.8 1.1-1.3s-.5-1.1-1.1-1.3c-.6-.2-1.1.4-1.1 1.3zM1087.5 60c-.3.5-.2 1.6.2 2.4 1.1 2 3.8.3 3-1.8-.7-1.8-2.3-2.1-3.2-.6zM1096.4 60.4c-.3.8-.4 2.5-.2 3.8.3 2.4 0 2.3 9.3 1.6 1.1-.1 3.4.2 5 .7 2.5.6 2.8.5 1.8-.6-.7-.7-1.3-2.3-1.3-3.6 0-2.6-.3-2.7-2.8-1.2-1.4.9-2.5.8-5-.5-3.8-2-6.1-2-6.8-.2zM1114 60.8c0 .5.7 1.5 1.5 2.2 1.7 1.4 5.8.4 5.2-1.3-.4-1.4-6.7-2.2-6.7-.9zM184.2 62.1c.2.6.8 1 1.3 1s1.1-.4 1.3-1c.2-.6-.4-1.1-1.3-1.1s-1.5.5-1.3 1.1zM239 61.9c0 1.5 2.8 3.3 4 2.6.8-.5.8-1.1-.1-2.1-1.3-1.5-3.9-1.9-3.9-.5zM260.2 61.9c.4 1.3 1.8 1.6 1.9.4 0-.4-.5-.9-1.1-1.2-.7-.2-1.1.2-.8.8zM541 63.5c0 .9.5 1.5 1.1 1.3.6-.2 1.1-.8 1.1-1.3s-.5-1.1-1.1-1.3c-.6-.2-1.1.4-1.1 1.3zM233.7 63.7c-1.2 1.1-.8 2.3.8 2.3.8 0 1.5-.7 1.5-1.5 0-1.6-1.2-2-2.3-.8zM266.3 63.7c-2 .7-1.5 3.1.7 3.8 2.3.7 4-.1 4-2 0-1-2.5-2.8-3.3-2.4-.1 0-.8.3-1.4.6zM896.5 64c-.4.6-.3 1.6.3 2.2.6.6 1.2.6 1.7-.2.4-.6.3-1.6-.3-2.2-.6-.6-1.2-.6-1.7.2zM1128.5 63.8c.6.5 2.8 1.3 5 1.7 2.6.4 3.6.3 3-.3-.5-.5-2.8-1.3-5-1.7-2.6-.4-3.6-.3-3 .3zM545.7 65.6c-.8.8.1 2.4 1.4 2.4.5 0 .9-.7.9-1.5 0-1.5-1.2-2-2.3-.9zM674.6 66.7c-1.1 1.1-.6 2.3.9 2.3.8 0 1.5-.4 1.5-.9 0-1.3-1.6-2.2-2.4-1.4zM1086.7 69.7c-1.2 1.1-.8 2.3.8 2.3.8 0 1.5-.7 1.5-1.5 0-1.6-1.2-2-2.3-.8zM173.5 70.7c-3.4.9-4.5 2.4-4.5 6.3 0 3-.6 4.3-2.7 5.9-1.9 1.4-2.3 2-1.2 2.1.9 0 2.4.9 3.4 2s2.8 2 4 2c1.2 0 3.4-.9 4.8-2s2.9-2 3.5-2c.5 0 1.7-.9 2.8-2.1 1-1.2 3.7-3 5.9-4.1l4-1.9-2.4 2.1c-2.5 2.2-2.1 2.6 1 1 2.1-1.2 2.6-5.5.7-6.7-.7-.4-4-1.1-7.3-1.5-3.3-.3-6.9-.9-8-1.1-1.1-.3-2.9-.3-4 0zM1106.6 72.5c-.4 1.4-.4 3-.1 3.5.8 1.3 8.5 1.3 8.5 0 0-.6-.7-1-1.5-1-.9 0-2.6-1.1-3.9-2.5l-2.4-2.5-.6 2.5zM273.8 72.7c-4.1.6-5.2 2.7-4.2 7.5 1.1 5.1 2.8 5.9 4.2 1.8.6-1.6 1.5-3 2.1-3 1.6 0 7.1-5.1 6.5-6.1-.5-.9-3.5-1-8.6-.2zM855.5 72.9c-.7 1.2 1.2 2.4 2.5 1.6 1.1-.7.4-2.5-1-2.5-.5 0-1.1.4-1.5.9zM253.3 74.9c-3.3 1.3-4 2-3.3 3.1 1.7 2.7 1.1 3.2-2.7 2.5l-3.6-.7 2.9 2.5c6.3 5.3 9.3 6.6 13 5.4 3.8-1.1 4.3-3 1.8-6.5-1-1.5-1.3-3.2-.9-5.2.8-3.6-.6-3.8-7.2-1.1zM230.4 75.7c-.3 1.1-1.9 2.4-3.5 3-2 .8-2.9 1.8-2.9 3.5 0 4.7-1.6 5.4-4.9 2-3.9-3.9-7.2-5-8.5-2.9-.8 1.2-1.5 1.3-3.3.4-1.8-.8-2.7-.7-4.3.8-1.7 1.5-2 1.6-2.5.2-.4-.8-.5-2.2-.3-3 .2-.9 0-1.6-.5-1.7-1.1-.1-6.8 2.8-9.5 4.8-2 1.6-2.1 2.1-1.1 5 .6 1.7 1.6 3.3 2.2 3.3.7.1 4.4.2 8.4.3 4.4 0 7.7.6 8.5 1.4 2.1 2.1-.9 3.2-8.9 3.2-7.4 0-9.7 1.3-4.4 2.5 1.6.3 4.3 1.7 6.2 3.1 4.2 3.1 7.8 3 17.6-.1 9.6-3.1 11.3-3.1 18.6-.1 3.1 1.3 5.7 2 5.7 1.5 0-.4-.4-1.1-1-1.4-1.8-1.1-1-3.4 1.6-4.8l2.7-1.4-4.2-.7c-5-.8-7.3-2.9-9.6-9.1-1.5-3.8-1.6-5.3-.8-7.6.7-1.9.8-3.1.1-3.5-.5-.3-1.2.3-1.4 1.3zM874.7 74.6c-.8.8.1 2.4 1.4 2.4.5 0 .9-.7.9-1.5 0-1.5-1.2-2-2.3-.9zM320 76.8c0 2.9 1 3.2 6.9 2.5 4.6-.5 5.1-.8 3.8-2.1-.8-.8-3.6-1.7-6.1-1.9-4.2-.5-4.6-.4-4.6 1.5z"/>
  <path d="M289.9 79.9c-3.4 3.4-3.8 4.1-3 6.8 1.1 3.9 2.6 6.7 4.4 8.1.8.7 8.1 1.6 17.3 2.1 13.4.8 17.3 1.4 24.7 3.9 10.2 3.4 11.3 4.2 9.8 6.9-.9 1.8-.7 2 1.4 1.6 2-.4 2.5 0 3.6 3.6 1.1 3.7 1.5 4.1 4.5 4.1 3.9 0 5 1.3 2.8 3.4-1.9 1.9-2.4 1.9-4.8.1-2.6-2-3.9-1.9-6.7.4-1.9 1.6-2.2 2.2-1.1 3.2 2.2 2.3 1.3 2.9-4.4 2.9-6.2 0-9.4 1.3-9.4 3.7 0 1.3.9 1.5 5.5.9 6-.7 11.2.9 15 4.4 1.1 1 3.3 2.3 4.8 2.9 1.6.6 2.6 1.5 2.3 2-.3.5 1.3 1.1 3.5 1.5 2.2.4 6.3 1.8 9 3.1 5.2 2.7 6 2.4 3.2-.8-1.4-1.5-1.5-2.1-.5-2.4 2.4-.9 4-3.3 3.5-5.4-.3-1.1-3-4.7-5.9-7.9-3-3.2-5.4-6.3-5.4-6.9 0-.6 1.1-1.8 2.5-2.7 2.8-1.8 2.5-1.9 9.9 4 3 2.3 3.9 2.6 5.1 1.6.8-.7 1.5-1.8 1.5-2.5s1-2 2.3-2.8l2.2-1.6-2.5-2c-1.4-1.1-3.1-2.1-3.8-2.1-.8 0-2.7-.9-4.2-2-1.6-1.1-4.3-2.3-6.2-2.6-3.5-.7-6.8-3-6.8-4.7 0-.6.7-1.8 1.6-2.8 1.4-1.5 1.3-1.9-1.4-3.8-1.6-1.1-5.3-2.6-8.1-3.2-2.8-.6-5.1-1.3-5.1-1.7 0-.3.7-1.4 1.7-2.4 1.8-2 .4-2.5-2.8-.7-2.3 1.2-8.9-.8-8.9-2.7 0-2.1-4.2-4.4-8.1-4.4-2.7 0-4.1.6-5.1 2.2-1.4 2.1-1.8 2.2-5 1-1.9-.6-4.1-1.2-5-1.2-1.9 0-2.8-2-2.8-6.1 0-2.5-.4-2.9-2.8-2.9-5.9 0-9.6 6.3-7.2 12.5.8 2 .8 3.1 0 3.9-1.7 1.7-4.2-1.8-4.5-6.5-.1-2.4 0-3.2.2-1.7.5 3.5 2.3 3.7 2.3.2 0-2.8-1.6-6.5-3.4-7.6-2.6-1.7-6-.7-9.7 3.1zm76.6 57.5c1.9.8 3.5 2 3.5 2.5 0 1.5-.5 1.4-5-.9-6.1-3.1-4.9-4.2 1.5-1.6zM519 79.4c2.8 1.7 6 2.2 4.5.7-.6-.5-2.3-1.2-4-1.6l-3-.6 2.5 1.5zM1259 89.5c0 .9.5 1.5 1.1 1.3.6-.2 1.1-.8 1.1-1.3s-.5-1.1-1.1-1.3c-.6-.2-1.1.4-1.1 1.3z"/>
  <path d="M266.6 91.2c-2.9 4.1-1.4 7.8 3.1 7.8 2.9 0 3.1 3.2.3 7.7-2.1 3.5-3.8 4-7.2 2.2-1.6-.9-3.4-.7-7.8.6-8.4 2.5-17.6 1.8-22.3-1.8-3.7-2.8-9.7-3.6-12.7-1.7-1.3.9-1.3 1.1 0 2 .8.5 2.1 1 2.9 1 1.1 0 1.1-.3 0-1.7-1.2-1.5-1.2-1.6.4-1 1 .4 2.1.7 2.3.7 1.4 0 0 3-1.6 3.5-1.1.3-2 .9-2.1 1.3-.4 3.8-.9 6.5-1.3 7-.3.3-2.3-1.3-4.4-3.6l-3.9-4.2h-7.9c-9.6 0-11.7-.9-8.9-4 1.6-1.8 1.7-2.3.5-3.1-.8-.5-3.2-.7-5.4-.4-2.8.4-5.6-.2-10.4-2.1-5.2-2.1-7.7-2.5-12.1-2.2-3.6.3-7.1 0-9.7-1l-4-1.5-9.5 5.2c-9.3 5-12.9 6.1-12.9 4.1 0-.5 2.4-2.5 5.2-4.5 5.8-3.9 5-4.7-1.4-1.4-2.4 1.2-5 1.8-6.3 1.5-2.2-.6-2.3-.5-1 2.2 2.2 4.6 2.8 10.2 1.2 10.2-2 0-3.6-2.1-4.3-5.8-.6-2.8-1.2-3.2-9-5.6-9.7-3.1-15.3-4.4-24.4-5.7-3.6-.5-9.1-1.4-12.2-1.9-3.1-.6-6.9-.8-8.3-.4-1.4.3-3.1.1-3.9-.5-2.1-1.8-11.7-4-16.1-3.7-2.2.1-5 .8-6.2 1.4-1.3.7-2.3 1-2.3.6s-.8 0-1.7.8c-1 .9-3.4 2.1-5.4 2.7-2 .6-4.9 2.5-6.4 4.1-1.6 1.7-3.5 3-4.2 3-.8 0-3 .7-5.1 1.6l-3.7 1.6 4 3.5c2.2 2 6.4 4.7 9.3 6 5.5 2.6 6.5 4.5 3.1 6.3-1.5.9-3.1.8-6.5-.4-4-1.3-4.9-1.3-8.9.2-4.9 1.8-5.6 2.7-2.5 3.7 1.1.3 2 1.2 2 1.9 0 4 10.2 5.5 15.1 2.3 2.9-1.9 3.9-1.4 3.9 2.1 0 3-5.4 8.2-8.4 8.2-1.2 0-3.5 1.3-5 2.9-2.3 2.4-2.7 3.5-2.2 5.7 1 3.7 5.9 8.4 8.9 8.4 1.4 0 3 .7 3.7 1.6 2.2 2.6 8.2 4.6 12.3 4.1 3.5-.5 3.7-.4 3.7 2.4 0 4.2-4.7 8.9-12.9 12.8-6.9 3.4-9.9 6.1-4.3 4 12.3-4.7 27.7-15.8 30.8-22.3 3.8-8 6-10.6 9-10.6 2.9 0 2.9 0 .3 4.4-2.2 3.8-1.9 5.7.9 4.9 2.9-.7 5.2-3 5.7-5.4.8-4.1 4.6-5.1 7.9-2 2.3 2.1 10.4 5.1 13.8 5.1 1.2 0 6.8 1.6 12.6 3.6 5.7 1.9 11 3.3 11.8 3 1.6-.6 3.4 1.1 6.7 6.4 1.3 1.9 4 4.5 6.2 5.7 4.5 2.5 6.6 6 6.8 11.5.2 2.9.8 4.4 2.7 5.8 2.2 1.7 2.3 2.2 1.3 3.9-1.1 1.7-1 1.9.1 1.5.8-.3 2.4-.1 3.5.6 1.7.9 1.9 1.4 1.1 3.1-1.4 2.5-.5 3.9 2.5 3.9s13.7 9.7 15.5 14c1 2.4 1 3.3 0 4.5-1 1.2-1.6 1.3-2.7.4-.7-.7-1.7-.9-2.1-.5-.4.4-.8 8.1-1 17.1-.4 17.8.5 23.4 4.2 26.9 1.3 1.1 3.3 4.3 4.4 6.9 2.5 5.7 5.4 9.5 8.9 11.8 1.3.9 2.4 2 2.3 2.5-.1.5.9 1.1 2.2 1.4 1.7.4 3.1 2.4 5.3 7.5 1.7 3.9 4 8.6 5.3 10.6 1.2 2 1.9 4.4 1.6 5.3-.4 1 .6 2.9 2.5 5.2 1.7 1.9 4.1 5.5 5.2 8 2.1 4.3 6.4 8.4 9 8.4.7 0 .1-1.3-1.4-2.8-1.5-1.5-2.7-3.2-2.7-3.6 0-.5-1.7-3.6-3.8-7-2.1-3.4-5.3-9.4-7.1-13.4-2.6-5.8-3-7.6-2.1-8.7 1.6-1.9 4.7-.3 6 3.1 1.1 2.8 11.2 18.2 19.6 29.7 4.4 6.1 5.7 8.6 5.8 11.9.3 5.4 3.5 8.1 18 15.4 9.3 4.7 11.5 5.4 16 5.3 4.5-.2 6 .3 12.5 4.4 4.1 2.6 9.5 5.3 12.1 6.2 6.5 2.2 12 8.3 12 13.5 0 1.6.4 1.9 2.3 1.5 1.8-.5 2.6-.1 3.4 1.8.9 1.9 2.7 3 6.8 4.2 5.3 1.5 5.8 1.5 7.5 0 4.2-3.8 8.7 1.4 9.7 10.9.7 7 .1 9.2-4.4 15.7-6.7 9.7-9.2 19.7-5.5 21.8 1.6 1 1.5 1.3-1.1 3.6l-2.7 2.4 3.9 8.8c2.1 4.8 5 11.9 6.4 15.8 6.9 19.1 6.2 17.9 15 24.8 4.5 3.6 9.2 7.6 10.4 8.9l2.3 2.4-2 28.9c-2.4 35.4-2.4 35.2-6.1 43.7-3 6.8-4.4 16.1-4 26.8.7 19 .5 22.8-.9 24.5-1.3 1.6-1.5 1.6-2.6 0-.7-.9-1.7-1.4-2.3-1-1.8 1-1.2 3.3.9 4 2.2.7 7 6.5 7 8.3 0 .7-.9 1.2-1.9 1.2-1.7 0-2 .9-2.3 6.7-.2 3.8-.8 7.6-1.2 8.5-.7 1.5-.3 1.8 1.7 1.8 3.1 0 9 4.7 8.3 6.6-1.1 2.8 1.3 1.3 3.4-2.1 1.2-1.9 2.5-3.5 3-3.5.4 0 1-1.4 1.4-3.1.3-1.7 1.7-4.4 3.1-6.1 1.4-1.6 2.5-3.4 2.5-4 0-.5 1.7-3 3.8-5.5 2.6-3.3 3.3-4.8 2.3-5.1-5.6-1.9-6.9-10.6-1.9-13 2-.9 2.8-2.2 3.3-5.2.4-2.5 1.4-4.4 2.7-5.1 1.8-1 1.8-1.2.4-3.4-2.4-3.7-2.1-6.5.8-6.5 4 0 5.6-1.1 7.7-5.1 1.3-2.7 2.8-4 4.7-4.4 13.1-2.8 15.2-4 15.2-8.5 0-1.5-1.4-4.6-3.1-6.9-1.7-2.4-2.8-4.5-2.5-4.8.3-.4 2.3.2 4.5 1.1 8.3 3.8 14.5-1.5 24.1-20.3 3.8-7.4 4.2-8.9 3.7-13.2-.6-4.5-.4-5 2.9-7.8 1.9-1.7 5.2-4 7.2-5 2.1-1.1 4.4-2.6 5.1-3.4.7-.9 3.1-1.8 5.4-2.2 6.6-1.1 8.3-2.7 11.7-11.7 2.8-7 3.3-10 3.8-19.6l.5-11.2 4.7-5.9c6.5-8.1 9.2-14 8.8-19.3-.3-3.9-.8-4.6-7-9.4-6.1-4.7-7.3-5.2-13.5-5.9-7.7-.8-9.2-1.4-14.7-6.2-2.2-1.8-4.8-3.3-5.9-3.3-1.1 0-3.7 1.6-5.8 3.5-4.3 3.8-5.6 4.2-8.4 2.2-1.7-1.3-1.5-1.5 2.1-3.3 3.9-1.9 5.9-5.4 3.1-5.4-.8 0-3.4 1.6-5.8 3.5s-5 3.5-5.7 3.5c-1.8 0 .9-4.9 5.3-9.5l3.5-3.7-2-2.6c-1.1-1.3-2-3.5-2-4.7 0-4.8-8.9-11.5-15.4-11.5-1.5 0-3.9-.6-5.4-1.4-3.2-1.7-14.5-13.2-16.2-16.4-1-2.1-1.8-2.3-6.8-2.1-5.9.3-14.7-1.9-19-4.7-2.3-1.5-2.5-1.4-4 .8-1 1.2-1.9 3.6-2.2 5.2-.7 3.9-2.7 4.4-4.2 1.2-.9-2.2-.8-3.3.5-6.1 2-4.1 1.6-4.3-2.6-1.1-1.8 1.4-4.4 2.9-5.8 3.5-1.9.7-3.2 2.4-4.4 5.5-1.9 4.8-3.4 5.6-5.5 3-2.5-2.9-4.7-3.4-10-2.3-4.8 1-5.3.9-7.7-1.3-4.1-3.8-5.1-7.3-4.6-16 .7-9 .7-9-10.4-10.3-6.1-.7-6.3-.8-6.3-3.6 0-1.6.7-4.6 1.5-6.5 2-4.9 3-13 1.6-13.8-1.8-1.1-8.9 1.3-10.6 3.7-.8 1.2-1.5 3.1-1.5 4.3 0 3.1-2.2 4.5-8.2 5-6.7.7-10.4-1.5-13.6-8-2.9-5.7-4.6-16.5-3.2-20.1.6-1.5 1-4.6 1-7 0-5 1.5-6.9 8.5-10.6 4.3-2.3 4.4-2.3 11.7-.6 9.4 2.2 11.5 2.3 9.8.1-1.1-1.3-1-1.8.7-3.6 1.8-1.8 2.8-1.9 9.6-1.3 9.3.9 10.9 2.2 13.7 11.3 1.9 6.6 4.3 10.2 6.8 10.2 1.7 0 1.5-2.5-.8-10.6-1-3.9-2.3-9-2.9-11.3l-.9-4.3 7.4-8.4c4.1-4.5 7.4-8.7 7.4-9.1 0-.5.9-1.4 2.1-2.1 1.2-.7 1.8-1.6 1.5-1.9-.3-.4-.1-1.2.5-1.9.7-.9.7-2.4-.2-5.2-1.2-4-.6-9.2 1-9.2.4 0 1.3 1.2 2 2.7l1.3 2.8 1.2-3.6c2.6-7.5 7.1-11.9 12-11.9 3.1 0 3.9-1.2 2.7-4.3-1.7-4.5 2-8.3 11.9-12.3 8.6-3.4 13-4.2 13-2.4 0 .5-.5 1-1 1-1.7 0-6 4.7-6 6.5 0 1.2 1.2.7 4.9-1.7 4.8-3.2 9.8-6.3 13.3-8.3 1-.5 1.8-1.3 1.8-1.7 0-1.5-2.3-.8-5.2 1.7-3.4 2.8-4.8 2.8-6.3-.1-.6-1.1-1.8-1.8-2.7-1.6-1.6.3-7.8-5.2-7.8-6.9 0-.4 1.4-1 3-1.4 3.1-.7 4.1-3.2 1.5-4.1-2.1-.8-7.8 1.3-12.4 4.7-4.5 3.2-6.1 3.6-6.1 1.5 0-1.7 8.2-9.1 12.4-11.3 1.7-.9 7.3-1.9 12.6-2.3 9.4-.7 22.7-4.3 24.2-6.4 1.1-1.5 1-6.8-.1-8.5-.7-1-2.1-1.2-5.3-.7-7.9 1.2-8.3 1.1-8.3-.4 0-.8 1.9-2.4 4.3-3.5l4.2-2.1-6.5-3.3c-3.5-1.8-7.1-4.4-8-5.7-.8-1.3-1.3-2.4-1-2.4.3 0-.7-1.9-2.4-4.3-1.6-2.4-3.4-6.2-4-8.5-.7-2.3-1.5-4.2-1.8-4.2-.4 0-2.1 1.4-3.9 3.1-1.8 1.8-5 3.5-7.5 4-4.2 1-4.5.9-7.1-2.1-2.9-3.1-3.5-5.4-1.8-6.5 2.5-1.5.6-4.4-5.6-8.5-5.5-3.6-7.7-4.5-12.4-4.8-5.4-.4-5.9-.3-7.6 2.3-1.2 1.8-1.9 4.8-1.9 8.4-.1 3.1-.5 7.2-.9 9.2-.6 2.8-.3 4.3 1.3 7 2.6 4.3 2.6 7.9.1 12.9-1.2 2.4-2.4 7.5-2.9 12.7-1 10.1-2.5 12.2-7.1 9.8-1.5-.8-4.2-3.1-6-5.1-3-3.4-3.2-4.1-2.8-9.4l.4-5.7-6-1.1c-3.8-.7-8.8-2.8-13.8-5.7-4.2-2.5-8.6-4.5-9.7-4.5-2.3 0-3.2-1.2-4.1-5.4-.4-2.1-1.2-3.1-2.5-3.2-4-.2-4.4-.5-5.5-3.8-1.4-4.3-.4-6.8 5.7-14.2 2.7-3.2 5.6-7.3 6.4-8.9 1.1-2.4 2.2-3.1 5.5-3.5 4.3-.6 9.4-3.3 9.4-5 0-.5-1.8-1.5-4-2.1-2.2-.7-4-1.5-4-1.9 0-1.7 8.5-2.6 10.7-1.2.7.4 1.5 2.6 1.9 4.8.5 3.2.2 4.5-1.2 5.9-1.7 1.7-1.7 1.8.1 3.1 2.9 2.1 5.7 1.7 8.1-1.3l2.2-2.8 3.7 1.8c2 .9 4.1 1.5 4.7 1.1 1.6-1-4.3-6.4-9.8-8.9-2.8-1.2-5.9-3.3-6.8-4.6-1.6-2.4-1.6-2.4 2.8-3.1 4.5-.6 11.2-3.4 12.2-5 .3-.5-.2-2-1.1-3.5-1.1-1.6-1.5-3.6-1.1-5.4.7-3.6-2.3-5.9-7.6-5.9-3.6 0-3.8.2-3.2 2.5.5 1.8-.1 3.7-2 6.6-3.6 5.3-5.6 4.8-7.6-1.8-2.2-7.7-3.5-8.5-6.9-4.4-2.9 3.5-5.1 3.5-5.1.1 0-1.1-1.1-2.7-2.5-3.6-1.9-1.2-2.3-2.2-1.9-4 .4-1.6-.1-3-2-4.8-3.1-3.2-7-3.3-9-.4zm25.1 120.4c-.9.9-2.8-.6-2.1-1.8.4-.6 1-.6 1.7.1.6.6.8 1.3.4 1.7zm7.1 7.7c.8.6 2.7 3 4.3 5.3 2.5 3.7 3.8 4.6 8.9 6 6.5 1.8 8.2 3.2 5.7 4.5-.8.5-1.8 2.3-2.2 3.9-.8 3.4-2.1 3.9-3 1.1-.3-1.1-1.2-2.2-2-2.5-.8-.3-1.5-1.6-1.5-3 0-2.3-1.6-3.6-4.6-3.6-1.7 0-5 6.3-5.9 11.5-.4 2.2-1.1 4.7-1.5 5.5-1.3 2.2-2.2-2.5-1.8-9 .3-5.2.5-5.6 4.2-7.6l3.9-2.2-2.9-1.8c-1.9-1.3-5.2-2-10.6-2.3l-7.7-.3 5.7-3.9c5.7-3.8 7.9-4.1 11-1.6zm35.7 3.8c0 .7-.8 1.5-1.7 1.7-1.8.3-2.5-1.8-1.1-3.2 1-1 2.8-.1 2.8 1.5zm-11.5 5.4c0 .8-.4 1.5-.9 1.5-1.3 0-2.2-1.6-1.4-2.4 1.1-1.1 2.3-.6 2.3.9zm6.9 13.4c-3.1 1.5-8 4.2-10.8 6-5.3 3.4-9.5 4-4.5.6 5.9-4 17-9.4 18.9-9.4 1.2 0-.3 1.2-3.6 2.8zM303 90.6c0 .8.5 1.2 1 .9.6-.4.8-1.1.5-1.6-.9-1.4-1.5-1.1-1.5.7zM1241.4 91.5c-1.8 1.4-1.7 1.4 1.2 1.5 4.4 0 9.4-1.1 9.4-2.1 0-1.5-8.5-1-10.6.6z"/>
  <path d="M149.7 91.6c-.8.8.1 2.4 1.4 2.4.5 0 .9-.7.9-1.5 0-1.5-1.2-2-2.3-.9zM579 92.5c0 .9.5 1.5 1.1 1.3.6-.2 1.1-.8 1.1-1.3s-.5-1.1-1.1-1.3c-.6-.2-1.1.4-1.1 1.3zM574.7 94.6c-.8.8.1 2.4 1.4 2.4.5 0 .9-.7.9-1.5 0-1.5-1.2-2-2.3-.9zM815.3 95.6c-.6 1.7 2.3 4.3 5 4.4 2 0 2.3-2.3.5-3.7-2.6-2-4.9-2.3-5.5-.7zM671.7 95.7c-1.2 1.1-.8 2.3.8 2.3.8 0 1.5-.7 1.5-1.5 0-1.6-1.2-2-2.3-.8zM255.2 100.2c-1.7 1.7-1.5 2.5.8 4.8 2.1 2.1 2.1 2.1 6.5.1 4.2-1.9 6.4-1.3 2.9.7-1.6.9-1.2 3.2.6 3.2.9 0 5-6.2 5-7.6 0-.5-2.1-.8-4.6-.5-2.5.2-5.1-.2-5.7-.8-1.4-1.4-4-1.4-5.5.1zM779.5 102c-1.7 1.9-1.7 2 0 2.6 2.1.9 4.9-.7 5.3-3 .5-2.3-3.1-2.1-5.3.4zM322 102.4c0 .9.7 1.6 1.6 1.6 1.7 0 1.4-2.2-.4-2.8-.7-.2-1.2.3-1.2 1.2zM415 102c0 .5.7 1 1.5 1s1.5-.5 1.5-1c0-.6-.7-1-1.5-1s-1.5.4-1.5 1zM135.4 104.5c-1 .8-1.4 1.5-.8 1.5.6 0 1.7-.7 2.4-1.5 1.6-1.9.9-1.9-1.6 0zM658.7 104.6c-.8.8.1 2.4 1.4 2.4.5 0 .9-.7.9-1.5 0-1.5-1.2-2-2.3-.9zM323.7 107.6c-.8.8.1 2.4 1.4 2.4.5 0 .9-.7.9-1.5 0-1.5-1.2-2-2.3-.9zM652.5 107.9c-.7 1.2 1.2 2.4 2.5 1.6 1.1-.7.4-2.5-1-2.5-.5 0-1.1.4-1.5.9zM333.4 110.5c-1.6 1.2-1.7 1.6-.5 2.4 1.8 1.1 4.1.3 4.1-1.4 0-2.2-1.5-2.6-3.6-1zM351.3 119.2c.2.7 1 1.3 1.7 1.3s1.5-.6 1.8-1.3c.2-.7-.5-1.2-1.8-1.2s-2 .5-1.7 1.2zM540.4 120.7c-3.9.3-5.3.8-5.7 2.2-.5 2.1-6.4 5.1-10.4 5.2l-2.8.1 3 1.1c1.7.7 4.1 2.2 5.3 3.4 1.6 1.7 3.3 2.3 6.5 2.3 4.2 0 13.4-3.3 18.2-6.4l2.4-1.6-2.2-3.5c-2.4-3.7-2.1-3.6-14.3-2.8zM523 122c-.8.5-1.1 1.2-.8 1.5.9.9 6.8-.5 6.8-1.6 0-1.2-4.1-1.1-6 .1zM639.7 132.6c-.8.8.1 2.4 1.4 2.4.5 0 .9-.7.9-1.5 0-1.5-1.2-2-2.3-.9zM0 136.6c.1 3 5.5 5.3 8.5 3.7 1.4-.8 1.4-1.1.2-2.2-1.9-1.5-8.7-2.7-8.7-1.5zM332 137.5c0 .8.7 1.5 1.5 1.5s1.5-.7 1.5-1.5-.7-1.5-1.5-1.5-1.5.7-1.5 1.5zM326.6 137.7c-1.1 1.1-.6 2.3.9 2.3.8 0 1.5-.4 1.5-.9 0-1.3-1.6-2.2-2.4-1.4zM308.1 143.4c-.8 1-.9 1.6-.1 2.1 1.6 1 5-.4 5-2.1 0-1.8-3.4-1.8-4.9 0zM320.4 143.5c-.7 1.8.2 4.5 1.5 4.5 1.2 0 2.4-3.7 1.6-5-.9-1.5-2.5-1.2-3.1.5zM580.7 143.7c-.2.4-.8 2.5-1.1 4.7-.9 4.9 1.4 4.6 2.7-.4.8-3-.4-6.4-1.6-4.3zM600.3 153.6c-.9 2.3 1.1 3.8 2.6 2 1.3-1.6.7-3.6-1-3.6-.5 0-1.2.7-1.6 1.6zM363 154.5c0 .8.5 1.5 1 1.5.6 0 1-.7 1-1.5s-.4-1.5-1-1.5c-.5 0-1 .7-1 1.5zM676.6 153.7c-1.1 1.1-.6 2.3.9 2.3.8 0 1.5-.4 1.5-.9 0-1.3-1.6-2.2-2.4-1.4zM14.7 155.6c-.8.8.1 2.4 1.4 2.4.5 0 .9-.7.9-1.5 0-1.5-1.2-2-2.3-.9zM591.3 164.2c-4.5 4.9-5.4 7-4.6 12.3.5 4 1.1 5.1 4 6.7 4.6 2.7 5.4 6.5 2.1 9.3-1.4 1.2-2.9 3.1-3.2 4.3-.5 1.6-.2 2.1 1.6 2.4 3.7.5 3.3 3.2-.8 5.1-4.7 2.3-3.9 3.1 1.7 1.8 2.4-.6 6.3-1.1 8.6-1.1 5.6 0 7.1-.7 8.8-4.1 1.9-3.7 1.9-3.8-.9-4.9-1.7-.6-2.9-2.2-3.7-5.1-.7-2.2-3.3-6.3-5.7-9.1-4.3-4.7-4.4-5-3.1-7.6.7-1.5 1.5-3.1 1.7-3.6.3-.4-1-.5-2.7-.1-3.8.8-4.1-1.1-1-6.1 2.6-4.3 1.2-4.4-2.8-.2zM580.5 164c-.4.6-.3 1.6.3 2.2.6.6 1.2.6 1.7-.2.4-.6.3-1.6-.3-2.2-.6-.6-1.2-.6-1.7.2zM30.5 164.9c-.6 1.1.9 2.3 1.9 1.4.9-.9.7-2.3-.3-2.3-.6 0-1.2.4-1.6.9zM684.5 164.9c-.6 1.1.9 2.3 1.9 1.4.9-.9.7-2.3-.3-2.3-.6 0-1.2.4-1.6.9zM64.5 166.6c-4.3 2.2-5.9 4-5.1 5.9.5 1.5.9 1.4 3.6-.5 2.9-2 5.6-5.8 4.8-6.5-.2-.3-1.7.3-3.3 1.1zM122 169.6c0 1.7 2.2 1.4 2.8-.4.2-.7-.3-1.2-1.2-1.2-.9 0-1.6.7-1.6 1.6zM580.6 169.7c-1.1 1.1-.6 2.3.9 2.3.8 0 1.5-.4 1.5-.9 0-1.3-1.6-2.2-2.4-1.4zM670.7 169.7c-1.1 1-.8 4.3.3 4.3 1.5 0 2.4-3 1.3-4.1-.5-.5-1.2-.6-1.6-.2zM3.2 175.1c.2.6.8 1 1.3 1s1.1-.4 1.3-1c.2-.6-.4-1.1-1.3-1.1s-1.5.5-1.3 1.1zM57 176.5c0 .9.5 1.5 1.1 1.3.6-.2 1.1-.8 1.1-1.3s-.5-1.1-1.1-1.3c-.6-.2-1.1.4-1.1 1.3zM320.7 177.6c-.8.8.1 2.4 1.4 2.4.5 0 .9-.7.9-1.5 0-1.5-1.2-2-2.3-.9zM54.5 180c-.4.6-.3 1.6.3 2.2.6.6 1.2.6 1.7-.2.4-.6.3-1.6-.3-2.2-.6-.6-1.2-.6-1.7.2zM132 181.6c0 3.1 2.3 2.8 2.8-.4.2-1.5-.2-2.2-1.2-2.2-1.1 0-1.6.9-1.6 2.6zM1192.5 180c-.4.6-.3 1.6.3 2.2.6.6 1.2.6 1.7-.2.4-.6.3-1.6-.3-2.2-.6-.6-1.2-.6-1.7.2zM645.3 182.6c-.9 2.3 1.1 3.8 2.6 2 1.3-1.6.7-3.6-1-3.6-.5 0-1.2.7-1.6 1.6zM657.6 182.7c-1.1 1.1-.6 2.3.9 2.3.8 0 1.5-.4 1.5-.9 0-1.3-1.6-2.2-2.4-1.4zM576.7 183.7c-.4.3-.7 1.4-.7 2.4s-.9 2.1-2.1 2.4c-1.6.5-1.9 1.2-1.5 3 .3 1.3.2 2.7-.4 3-1.3.8-1.3 5.5 0 5.5 2.1 0 8.9-4 10.4-6.2 1.9-2.7 2.1-7.9.4-9.6-1.3-1.3-5-1.6-6.1-.5zM23.2 185.2c.6 1.8 2.8 2.1 2.8.4 0-.9-.7-1.6-1.6-1.6-.9 0-1.4.5-1.2 1.2zM1112 186.9c0 1-.7 3.5-1.6 5.6-1.4 3.4-1.4 4.3 0 9.9.9 3.4 1.6 10.3 1.6 15.4 0 9.2.5 10.7 3 9.2 1.2-.7 1.1-1.4-.4-4.2-1-1.8-1.6-4.7-1.4-6.3.3-2.6.7-3 3-2.7l2.7.3-2.1-4.8c-1.5-3.4-2.3-7.6-2.6-14.6-.3-5.3-.9-9.7-1.3-9.7-.5 0-.9.8-.9 1.9zM1199.7 185.7c-1.2 1.1-.8 2.3.8 2.3.8 0 1.5-.7 1.5-1.5 0-1.6-1.2-2-2.3-.8zM13.2 188.2c.7 1.9 3.8 2.2 3.8.4 0-1-.9-1.6-2.1-1.6-1.2 0-1.9.5-1.7 1.2zM132 189c0 1.1.7 2 1.5 2s1.5-.9 1.5-2-.7-2-1.5-2-1.5.9-1.5 2zM7.7 191.6c-.8.8.1 2.4 1.4 2.4.5 0 .9-.7.9-1.5 0-1.5-1.2-2-2.3-.9zM313 194.2c0 1.6 1.9 3.8 3.3 3.8.4 0 .7-1 .5-2.2-.3-2.5-3.8-3.9-3.8-1.6zM1217.2 194.1c.2.6.8 1 1.3 1s1.1-.4 1.3-1c.2-.6-.4-1.1-1.3-1.1s-1.5.5-1.3 1.1zM135 197c.1.8.7 2.8 1.6 4.5l1.4 3-.5-3.5c-.5-3.5-2.5-6.7-2.5-4zM1155.7 205.3c-.3.8-.1 2 .4 2.8 1.1 1.9 3.4-.3 2.6-2.5-.8-2-2.3-2.1-3-.3zM153 208c0 .5.9 1 2.1 1 1.1 0 3.3 1.3 4.7 3 1.5 1.6 3.1 3 3.6 3 1.5 0-3.6-5-6.6-6.6-3.2-1.7-3.8-1.7-3.8-.4zM400.8 211.3c-5.6 4.6-6.8 6.8-4.7 9.4 1.3 1.5 5 1.4 10.7-.3 1.9-.6 2.2-.3 2.2 2.5 0 3.4 1.1 3.9 3 1.6.9-1 1.7-1.2 3-.5 1.7.9 3 .4 3-1.2 0-.4-.8-.8-1.9-.8-1.4 0-1.7-.6-1.4-2.4.7-3.2-2.8-6.6-6.7-6.6-3.4 0-3.7-.6-1.4-3.1.9-1 1.1-1.9.5-2.3-.5-.4-3.4 1.3-6.3 3.7zM378.5 211.9c-.8 1.3 3.5 4.1 6.2 4.1 3.1 0 2.9-2.4-.2-3.8s-5.2-1.5-6-.3zM1153.6 211.7c-1.1 1.1-.6 2.3.9 2.3.8 0 1.5-.4 1.5-.9 0-1.3-1.6-2.2-2.4-1.4zM1149 217.5c0 .9.5 1.5 1.1 1.3.6-.2 1.1-.8 1.1-1.3s-.5-1.1-1.1-1.3c-.6-.2-1.1.4-1.1 1.3zM1144.5 222c-.4.6-.3 1.6.3 2.2.6.6 1.2.6 1.7-.2.4-.6.3-1.6-.3-2.2-.6-.6-1.2-.6-1.7.2z"/>
  <path d="M403 224.5c0 .8.7 1.5 1.5 1.5s1.5-.7 1.5-1.5-.7-1.5-1.5-1.5-1.5.7-1.5 1.5zM1135.7 227.6c-.8.8.1 2.4 1.4 2.4.5 0 .9-.7.9-1.5 0-1.5-1.2-2-2.3-.9zM1130.6 231.7c-1.3 1.4-.5 3.3 1.4 3.3 1.1 0 2-.6 2-1.4 0-1.5-2.4-2.8-3.4-1.9zM1107.6 233.6c-.3.9-.6 2.6-.6 3.9 0 1.3-1 3-2.6 4-2.1 1.3-2.5 2.2-1.9 4.3.3 1.5 1.2 3.3 2 4.1 1.5 1.5 3.5.7 3.5-1.4 0-.8.7-1.1 2-.8 1.1.3 3-.4 4.6-1.6 1.5-1.2 3.3-2.1 4-2.1 1.7 0 3.7-3.7 3-5.6-.4-1-1.3-1.3-2.4-1-1.2.4-3.2-.4-5.7-2.4-4.3-3.4-5.1-3.6-5.9-1.4zM1125.2 236.1c.2.6.8 1 1.3 1s1.1-.4 1.3-1c.2-.6-.4-1.1-1.3-1.1s-1.5.5-1.3 1.1zM1124.6 240.7c-1.1 1.1-.6 2.3.9 2.3.8 0 1.5-.4 1.5-.9 0-1.3-1.6-2.2-2.4-1.4zM636.4 246.1c-1 1.7 1.3 3.6 2.7 2.2 1.2-1.2.4-3.3-1.1-3.3-.5 0-1.2.5-1.6 1.1zM1103.7 254.3c-.9.7-2 3.4-2.5 6.2-.7 4.6-1 5-3.5 4.8-2.4-.2-2.7.1-2.4 3 .2 2.9-.1 3.2-2.5 3.2-1.6 0-3.4 1-4.7 2.7-1.5 1.8-3.7 3-7.2 3.7-3 .7-6.8 2.5-9.1 4.2-2.9 2.3-4.5 2.9-6.3 2.5-3-.8-3.1-.1-.5 4.2 1.1 1.8 2 4.8 2 6.6 0 3.9 2.1 6.4 3.7 4.4.6-.7 2-3.2 3.2-5.6 1.6-3.1 2.7-4.2 4.5-4.2 1.3 0 3-.7 3.7-1.6 1.1-1.4.9-1.9-1.1-3.5-2.2-1.6-2.2-1.9-.7-1.9 1.1 0 3.1 1.3 4.6 2.9l2.8 3 2.1-2.1c1.5-1.6 3.7-2.3 7.9-2.6l5.8-.4 2.8-9.7c1.5-5.3 3.1-10.6 3.4-11.8 1.3-5.4-2.6-10.6-6-8zM636.4 256.5c-.4.8-.3 2.3 0 3.2.6 1.5.8 1.5 2.3.1 1.6-1.7 1.2-4.8-.7-4.8-.6 0-1.3.7-1.6 1.5zM619.8 257.2c-1.6.5-2.8 1.7-2.8 2.5 0 1 .5 1.3 1.8.8.9-.4 2.5-1 3.5-1.2 1.8-.5 2.3-1.9 1-2.6-.5-.2-2 0-3.5.5zM610.5 262.9c-.7 1.2 1.2 2.4 2.5 1.6 1.1-.7.4-2.5-1-2.5-.5 0-1.1.4-1.5.9zM653 268c-1.7 1-1.6 1.2 2.7 3.4 3.9 2 3.9 2 4.7 0 1.3-3.4-3.7-5.8-7.4-3.4zM677.7 268.6c-.8.8.1 2.4 1.4 2.4.5 0 .9-.7.9-1.5 0-1.5-1.2-2-2.3-.9zM647.6 272.7c-1.1 1.1-.6 2.3.9 2.3.8 0 1.5-.4 1.5-.9 0-1.3-1.6-2.2-2.4-1.4zM699.6 272.7c-1.1 1.1-.6 2.3.9 2.3.8 0 1.5-.4 1.5-.9 0-1.3-1.6-2.2-2.4-1.4zM692 275.6c0 1.7 2.2 1.4 2.8-.4.2-.7-.3-1.2-1.2-1.2-.9 0-1.6.7-1.6 1.6zM654.7 278.7c-1.2 1.1-.8 2.3.8 2.3.8 0 1.5-.7 1.5-1.5 0-1.6-1.2-2-2.3-.8zM721 279.5c0 2.1 2.7 3 4.5 1.5 1.9-1.6 1-3-2.1-3-1.5 0-2.4.6-2.4 1.5zM648.2 281.1c.2.6.8 1 1.3 1s1.1-.4 1.3-1c.2-.6-.4-1.1-1.3-1.1s-1.5.5-1.3 1.1zM693.8 281.7c.7.3 1.6.2 1.9-.1.4-.3-.2-.6-1.3-.5-1.1 0-1.4.3-.6.6zM1054.7 288.7c-1.2 1.1-.8 2.3.8 2.3.8 0 1.5-.7 1.5-1.5 0-1.6-1.2-2-2.3-.8zM373 292.5c0 .9.5 1.5 1.1 1.3.6-.2 1.1-.8 1.1-1.3s-.5-1.1-1.1-1.3c-.6-.2-1.1.4-1.1 1.3zM544.2 294.1c.2.6.8 1 1.3 1s1.1-.4 1.3-1c.2-.6-.4-1.1-1.3-1.1s-1.5.5-1.3 1.1zM1060.2 294.1c.2.6.8 1 1.3 1s1.1-.4 1.3-1c.2-.6-.4-1.1-1.3-1.1s-1.5.5-1.3 1.1zM541 311.4c0 .9.7 1.6 1.6 1.6.9 0 1.4-.5 1.2-1.2-.6-1.8-2.8-2.1-2.8-.4zM554.5 312c-.4.6-.3 1.6.3 2.2.6.6 1.2.6 1.7-.2.4-.6.3-1.6-.3-2.2-.6-.6-1.2-.6-1.7.2zM1064.7 312.4c-.3.8-.2 1.8.3 2.1 1.3.8 2.4-1.5 1.2-2.7-.6-.6-1.1-.4-1.5.6zM547 314.5c0 .9.5 1.5 1.1 1.3.6-.2 1.1-.8 1.1-1.3s-.5-1.1-1.1-1.3c-.6-.2-1.1.4-1.1 1.3zM325 317.6c0 .9.5 1.4 1.2 1.2 1.8-.6 2.1-2.8.4-2.8-.9 0-1.6.7-1.6 1.6zM541 317.6c0 1.7 2.2 1.4 2.8-.4.2-.7-.3-1.2-1.2-1.2-.9 0-1.6.7-1.6 1.6zM331 318.5c0 .9.5 1.5 1.1 1.3.6-.2 1.1-.8 1.1-1.3s-.5-1.1-1.1-1.3c-.6-.2-1.1.4-1.1 1.3zM1057.5 320.1c-.4 1.1-.4 2.3 0 2.7.9.9 4-1.3 4.3-3.2.5-2.4-3.5-2-4.3.5zM798 323.5c0 .9.5 1.5 1.1 1.3.6-.2 1.1-.8 1.1-1.3s-.5-1.1-1.1-1.3c-.6-.2-1.1.4-1.1 1.3zM325 324.4c0 .9.7 1.6 1.6 1.6 1.7 0 1.4-2.2-.4-2.8-.7-.2-1.2.3-1.2 1.2zM332.7 323.7c-1.2 1.1-.8 2.3.8 2.3.8 0 1.5-.7 1.5-1.5 0-1.6-1.2-2-2.3-.8zM1050 327.5c0 .8.7 1.5 1.5 1.5s1.5-.7 1.5-1.5-.7-1.5-1.5-1.5-1.5.7-1.5 1.5zM328.5 328c-.4.6-.3 1.6.3 2.2.6.6 1.2.6 1.7-.2.4-.6.3-1.6-.3-2.2-.6-.6-1.2-.6-1.7.2zM335.5 328c-.4.6-.3 1.6.3 2.2.6.6 1.2.6 1.7-.2.4-.6.3-1.6-.3-2.2-.6-.6-1.2-.6-1.7.2zM1044.5 328c-.4.6-.3 1.6.3 2.2.6.6 1.2.6 1.7-.2.4-.6.3-1.6-.3-2.2-.6-.6-1.2-.6-1.7.2zM1034 331.5c-1.1 3.4-.6 7.5.9 7.5.8 0 2.1-5.7 2.1-9.3 0-2.9-1.8-1.9-3 1.8zM332 332.8c0 1.3.7 1.7 4.3 2.6 2 .5 2.7.3 2.7-.9 0-.8-.6-1.5-1.2-1.5-.7 0-2.3-.3-3.5-.6-1.3-.4-2.3-.2-2.3.4zM309.3 335.5c-3.9 1.7-4.1 2.8-.8 4.3 1.4.6 2.5 1.8 2.5 2.7 0 .8.5 1.5 1.1 1.5.7 0 .9-1.1.6-3-.6-2.7-.5-2.9 1.7-2 6.8 2.6 14.9 7.3 15.3 9.1.6 2.3 5.9 2.6 8.8.5 2.8-2 1-3.7-9.8-9-10.7-5.2-14.9-6.1-19.4-4.1zM342.7 336.7c-1.2 1.1-.8 2.3.8 2.3.8 0 1.5-.7 1.5-1.5 0-1.6-1.2-2-2.3-.8zM39.2 339.1c.2.6.8 1 1.3 1s1.1-.4 1.3-1c.2-.6-.4-1.1-1.3-1.1s-1.5.5-1.3 1.1zM348.2 339.1c.2.6.8 1 1.3 1s1.1-.4 1.3-1c.2-.6-.4-1.1-1.3-1.1s-1.5.5-1.3 1.1zM44 341.5c-1 1.2-.9 1.6.5 2.1 1.9.8 4-.9 3.1-2.5-1-1.5-2.1-1.4-3.6.4zM345.2 343.2c.6 1.8 2.8 2.1 2.8.4 0-.9-.7-1.6-1.6-1.6-.9 0-1.4.5-1.2 1.2zM51.7 343.6c-.8.8.4 7.7 1.4 8.9.6.6 1.5.3 2.6-.8 1.6-1.5 1.6-1.8 0-3.5-.9-1-1.7-2.4-1.7-3 0-1.3-1.5-2.4-2.3-1.6zM992.3 350.5c-.3.9-.3 1.8 0 2.1.7.8 4.7-1.5 4.7-2.6 0-1.6-4-1.1-4.7.5zM345.8 353c-.9 1-1.4 2.1-1 2.4.8.8 8.9.6 13.7-.3l4-.8-3.7-1.7c-4.9-2.1-10.8-2-13 .4zM367.5 353.9c-.8 1.5.3 3.1 2.1 3.1.9 0 1.4-.7 1.2-1.7-.4-2-2.4-2.8-3.3-1.4zM326.6 355.9c-.9 1.3 1.9 3.2 3.8 2.5 2.5-1 1.9-3.4-.8-3.4-1.4 0-2.7.4-3 .9zM1034.3 356.2c-1.5 1.8-2.3 10.8-1.2 13.5.4 1.2 2.3 2.9 4.2 3.7 3.8 1.6 7.7 6 7.7 8.7 0 1.1.5 1.9 1 1.9.6 0 1-.8 1-1.7 0-1.3.3-1.4 1.2-.5.7.7 1.6 1.2 2.1 1.2s-2.3-3.5-6.2-7.7c-3.9-4.2-7.1-8.3-7.1-9 0-.8.9-2.7 2.1-4.2 1.7-2.3 1.9-3.2 1-5-1.3-2.3-4.3-2.8-5.8-.9zM374.6 356.7c-1.1 1.1-.6 2.3.9 2.3.8 0 1.5-.4 1.5-.9 0-1.3-1.6-2.2-2.4-1.4zM302 359.5c0 .9.5 1.5 1.1 1.3.6-.2 1.1-.8 1.1-1.3s-.5-1.1-1.1-1.3c-.6-.2-1.1.4-1.1 1.3zM380 359.6c0 .9.5 1.4 1.2 1.2 1.8-.6 2.1-2.8.4-2.8-.9 0-1.6.7-1.6 1.6zM386.6 359.7c-1.1 1.1-.6 2.3.9 2.3.8 0 1.5-.4 1.5-.9 0-1.3-1.6-2.2-2.4-1.4zM515.6 362.7c-1.1 1.1-.6 2.3.9 2.3.8 0 1.5-.4 1.5-.9 0-1.3-1.6-2.2-2.4-1.4zM523.5 364.9c-.7 1.2 1.2 2.4 2.5 1.6 1.1-.7.4-2.5-1-2.5-.5 0-1.1.4-1.5.9zM386 366.4c0 .9.7 1.6 1.6 1.6.9 0 1.4-.5 1.2-1.2-.6-1.8-2.8-2.1-2.8-.4zM1122.7 367.6c-.8.8.1 2.4 1.4 2.4.5 0 .9-.7.9-1.5 0-1.5-1.2-2-2.3-.9zM1199.7 368.6c-.8.8.1 2.4 1.4 2.4.5 0 .9-.7.9-1.5 0-1.5-1.2-2-2.3-.9zM518.5 370c-.4.6-.3 1.6.3 2.2.6.6 1.2.6 1.7-.2.4-.6.3-1.6-.3-2.2-.6-.6-1.2-.6-1.7.2zM524 370.9c0 .6.5 1.3 1 1.6.6.3 1-.1 1-.9 0-.9-.4-1.6-1-1.6-.5 0-1 .4-1 .9zM387 373.6c-1.4 3.5-1.3 4.4.5 4.4.8 0 1.5-.6 1.5-1.3 0-.6.3-2.2.6-3.5.9-3.1-1.4-2.8-2.6.4zM1047 372.5c0 .8.7 1.5 1.5 1.5s1.5-.7 1.5-1.5-.7-1.5-1.5-1.5-1.5.7-1.5 1.5zM1118.6 372.7c-1.1 1.1-.6 2.3.9 2.3.8 0 1.5-.4 1.5-.9 0-1.3-1.6-2.2-2.4-1.4zM393.2 378.1c.2.6.8 1 1.3 1s1.1-.4 1.3-1c.2-.6-.4-1.1-1.3-1.1s-1.5.5-1.3 1.1zM1034 379c0 1.1.7 2 1.5 2s1.5-.9 1.5-2-.7-2-1.5-2-1.5.9-1.5 2zM361.6 378.7c-1.1 1.1-.6 2.3.9 2.3.8 0 1.5-.4 1.5-.9 0-1.3-1.6-2.2-2.4-1.4zM932.7 378.6c-.8.8.1 2.4 1.4 2.4.5 0 .9-.7.9-1.5 0-1.5-1.2-2-2.3-.9zM367.2 381.1c.2.6.8 1 1.3 1s1.1-.4 1.3-1c.2-.6-.4-1.1-1.3-1.1s-1.5.5-1.3 1.1zM795 381.6c0 1.7 2.2 1.4 2.8-.4.2-.7-.3-1.2-1.2-1.2-.9 0-1.6.7-1.6 1.6zM384.7 381.6c-.8.8.1 2.4 1.4 2.4.5 0 .9-.7.9-1.5 0-1.5-1.2-2-2.3-.9zM1030 382.5c0 .9.5 1.5 1.1 1.3.6-.2 1.1-.8 1.1-1.3s-.5-1.1-1.1-1.3c-.6-.2-1.1.4-1.1 1.3zM932.7 384.6c-.8.8.1 2.4 1.4 2.4.5 0 .9-.7.9-1.5 0-1.5-1.2-2-2.3-.9zM1038.7 384.6c-.8.8.1 2.4 1.4 2.4.5 0 .9-.7.9-1.5 0-1.5-1.2-2-2.3-.9zM389.6 385.7c-1.1 1.1-.6 2.3.9 2.3.8 0 1.5-.4 1.5-.9 0-1.3-1.6-2.2-2.4-1.4zM349.4 388.6c.3.9.6 1.8.6 2 0 .2.4.4.9.4s.7-.9.4-2c-.3-1.1-1-2-1.5-2-.6 0-.7.7-.4 1.6zM1025.1 391.1c-2.3 3.7-2.6 4.9-1.3 4.9 1 0 4.5-7.1 3.8-7.7-.3-.3-1.4 1-2.5 2.8zM1051.7 388.7c-1.2 1.1-.8 2.3.8 2.3.8 0 1.5-.7 1.5-1.5 0-1.6-1.2-2-2.3-.8zM972 391.5c0 .9.5 1.5 1.1 1.3.6-.2 1.1-.8 1.1-1.3s-.5-1.1-1.1-1.3c-.6-.2-1.1.4-1.1 1.3zM1150.6 394.7c-1.1 1.1-.6 2.3.9 2.3.8 0 1.5-.4 1.5-.9 0-1.3-1.6-2.2-2.4-1.4zM1211 395.4c0 .9.7 1.6 1.6 1.6.9 0 1.4-.5 1.2-1.2-.6-1.8-2.8-2.1-2.8-.4zM1048.1 396.6c-1.8.8-3.9 1.3-4.7 1-1.2-.5-5 4.1-4.1 5.1.3.2 1.4 0 2.5-.6 2.9-1.6 3.2-1.4 4.3 1.9 1.3 3.5 3.1 3.8 5.9 1 2.1-2.1 2.4-3.9 1.4-7.8-.7-2.5-.8-2.5-5.3-.6zM888.8 398.7c-.2 3.5.1 6.5.7 7.1.2.2 1.6.2 3-.2 2.9-.7 3.1-2.5 1-6.6-2-3.8-4.4-3.9-4.7-.3zM863 398.4c0 .9.7 1.6 1.6 1.6.9 0 1.4-.5 1.2-1.2-.6-1.8-2.8-2.1-2.8-.4zM1140 398.4c0 .9.7 1.6 1.6 1.6 1.7 0 1.4-2.2-.4-2.8-.7-.2-1.2.3-1.2 1.2zM1146.2 400.1c.2.6.8 1 1.3 1s1.1-.4 1.3-1c.2-.6-.4-1.1-1.3-1.1s-1.5.5-1.3 1.1zM863 404.6c0 1.7 2.2 1.4 2.8-.4.2-.7-.3-1.2-1.2-1.2-.9 0-1.6.7-1.6 1.6zM1082 406.1c0 3.8 2.4 3.5 2.8-.4.2-1.9-.1-2.7-1.2-2.7-1.1 0-1.6 1-1.6 3.1zM937.6 404.7c-1.1 1.1-.6 2.3.9 2.3.8 0 1.5-.4 1.5-.9 0-1.3-1.6-2.2-2.4-1.4zM1105.6 404.7c-1.1 1.1-.6 2.3.9 2.3.8 0 1.5-.4 1.5-.9 0-1.3-1.6-2.2-2.4-1.4zM1130 405.4c0 .9.7 1.6 1.6 1.6 1.7 0 1.4-2.2-.4-2.8-.7-.2-1.2.3-1.2 1.2zM1013 412.5c-3.5 3.5-7.9 7.2-9.6 8-1.8.8-3.5 2.3-3.8 3.3-.4 1-2.1 2.5-3.9 3.3-2.8 1.2-3.2 1.8-2.9 4.9.3 3.8 3.8 10.4 7.1 13.4 2.3 2.1 12.1 3.9 15.9 2.9 1.8-.4 2.2-1.2 2.2-4.4 0-3.6 1.6-6.9 6.7-13.9 1.5-2 1.7-3.1.9-5.8-.6-1.7-1.6-3.2-2.2-3.2-2.8 0-2.5-2.3.7-5.6l3.3-3.4-2.9-3c-1.6-1.6-3.4-3-4-3-.6 0-3.9 2.9-7.5 6.5zM1033 408.5c0 .9.5 1.5 1.1 1.3.6-.2 1.1-.8 1.1-1.3s-.5-1.1-1.1-1.3c-.6-.2-1.1.4-1.1 1.3zM1124.6 407.7c-1.1 1.1-.6 2.3.9 2.3.8 0 1.5-.4 1.5-.9 0-1.3-1.6-2.2-2.4-1.4zM864.2 410.2c.6 1.8 2.8 2.1 2.8.4 0-.9-.7-1.6-1.6-1.6-.9 0-1.4.5-1.2 1.2zM1183.7 410.6c-.8.8.1 2.4 1.4 2.4.5 0 .9-.7.9-1.5 0-1.5-1.2-2-2.3-.9zM945.7 412.2c5.4 6.9 8.8 11.9 10.1 14.8.8 1.9 2.7 5.1 4.2 7 1.5 1.9 3.5 5.1 4.4 7.1 2.1 4.6 11 14.3 12.6 13.7 1.5-.5 5.2-9.9 4.5-11.6-.2-.6-1.2-1.2-2.2-1.2-2.4 0-6.9-3.8-8.7-7.3-.7-1.5-4.8-6.7-9.1-11.5-5.7-6.4-8.9-9.2-12.3-10.5-3-1.2-4.2-1.4-3.5-.5zM863.5 415c-.4.6-.3 1.6.3 2.2.6.6 1.2.6 1.7-.2.4-.6.3-1.6-.3-2.2-.6-.6-1.2-.6-1.7.2zM987.5 416.9c-.7 1.2 1.2 2.4 2.5 1.6 1.1-.7.4-2.5-1-2.5-.5 0-1.1.4-1.5.9zM632.6 417.7c-1.1 1.1-.6 2.3.9 2.3.8 0 1.5-.4 1.5-.9 0-1.3-1.6-2.2-2.4-1.4zM944.6 420.7c-1.1 1.1-.6 2.3.9 2.3.8 0 1.5-.4 1.5-.9 0-1.3-1.6-2.2-2.4-1.4zM1060.6 420.7c-1.1 1.1-.6 2.3.9 2.3.8 0 1.5-.4 1.5-.9 0-1.3-1.6-2.2-2.4-1.4zM629.7 423.6c-.8.8.1 2.4 1.4 2.4.5 0 .9-.7.9-1.5 0-1.5-1.2-2-2.3-.9zM281.7 426.6c-.8.8.1 2.4 1.4 2.4.5 0 .9-.7.9-1.5 0-1.5-1.2-2-2.3-.9zM950.5 428c-.4.6-.3 1.6.3 2.2.6.6 1.2.6 1.7-.2.4-.6.3-1.6-.3-2.2-.6-.6-1.2-.6-1.7.2zM1059.2 428.2c-1.4 1.4-1.5 4.7-.3 6.7.6 1 1.2.3 2.1-2.4 1.3-4 .3-6.4-1.8-4.3zM1214.5 428c-.4.6-.3 1.6.3 2.2.6.6 1.2.6 1.7-.2.4-.6.3-1.6-.3-2.2-.6-.6-1.2-.6-1.7.2zM625 430.5c0 .8.7 1.5 1.5 1.5s1.5-.7 1.5-1.5-.7-1.5-1.5-1.5-1.5.7-1.5 1.5zM1033.4 430c-3.7 1.5-5.5 12.8-3.7 22.8 1.6 8.3 3.5 9.2 2.8 1.2-1-10.4 2.1-12.3 4.8-3 1.6 5.6 3.7 6.5 3.7 1.5 0-2.7-.8-4.7-3.1-7.2-3.7-4.3-3.4-5.7 1.4-6.1 5.2-.4 3.6-2.2-1.9-2.2-3.2 0-4.6-.5-5.1-1.6-1-2.6 2.4-4.4 8.1-4.4 2.8 0 5.8-.5 6.6-1 1.9-1.2-10.6-1.3-13.6 0zM1066 433.6c0 .9.5 1.4 1.2 1.2 1.8-.6 2.1-2.8.4-2.8-.9 0-1.6.7-1.6 1.6zM275.3 434.6c-.7 1.9 1.1 3.9 2.6 3 1.6-1 1.3-3.3-.4-4-.9-.3-1.8.1-2.2 1zM281.7 433.7c-1.2 1.1-.8 2.3.8 2.3.8 0 1.5-.7 1.5-1.5 0-1.6-1.2-2-2.3-.8zM1195.6 433.7c-1.1 1.1-.6 2.3.9 2.3.8 0 1.5-.4 1.5-.9 0-1.3-1.6-2.2-2.4-1.4zM287.2 436.2c.6 1.8 2.8 2.1 2.8.4 0-.9-.7-1.6-1.6-1.6-.9 0-1.4.5-1.2 1.2zM1072 437c0 .5 1.5 1.7 3.3 2.6 4.3 2.2 4.3 2.1 2.3 4.3-2.1 2.3-1.2 4.4 1.5 3.6 2.6-.9 9.9 2.6 14.8 7 4.3 3.9 5.1 6.4 2.6 8.5-2.2 1.8-1.8 3 .9 3 1.3 0 4.3.9 6.7 2 5.8 2.6 8.3 2.5 11.3-.5 3.4-3.4 6.8-3.2 9.9.5 1.4 1.6 2.7 3.4 2.9 4 .4 1.3 8.8 4.3 9.6 3.5.3-.3-1.3-2.4-3.5-4.8-2.8-2.8-4.4-5.5-4.9-8.1-.6-3.3-1.5-4.4-6.8-7.8-7.6-4.9-19-10.4-25-12-4.4-1.2-4.7-1.1-7.6 1.7l-3 2.9-2.5-2.4c-1.4-1.3-2.5-3.3-2.5-4.6 0-1.7-.9-2.4-4.4-3.3-5.4-1.3-5.6-1.3-5.6-.1zM1217 437.5c0 .9.5 1.5 1.1 1.3.6-.2 1.1-.8 1.1-1.3s-.5-1.1-1.1-1.3c-.6-.2-1.1.4-1.1 1.3zM956 439.6c0 1.7 2.2 1.4 2.8-.4.2-.7-.3-1.2-1.2-1.2-.9 0-1.6.7-1.6 1.6zM1066 440.1c0 2.4 2.3 2.1 2.8-.4.2-1-.3-1.7-1.2-1.7-1 0-1.6.9-1.6 2.1z"/>
  <path d="M1086.2 439.1c.2.6.8 1 1.3 1s1.1-.4 1.3-1c.2-.6-.4-1.1-1.3-1.1s-1.5.5-1.3 1.1zM1109.7 438.6c-.8.8.1 2.4 1.4 2.4.5 0 .9-.7.9-1.5 0-1.5-1.2-2-2.3-.9zM1137.2 439.1c.2.6.8 1 1.3 1s1.1-.4 1.3-1c.2-.6-.4-1.1-1.3-1.1s-1.5.5-1.3 1.1zM622.7 439.7c-1.2 1.1-.8 2.3.8 2.3.8 0 1.5-.7 1.5-1.5 0-1.6-1.2-2-2.3-.8zM989.6 439.7c-1.1 1.1-.6 2.3.9 2.3.8 0 1.5-.4 1.5-.9 0-1.3-1.6-2.2-2.4-1.4zM1125.7 439.6c-.8.8.1 2.4 1.4 2.4.5 0 .9-.7.9-1.5 0-1.5-1.2-2-2.3-.9zM1047.2 442.1c.2.6.8 1 1.3 1s1.1-.4 1.3-1c.2-.6-.4-1.1-1.3-1.1s-1.5.5-1.3 1.1zM1053.2 442.1c.2.6.8 1 1.3 1s1.1-.4 1.3-1c.2-.6-.4-1.1-1.3-1.1s-1.5.5-1.3 1.1zM1221.2 442.1c.2.6.8 1 1.3 1s1.1-.4 1.3-1c.2-.6-.4-1.1-1.3-1.1s-1.5.5-1.3 1.1zM1227 443.5c0 .9.5 1.5 1.1 1.3.6-.2 1.1-.8 1.1-1.3s-.5-1.1-1.1-1.3c-.6-.2-1.1.4-1.1 1.3zM986.5 444c-.4.6-.3 1.6.3 2.2.6.6 1.2.6 1.7-.2.4-.6.3-1.6-.3-2.2-.6-.6-1.2-.6-1.7.2zM1062.3 445.1c-3.9 1.4-2.7 3 2 2.7 2.3-.2 4.1-.7 4-1.3-.3-1.5-3.6-2.3-6-1.4zM1146 444.5c0 1.4 2.5 5.5 3.6 5.9 2.2.8 2.6-1.2.8-3.9-1.4-2.1-4.4-3.5-4.4-2zM960 445.9c0 .5.5 1.3 1 1.6.6.3 1 .2 1-.4 0-.5-.4-1.3-1-1.6-.5-.3-1-.2-1 .4zM1053.6 446.7c-1.1 1.1-.6 2.3.9 2.3.8 0 1.5-.4 1.5-.9 0-1.3-1.6-2.2-2.4-1.4zM802.6 449.7c-1.1 1.1-.6 2.3.9 2.3.8 0 1.5-.4 1.5-.9 0-1.3-1.6-2.2-2.4-1.4zM1139.7 452.1c-5 3.1-5.4 3.8-3.5 5.7 1.5 1.5 5.9-1.1 8.2-4.9 2.3-3.9.8-4.2-4.7-.8zM748.7 452.6c-.8.8.1 2.4 1.4 2.4.5 0 .9-.7.9-1.5 0-1.5-1.2-2-2.3-.9zM1076.2 455.1c.2.6.8 1 1.3 1s1.1-.4 1.3-1c.2-.6-.4-1.1-1.3-1.1s-1.5.5-1.3 1.1zM1130 455.6c0 .9.5 1.4 1.2 1.2 1.8-.6 2.1-2.8.4-2.8-.9 0-1.6.7-1.6 1.6zM1045.5 455.9c-.7 1.2 1.2 2.4 2.5 1.6 1.1-.7.4-2.5-1-2.5-.5 0-1.1.4-1.5.9zM1082 456.4c0 .9.7 1.6 1.6 1.6.9 0 1.4-.5 1.2-1.2-.6-1.8-2.8-2.1-2.8-.4zM1154.7 455.6c-.8.8.1 2.4 1.4 2.4.5 0 .9-.7.9-1.5 0-1.5-1.2-2-2.3-.9zM795.2 458.1c.2.6.8 1 1.3 1s1.1-.4 1.3-1c.2-.6-.4-1.1-1.3-1.1s-1.5.5-1.3 1.1zM747 459.5c0 .9.5 1.5 1.1 1.3.6-.2 1.1-.8 1.1-1.3s-.5-1.1-1.1-1.3c-.6-.2-1.1.4-1.1 1.3zM1160.7 458.7c-1.2 1.1-.8 2.3.8 2.3.8 0 1.5-.7 1.5-1.5 0-1.6-1.2-2-2.3-.8zM981.2 460.1c.7 2.2 5.1 3.9 14.1 5.5 4.5.8 9.5 2 11 2.6 3.3 1.3 4.5.5 2.7-1.7-2.3-2.8-7.3-4.9-13.5-5.6-3.3-.5-8-1.1-10.4-1.5-3.5-.6-4.3-.4-3.9.7zM1008.5 459.9c-.8 1.5.3 3.1 2.1 3.1.9 0 1.4-.7 1.2-1.7-.4-2-2.4-2.8-3.3-1.4zM1015.5 460c-.4.6-.3 1.6.3 2.2.6.6 1.2.6 1.7-.2.4-.6.3-1.6-.3-2.2-.6-.6-1.2-.6-1.7.2zM1228.5 460c-.4.6-.3 1.6.3 2.2.6.6 1.2.6 1.7-.2.4-.6.3-1.6-.3-2.2-.6-.6-1.2-.6-1.7.2zM1037 462.6c0 .9.5 1.4 1.2 1.2 1.8-.6 2.1-2.8.4-2.8-.9 0-1.6.7-1.6 1.6zM1166 462.4c0 1.5 2.4 2.8 3.4 1.9 1.3-1.4.5-3.3-1.4-3.3-1.1 0-2 .6-2 1.4zM1057.6 462.7c-1.1 1.1-.6 2.3.9 2.3.8 0 1.5-.4 1.5-.9 0-1.3-1.6-2.2-2.4-1.4zM1069 465.5c0 .8.9 1.5 2 1.5s2-.7 2-1.5-.9-1.5-2-1.5-2 .7-2 1.5zM1162 465.5c0 .9.5 1.5 1.1 1.3.6-.2 1.1-.8 1.1-1.3s-.5-1.1-1.1-1.3c-.6-.2-1.1.4-1.1 1.3zM1235.5 464.9c-.7 1.2 1.2 2.4 2.5 1.6 1.1-.7.4-2.5-1-2.5-.5 0-1.1.4-1.5.9zM748.7 465.7c-1.2 1.1-.8 2.3.8 2.3.8 0 1.5-.7 1.5-1.5 0-1.6-1.2-2-2.3-.8zM1063.6 465.7c-1.1 1.1-.6 2.3.9 2.3.8 0 1.5-.4 1.5-.9 0-1.3-1.6-2.2-2.4-1.4zM1173.6 465.9c-.3.4.1 1.7.9 2.7 1 1.5 1.6 1.6 2.6.7.6-.6.9-1.9.6-2.7-.7-1.7-3.2-2.2-4.1-.7zM1051.5 467.9c-4.5 2.8-8.1 6.9-6.9 8.1 1.5 1.5 11.9-5 11.9-7.4 0-2.7-1.5-2.9-5-.7zM1014 468.6c0 1.7 2.2 1.4 2.8-.4.2-.7-.3-1.2-1.2-1.2-.9 0-1.6.7-1.6 1.6zM1043 468.5c0 .9.5 1.5 1.1 1.3.6-.2 1.1-.8 1.1-1.3s-.5-1.1-1.1-1.3c-.6-.2-1.1.4-1.1 1.3zM1019.7 468.6c-1.2 1.2.4 2.4 3.4 2.4 3.1 0 3.9-1.4 1.3-2.4-2-.8-3.9-.8-4.7 0zM1031.4 469.1c-.6 1 1.1 2.9 2.6 2.9.3 0 1.1-.4 1.9-.9 1.7-1.1.5-3.1-1.9-3.1-1 0-2.2.5-2.6 1.1zM1170.2 471.1c.2.6.8 1 1.3 1s1.1-.4 1.3-1c.2-.6-.4-1.1-1.3-1.1s-1.5.5-1.3 1.1zM1028.2 474.1c.2.6.8 1 1.3 1s1.1-.4 1.3-1c.2-.6-.4-1.1-1.3-1.1s-1.5.5-1.3 1.1zM1037 475.6c0 .9.5 1.4 1.2 1.2 1.8-.6 2.1-2.8.4-2.8-.9 0-1.6.7-1.6 1.6zM1177.5 474.9c-.7 1.2 1.2 2.4 2.5 1.6 1.1-.7.4-2.5-1-2.5-.5 0-1.1.4-1.5.9zM1146 478.5c0 .9.5 1.5 1.1 1.3.6-.2 1.1-.8 1.1-1.3s-.5-1.1-1.1-1.3c-.6-.2-1.1.4-1.1 1.3zM1172 479.4c0 .9.7 1.6 1.6 1.6.9 0 1.4-.5 1.2-1.2-.6-1.8-2.8-2.1-2.8-.4zM1074 481.4c0 .8-.8 2-1.9 2.5-2.5 1.4-6 8.7-5.4 11.1.5 1.8 0 2-3.9 2-3 0-5.4-.7-7.1-2-1.4-1.1-3-2-3.5-2-.6 0-1.4.9-1.7 2-.3 1.1-1 2-1.4 2-1.5 0-5.2 4.2-4.8 5.4.3.7.1 1.9-.3 2.7-.7 1.1-1.3 1-2.9-.5-2.1-1.9-2.1-1.9-2.1 1.5 0 5-4.2 8.6-18 15.6-14.1 7.1-15.6 9.1-12.2 15.5 1.2 2.4 2.2 5 2.2 5.9 0 2.8-1.4 3.1-3.2.7-2.7-3.5-2.2-.2.7 4.9 3.2 5.4 6.5 18 6.8 25.6.1 4.9.5 6.2 2.6 7.8 3.2 2.5 5.4 2.4 10.5-.6 2.3-1.4 6.6-2.9 9.5-3.5 2.9-.5 7.1-2.3 9.4-3.9 6.1-4.2 18.7-6.6 25-4.7 6 1.8 9.9 4.7 12.2 9 1.1 2 2.2 3.6 2.5 3.6.3 0 1.6-2 3-4.5 3-5.4 5.5-6.1 4.7-1.3-.3 1.8-.9 4.1-1.3 5.2-.6 1.6-.4 1.7 1.3.8 2.2-1.2 3.3-.7 3.3 1.6 0 1.1 3.1 6.8 7.6 14 .1.2 1.9.8 4 1.2 2.7.6 4.5.5 6.5-.5 2.5-1.3 2.9-1.2 5.4 1.1l2.8 2.5 3.1-3c1.8-1.7 4.2-3.1 5.3-3.1 2.7 0 3.2-.7 6.4-10 1.5-4.1 3.6-10 4.8-13.1 1.9-5.3 5.1-25.2 5.1-31.9 0-2.4-.7-3.2-3.6-4.6-3.4-1.6-12.4-12.4-12.4-14.9 0-.6-1.3-1.8-2.9-2.8-3.7-2.2-7-8.9-8.1-16.5-.5-3.7-1.9-7.6-3.9-10.7-1.7-2.7-3.4-6.3-3.7-8.2-.3-1.8-1-3.3-1.4-3.3-1.1 0-2.9 5.3-4.5 13.7-1.5 7.8-4.8 15.3-6.8 15.3-.6 0-4.3-2.4-8.2-5.3-8.1-6-8.8-8-5.6-15.3 1.2-2.6 2-4.8 1.9-4.9-1.5-.9-7.2-2.5-11-3.1-4-.5-4.8-.4-4.8 1zM757.6 481.7c-1.1 1.1-.6 2.3.9 2.3.8 0 1.5-.4 1.5-.9 0-1.3-1.6-2.2-2.4-1.4zM761.7 484.6c-.8.8.1 2.4 1.4 2.4.5 0 .9-.7.9-1.5 0-1.5-1.2-2-2.3-.9zM779.4 487.5c-1.1 4.5-3.9 8-8.9 10.9-6.3 3.8-7.5 5.9-7.5 13.7 0 4-.6 7.8-1.5 9.5-1.9 3.7-1.9 7.9.1 13.8 1.9 5.5 3.2 6.3 7.5 4.5 3.9-1.6 4.9-4 8.3-19.4 1.5-6.6 3.4-14.2 4.3-16.9 1.6-5.1 1.4-13.9-.5-17.3-.9-1.6-1.1-1.4-1.8 1.2zM766.6 488.7c-1.1 1.1-.6 2.3.9 2.3.8 0 1.5-.4 1.5-.9 0-1.3-1.6-2.2-2.4-1.4z"/>
  <path d="M1091 490c0 .5.5 1 1 1 .6 0 1-.5 1-1 0-.6-.4-1-1-1-.5 0-1 .4-1 1zM1270.5 490.9c-.7 1.2.1 1.7 4.3 2.6 1.9.4 3.2.3 3.2-.4 0-1.2-.7-1.6-4.2-2.5-1.5-.3-2.9-.2-3.3.3zM1193.5 496.9c-.7 1.2 1.2 2.4 2.5 1.6 1.1-.7.4-2.5-1-2.5-.5 0-1.1.4-1.5.9zM798 501.5c0 .9.5 1.5 1.1 1.3.6-.2 1.1-.8 1.1-1.3s-.5-1.1-1.1-1.3c-.6-.2-1.1.4-1.1 1.3zM1195.5 502c-.4.6-.3 1.6.3 2.2.6.6 1.2.6 1.7-.2.4-.6.3-1.6-.3-2.2-.6-.6-1.2-.6-1.7.2zM1238.5 502.9c-.6 1.1.9 2.3 1.9 1.4.9-.9.7-2.3-.3-2.3-.6 0-1.2.4-1.6.9zM1199.6 504.7c-1.1 1.1-.6 2.3.9 2.3.8 0 1.5-.4 1.5-.9 0-1.3-1.6-2.2-2.4-1.4zM74 507.6c0 1.7 2.2 1.4 2.8-.4.2-.7-.3-1.2-1.2-1.2-.9 0-1.6.7-1.6 1.6zM1234.2 507.2c.6 1.8 2.8 2.1 2.8.4 0-.9-.7-1.6-1.6-1.6-.9 0-1.4.5-1.2 1.2zM78.7 509.6c-.8.8.1 2.4 1.4 2.4.5 0 .9-.7.9-1.5 0-1.5-1.2-2-2.3-.9zM1260.7 516.6c-.8.8.1 2.4 1.4 2.4.5 0 .9-.7.9-1.5 0-1.5-1.2-2-2.3-.9zM119 520.6c0 1.7 2.2 1.4 2.8-.4.2-.7-.3-1.2-1.2-1.2-.9 0-1.6.7-1.6 1.6zM808 520.5c0 .9.5 1.5 1.1 1.3.6-.2 1.1-.8 1.1-1.3s-.5-1.1-1.1-1.3c-.6-.2-1.1.4-1.1 1.3zM1188 520.4c0 1.6 4.2 4.6 6.5 4.6 2.2 0 1.8-2.7-.7-4.4-2.8-2-5.8-2.1-5.8-.2zM802.6 520.7c-1.1 1.1-.6 2.3.9 2.3.8 0 1.5-.4 1.5-.9 0-1.3-1.6-2.2-2.4-1.4zM1256.6 520.7c-1.1 1.1-.6 2.3.9 2.3.8 0 1.5-.4 1.5-.9 0-1.3-1.6-2.2-2.4-1.4zM104.7 522.6c-.8.8.1 2.4 1.4 2.4.5 0 .9-.7.9-1.5 0-1.5-1.2-2-2.3-.9zM128 529.5c0 .9.5 1.5 1.1 1.3.6-.2 1.1-.8 1.1-1.3s-.5-1.1-1.1-1.3c-.6-.2-1.1.4-1.1 1.3zM148.5 534c-.4.6-.3 1.6.3 2.2.6.6 1.2.6 1.7-.2.4-.6.3-1.6-.3-2.2-.6-.6-1.2-.6-1.7.2zM161.6 536.7c-1.1 1.1-.6 2.3.9 2.3.8 0 1.5-.4 1.5-.9 0-1.3-1.6-2.2-2.4-1.4zM232.6 542.7c-1.1 1.1-.6 2.3.9 2.3.8 0 1.5-.4 1.5-.9 0-1.3-1.6-2.2-2.4-1.4zM215 546.5c0 .9.5 1.5 1.1 1.3.6-.2 1.1-.8 1.1-1.3s-.5-1.1-1.1-1.3c-.6-.2-1.1.4-1.1 1.3zM322 578.5c0 .8.7 1.5 1.5 1.5s1.5-.7 1.5-1.5-.7-1.5-1.5-1.5-1.5.7-1.5 1.5zM1218 583.4c0 .3 1.4 3 3 5.9 3.4 6 3.7 8.5 1.5 12.6-1.3 2.7-1.3 2.9 1 3.9 1.7.8 2.5 2 2.5 3.7 0 3.7 2.7 3.1 4-1 .6-1.9 2-4.1 3-4.8 1-.7 2.2-2.5 2.5-4 .6-2.3.4-2.7-1.4-2.7-1.1 0-2.5-.9-3.1-2-.9-1.6-1.5-1.8-3-1-1.6.8-2.1.4-3.9-3.4-1.9-3.9-6.1-8.9-6.1-7.2zM1089.2 587.1c.2.6.8 1 1.3 1s1.1-.4 1.3-1c.2-.6-.4-1.1-1.3-1.1s-1.5.5-1.3 1.1zM1128.2 606.1c.2.6.8 1 1.3 1s1.1-.4 1.3-1c.2-.6-.4-1.1-1.3-1.1s-1.5.5-1.3 1.1zM1115.7 606.6c-.8.8.1 2.4 1.4 2.4.5 0 .9-.7.9-1.5 0-1.5-1.2-2-2.3-.9zM1120.4 614.5c1.7 6.6 2.5 7.6 5.8 7.3 2.6-.2 3.3-.9 4.3-3.8 1.7-4.7.4-6-5.7-6-4.8 0-5 .1-4.4 2.5zM1216 614.2c-1.1 1.3-4.2 4.8-6.9 7.8-2.6 3-6.5 7.7-8.5 10.4l-3.8 5 4.9 1.2c6.7 1.8 8 1.1 9.7-4.7.9-2.8 2.7-6.4 4.1-8 1.4-1.7 2.5-3.5 2.5-4s1-2.3 2.2-3.9c1.7-2.4 1.9-3.2.8-4.5-1.7-2-2.7-1.9-5 .7zM338 618.5c0 1.7.5 2.5 1.3 2.2.6-.2 1.2-1.2 1.2-2.2 0-1-.6-2-1.2-2.3-.8-.2-1.3.6-1.3 2.3zM1201 643.4c0 .9.7 1.6 1.6 1.6.9 0 1.4-.5 1.2-1.2-.6-1.8-2.8-2.1-2.8-.4zM335.2 645.1c.2.6.8 1 1.3 1s1.1-.4 1.3-1c.2-.6-.4-1.1-1.3-1.1s-1.5.5-1.3 1.1zM848.5 649c-.9 1.5 1.4 5 3.3 5s4.2-1.8 4.2-3.3c0-.4-.4-.6-.9-.3-.4.3-1.7-.1-2.7-.9-2.3-1.7-3.1-1.8-3.9-.5zM335 652.5c0 .8.7 1.5 1.5 1.5s1.5-.7 1.5-1.5-.7-1.5-1.5-1.5-1.5.7-1.5 1.5zM1192.6 655.7c-1.1 1.1-.6 2.3.9 2.3.8 0 1.5-.4 1.5-.9 0-1.3-1.6-2.2-2.4-1.4zM335.6 658.7c-1.1 1.1-.6 2.3.9 2.3.8 0 1.5-.4 1.5-.9 0-1.3-1.6-2.2-2.4-1.4zM394.9 661.2c0 .2-.2 1-.4 1.8s-.6 2.2-1 3.1c-.6 1.7 1 3.6 1.8 2.2 1.2-2.1 1.8-7.3.8-7.3-.6 0-1.1.1-1.2.2zM387.7 662.6c-1.5 1.5-.7 4.5 1.1 4.2.9-.2 1.7-1.2 1.7-2.2 0-2-1.6-3.1-2.8-2zM339.6 668.9c-.3.4.3 1.6 1.4 2.6 1.1 1 2 2.4 2 3.2 0 .7.5 1.3 1.1 1.3 1 0 .4-5.2-.8-7.3-.6-1-3.1-.9-3.7.2zM864.7 670.6c-.8.8.1 2.4 1.4 2.4.5 0 .9-.7.9-1.5 0-1.5-1.2-2-2.3-.9zM356.8 674.2c-.2 2.8-.8 3.4-3 3.6-4 .5-3.4 2 1 2.7 2 .4 4.9 1.1 6.4 1.7 3.2 1.2 5.8.5 5.8-1.6 0-1.4-7.7-9.6-9.1-9.6-.4 0-.9 1.5-1.1 3.2zM470.3 678.5c3.1 2.8 3.6 2.9 5.7 1.5 1.3-.9 1.2-1.2-.4-2.5-1.1-.8-3.4-1.5-5-1.5l-3.1.1 2.8 2.4zM373.6 678.7c-1.1 1.1-.6 2.3.9 2.3.8 0 1.5-.4 1.5-.9 0-1.3-1.6-2.2-2.4-1.4zM355.5 685c-.4.7-.3 1.6.3 2.2 1.4 1.4 4.5.2 4-1.5-.6-1.6-3.4-2.1-4.3-.7z"/>
</svg>
