<svg xmlns="http://www.w3.org/2000/svg" viewBox="0 0 210 210" fill="#df2e8f" >
  <path d="M210 105c0 13.6-12.3 24.6-17.2 36.4-5.1 12.2-4.3 28.7-13.5 37.9s-25.7 8.5-37.9 13.5c-11.8 4.9-22.8 17.2-36.4 17.2-13.6 0-24.6-12.3-36.4-17.2-12.2-5.1-28.7-4.3-37.9-13.5s-8.5-25.7-13.5-37.9C12.3 129.6 0 118.6 0 105c0-13.6 12.3-24.6 17.2-36.4 5.1-12.2 4.3-28.7 13.5-37.9s25.7-8.5 37.9-13.5C80.4 12.3 91.4 0 105 0c13.6 0 24.6 12.3 36.4 17.2 12.2 5.1 28.7 4.3 37.9 13.5s8.5 25.7 13.5 37.9C197.7 80.4 210 91.4 210 105z"/>
</svg>
