<svg xmlns="http://www.w3.org/2000/svg" width="212.02" height="254.02" viewBox="0 0 212.02 254.02">
  <g style="isolation:isolate">
    <path d="M24.29 53.36c-1.28-4-4-5.93-7.36-7.47s-7.83-2.43-10.74.5-4.13 7-5.47 10.86-.77 4.91 1.46 6.7 4.06 1.64 4.38 2.42 1.63 4.34 4.44 3.86S25.44 57 24.29 53.36z" fill="#c4c1e8"/>
    <path d="M24.29 53.36a10.86 10.86 0 0 0-5.1-6.29c-.31 1.36-.86 5.17 1.78 7.84a3 3 0 0 0 3 .72 3.64 3.64 0 0 0 .32-2.27z" fill="#a2a1c6"/>
    <path d="M31.53 59.52a38.56 38.56 0 0 0-2.91-7A48.62 48.62 0 0 0 24.88 48c-.83-1.11-2.49-2.49-4.08-1.14s-.91 3.93-.49 5.46.34 1.8-1 2.7a33.55 33.55 0 0 0-8 8.6c-2 3.24-3.16 5.3-1.66 8.06s4.61 5.31 6.64 5.14 17.21-11.4 15.24-17.3z" fill="#c4c1e8"/>
    <path d="M62.33 79L34.15 59.23a3.52 3.52 0 0 0-2.91-.77c-1 .25-16.12 16.57-16.48 18.15s-.44 2.17.72 3.72 20.58 23.23 28.92 29.07 12.33 7.12 16.15 3.23S72.6 90.38 62.33 79z" fill="#e9e5ea"/>
    <path d="M64.5 90.75S62.78 103.51 50 113c4.77 2.59 7.71 2.57 10.56-.33S68.25 99.69 67.13 90zM131.19 16.67c-1.46-4-.47-7.14 1.22-10.42s4.69-6.72 8.79-6.2 7.56 3 11 5.22 3.62 3.41 3 6.19-2.2 3.78-2 4.6 1.39 4.43-1.11 5.76-19.58-1.57-20.9-5.15z" fill="#c4c1e8"/>
    <path d="M131.19 16.67a10.86 10.86 0 0 1 .16-8.1c1.08.88 3.85 3.55 3.41 7.28a3 3 0 0 1-1.93 2.42 3.65 3.65 0 0 1-1.64-1.6z" fill="#a2a1c6"/>
    <path d="M129.26 26a38.8 38.8 0 0 1-2-7.28 49 49 0 0 1 .13-5.93c0-1.39.44-3.49 2.52-3.41s3.13 2.54 3.74 4 .84 1.63 2.41 1.54a33.57 33.57 0 0 1 11.61 1.87c3.58 1.31 5.75 2.24 6.25 5.34s-.37 7-2.09 8.13-20.5 1.6-22.57-4.26z" fill="#c4c1e8"/>
    <path d="M116.92 60.28s9.77-31.83 10.08-32.92a3.53 3.53 0 0 1 1.82-2.4c1-.44 22.89 3.18 24.15 4.21a3.47 3.47 0 0 1 1.72 3.38c0 1.94-2 31-5 40.71s-5.32 13.2-10.69 12.47-23.21-10.17-22.08-25.45z" fill="#e9e5ea"/>
    <path d="M122.41 70.88s9.19 9 25.08 8.63c-2.17 5-4.51 6.76-8.54 6.22-3.86-.52-14-5.49-19.11-13.86z" fill="#c4c1e8"/>
    <path d="M77.65 174s1 38.5 9.77 58.88c0 0 5.52 2.7 15.27 2.7s12.65-2.11 14.49-5.67 3.82-45.39 3.53-54.91c-.27-8.68-31.49-17.18-43.06-1z" fill="#e9e5ea"/>
    <path d="M88.43 230.87c-1.66.5-17 10.52-16.66 13.24s3.9 6.5 15.55 8.77 23.7 1 26-2.33 2.29-15.73.31-17.55-12.63-5.92-25.2-2.13z" fill="#e9e5ea"/>
    <path d="M113.32 248.22c-5.6-6.91-29.79-6.55-34.94-5.87-3.56.47-5.27 1.08-5.93 1.91.56 2.59 4.2 6 15 8.12 11.25 2.2 22.89.92 25.1-2.25a6.74 6.74 0 0 0 .77-1.91z" fill="#c4c1e8"/>
    <path d="M163.73 144.51s22.87 31 28.43 52.48c0 0-2.7 5.52-10.4 11.51s-11.28 6.1-14.92 4.42-30.92-33.52-36.52-41.21c-5.11-7.03 14.32-32.91 33.41-27.2z" fill="#e9e5ea"/>
    <path d="M190.12 196c1.61-.62 19.86-2.11 21.28.22s.91 7.52-6.88 16.46-18.13 15.32-21.95 14.09-11.47-11-11-13.66 6.28-12.4 18.55-17.11z" fill="#e9e5ea"/>
    <path d="M181.12 225c.18-8.89 19.49-23.46 24-26.09 3.09-1.81 4.83-2.38 5.85-2.14 1.15 2.39.38 7.33-6.82 15.59-7.53 8.64-17.5 14.78-21.19 13.63a6.72 6.72 0 0 1-1.84-.99z" fill="#c4c1e8"/>
    <path d="M157.68 133.39l-41.22 14.14-41.21 14.14s-1.94 3.17-.85 6.35l2.08 6.07c.35 1 1.37 2.46 4.64 1.65s12.88-3.27 22-1.38 12.27 2.89 14.44 4 5.11.44 5.7-2.48 1.23-5 1.23-5 1.79 1.27 4.05 3.21 5 .68 6-1.54 2.89-5 8.92-12 15.12-11 18.2-12.41 3-3.12 2.65-4.15l-2.08-6.08c-1.07-3.21-4.55-4.52-4.55-4.52zM130.42 78.34C124 74.69 121 68.37 119.05 64s-2.69-3.73-3.3-3.51l-1.59.55-24.5 8.4-24.49 8.36-1.59.55c-.61.21-1.64.14-.45 4.8s2.67 11.51-.13 18.33-5.11 6.92-5 10.44l.9 2.62 41.4-14.2 41.4-14.2-.9-2.62c-2.1-2.85-3.97-1.52-10.38-5.18z" fill="#e9e5ea"/>
    <path d="M115.58 57.26L88.66 66.5l-26.91 9.23a2.21 2.21 0 0 0-1.35 3.07l3 8.88c.48 1.4 10.52 9.66 33.14 1.9s25.48-20.44 25-21.84l-3-8.88a2.22 2.22 0 0 0-2.96-1.6z" fill="#e9e5ea"/>
    <path d="M115.58 57.26L88.66 66.5l-26.91 9.23a2.24 2.24 0 0 0-1.51 1.71 36.3 36.3 0 0 0 57.58-19.76 2.25 2.25 0 0 0-2.24-.42z" fill="#e9e5ea"/>
    <g>
      <path d="M116.78 38.83C123.15 57.42 112 74 93.43 80.38s-37.56.13-43.94-18.45a35.57 35.57 0 0 1 67.29-23.09z" fill="#e9e5ea"/>
      <ellipse cx="83.13" cy="50.38" rx="33.46" ry="18.41" transform="rotate(-18.94 83.131 50.376)" fill="#2e233f"/>
      <g style="mix-blend-mode:overlay" opacity=".3" fill="#fff">
        <path d="M74 70.82L84.09 31a59.7 59.7 0 0 0-6.93 2 58.25 58.25 0 0 0-11 5.08l-7.68 30.29C62.54 70.3 68 71.16 74 70.82zM97.13 29.92L87.4 68.35l1.71-.55a59.19 59.19 0 0 0 9.37-4.14l8.05-31.81a30.2 30.2 0 0 0-9.4-1.93z"/>
      </g>
    </g>
    <path d="M147.8 95.75c1 3.05-.34 6-3.09 6.69a431.15 431.15 0 0 0-78.22 26.84c-2.57 1.17-5.5-.33-6.54-3.38l-3.26-9.51c-1-3.05.18-6.5 2.75-7.67a431.36 431.36 0 0 1 78.22-26.84c2.75-.66 5.83 1.31 6.88 4.36z" fill="#e9e5ea"/>
    <path d="M153.87 113.43c1 3.05-.34 6-3.09 6.69A431.28 431.28 0 0 0 72.56 147c-2.58 1.17-5.5-.33-6.54-3.38l-3.26-9.51c-1-3 .18-6.5 2.75-7.67a431.29 431.29 0 0 1 78.22-26.84c2.75-.66 5.83 1.31 6.88 4.36z" fill="#e9e5ea"/>
    <path d="M159.93 131.11c1 3.05-.34 6-3.09 6.68a431.34 431.34 0 0 0-78.22 26.84c-2.58 1.17-5.5-.33-6.54-3.38l-3.26-9.51c-1-3.05.18-6.5 2.75-7.67a431.37 431.37 0 0 1 78.22-26.84c2.75-.66 5.84 1.31 6.88 4.36z" fill="#e9e5ea"/>
    <path d="M123.44 116.41a2.37 2.37 0 0 1-1.47 3l-27.1 9.3a2.37 2.37 0 0 1-3-1.47L85.25 108a2.37 2.37 0 0 1 1.47-3l27.1-9.3a2.37 2.37 0 0 1 3 1.47z" fill="#342e3d"/>
    <g>
      <path d="M102.19 116.83l-2.35-1.15 1.15-2.35a1.93 1.93 0 0 0-3.46-1.69L96.37 114 94 112.84a1.93 1.93 0 1 0-1.69 3.46l2.35 1.15-1.15 2.35a1.93 1.93 0 0 0 3.49 1.7l1.15-2.35 2.35 1.15a1.93 1.93 0 0 0 1.69-3.46z" fill="#ff417b"/>
      <path d="M117.55 111.56l-2.35-1.15 1.15-2.35a1.93 1.93 0 1 0-3.46-1.69l-1.15 2.35-2.35-1.15a1.93 1.93 0 0 0-1.7 3.46l2.35 1.15-1.15 2.35a1.93 1.93 0 1 0 3.46 1.69l1.15-2.35 2.35 1.15a1.93 1.93 0 1 0 1.69-3.46z" fill="#9889ef"/>
    </g>
    <g fill="#ff417b">
      <path d="M92.83 107a.86.86 0 0 1-.53 1.09l-2.59.89a.85.85 0 0 1-1.09-.53.86.86 0 0 1 .53-1.09l2.59-.89a.86.86 0 0 1 1.09.53zM100 104.52a.86.86 0 0 1-.53 1.09l-2.59.89a.86.86 0 0 1-1.09-.53.86.86 0 0 1 .53-1.09l2.58-.89a.86.86 0 0 1 1.09.53zM107.24 102.05a.85.85 0 0 1-.53 1.09l-2.59.89a.86.86 0 0 1-1.09-.53.86.86 0 0 1 .53-1.09l2.59-.89a.86.86 0 0 1 1.09.53zM114.45 99.58a.86.86 0 0 1-.53 1.09l-2.59.89a.86.86 0 0 1-1.09-.53.86.86 0 0 1 .53-1.09l2.59-.89a.86.86 0 0 1 1.09.53z"/>
    </g>
    <path d="M163 138.33a1.13 1.13 0 0 1-.7 1.43L75.06 169.7a1.12 1.12 0 0 1-1.43-.7l-2.83-8.23a1.13 1.13 0 0 1 .7-1.43l87.25-29.94a1.13 1.13 0 0 1 1.43.7z" fill="#9889ef"/>
  </g>
</svg>
