<svg xmlns="http://www.w3.org/2000/svg" xmlns:xlink="http://www.w3.org/1999/xlink" viewBox="0 0 1156.5 991">
  <defs>
    <linearGradient id="linear-gradient" x1="568.6" y1="991" x2="568.6" y2="570" gradientUnits="userSpaceOnUse">
      <stop offset="0" stop-color="#322444" stop-opacity="0.7"/>
      <stop offset="1" stop-color="#322444" stop-opacity="0"/>
    </linearGradient>
    <linearGradient id="linear-gradient-2" x1="983.8" x2="983.8" y2="570" xlink:href="#linear-gradient"/>
    <linearGradient id="linear-gradient-3" x1="162.58" x2="162.58" y2="570" xlink:href="#linear-gradient"/>
    <linearGradient id="linear-gradient-4" x1="541.8" x2="541.8" y2="570" xlink:href="#linear-gradient"/>
    <linearGradient id="linear-gradient-5" x1="578" x2="578" y2="570" xlink:href="#linear-gradient"/>
    <linearGradient id="linear-gradient-6" x1="323.29" y1="58.71" x2="755.52" y2="807.35" gradientUnits="userSpaceOnUse">
      <stop offset="0" stop-color="#dfd4ff" stop-opacity="0.8"/>
      <stop offset="1" stop-color="#6b55ff" stop-opacity="0.6"/>
    </linearGradient>

	<filter id="glow" x="-200%" width="500%" y="-200%" height="500%">
      <feGaussianBlur stdDeviation="25" result="coloredBlur"/>
      <feMerge>
        <feMergeNode in="coloredBlur"/>
        <feMergeNode in="SourceGraphic"/>
      </feMerge>
    </filter>
  </defs>
  <title>island</title>
  <g id="behind-house">
    <g id="tree">
      <rect id="tree-trunk" x="446.66" y="166.43" width="16.09" height="231.21" transform="translate(909.42 564.07) rotate(-180)" style="fill: #773e2a"/>
      <path d="M508,123.08a75.4,75.4,0,1,0,0,106.63A75.42,75.42,0,0,0,508,123.08Z" style="fill: #818410"/>
      <g id="tree-arm-right">
        <rect x="374.57" y="319.4" width="50.26" height="6.03" transform="translate(722.12 -77.28) rotate(90)" style="fill: #773e2a"/>
        <rect x="396.68" y="341.52" width="50.27" height="6.03" style="fill: #773e2a"/>
        <path d="M428.16,260.68a40.22,40.22,0,1,0,0,56.87A40.23,40.23,0,0,0,428.16,260.68Z" style="fill: #8a9311"/>
      </g>
      <g id="tree-arm-left">
        <rect x="484.17" y="265.12" width="50.26" height="6.03" transform="translate(777.43 -241.17) rotate(90)" style="fill: #773e2a"/>
        <rect x="462.04" y="287.23" width="50.27" height="6.03" transform="translate(974.36 580.5) rotate(-180)" style="fill: #773e2a"/>
        <path d="M537.72,199.36a40.22,40.22,0,1,0,0,56.87A40.23,40.23,0,0,0,537.72,199.36Z" style="fill: #8a9311"/>
      </g>
    </g>
    <g id="bush">
      <path d="M404.44,529.06h0A48,48,0,0,0,322.5,563h96A47.85,47.85,0,0,0,404.44,529.06Z" style="fill: #7c7c11"/>
      <path d="M347.75,538.25h0A35,35,0,0,0,288,563h70A34.89,34.89,0,0,0,347.75,538.25Z" style="fill: #8a9311"/>
    </g>
    <path d="M919,526.23h0A52,52,0,0,0,830.25,563h104A51.84,51.84,0,0,0,919,526.23Z" style="fill: #6b6411"/>
  </g>
  <g id="inside-house">
    <polygon id="window-color" points="481.56 358 778.44 358 867.5 454 867.5 562 689.38 562 392.5 562 392.5 454 481.56 358" style="fill: #1a1628"/>
  </g>
  <g id="house">
    <g id="house-2" data-name="house">
      <path d="M780.5,351l-90,96h-300V563h480V447ZM476.9,528h-48V480h48Zm171.6,0h-48V480h48Zm186,0h-96V480h96Z" style="fill: #bbbfd5"/>
      <path id="house-side" d="M690.5,447V563h180V447l-90-96Zm48,33h96v48h-96Z" style="fill: #9fa2b5"/>
      <polygon points="743.5 351 743.5 327 727.5 327 703.5 327 703.5 351 480.5 351 390.5 447 570.5 447 690.5 447 780.5 351 743.5 351" style="fill: #483b69"/>
      <g id="chimney">
        <rect id="chimney-back" x="727.5" y="327" width="16" height="24" transform="translate(1471 678) rotate(-180)" style="fill: #322a4c"/>
      </g>
    </g>
    <g id="entrance">
      <g id="steps">
        <rect id="step-back" x="516.5" y="553.4" width="42" height="9.6" transform="translate(1075 1116.4) rotate(-180)" style="fill: #592b11"/>
        <rect id="step-front" x="511.7" y="558.2" width="42" height="4.8" transform="translate(1065.4 1121.2) rotate(-180)" style="fill: #874226"/>
      </g>
      <g id="door">
        <rect id="door-2" data-name="door" x="516.5" y="480.2" width="42" height="72" transform="translate(1075 1032.4) rotate(-180)" style="fill: #334d77"/>
        <rect id="handle" x="544.9" y="518.8" width="8" height="2" transform="translate(1097.8 1039.6) rotate(-180)" style="fill: #bbbfd5"/>
      </g>
    </g>
  </g>
  <g id="flora">
    <g id="tree-2" data-name="tree">
      <rect id="tree-trunk-2" data-name="tree-trunk" x="899.79" y="333.42" width="16.07" height="229.58" transform="translate(1815.64 896.42) rotate(-180)" style="fill: #773e2a"/>
      <path d="M961.08,290.93a75.65,75.65,0,0,0-106.52,0,74.54,74.54,0,0,0,0,105.87,75.65,75.65,0,0,0,106.52,0A74.54,74.54,0,0,0,961.08,290.93Z" style="fill: #818410"/>
      <g id="tree-arm-left-2" data-name="tree-arm-left">
        <rect x="937.39" y="434.93" width="49.91" height="6.03" transform="translate(1400.29 -524.4) rotate(90)" style="fill: #773e2a"/>
        <rect x="915.15" y="456.91" width="50.21" height="5.99" transform="translate(1880.51 919.8) rotate(-180)" style="fill: #773e2a"/>
        <path d="M990.73,369.66a40.35,40.35,0,0,0-56.81,0,39.75,39.75,0,0,0,0,56.46,40.35,40.35,0,0,0,56.81,0A39.75,39.75,0,0,0,990.73,369.66Z" style="fill: #8a9311"/>
      </g>
    </g>
    <path d="M899.23,540h0a32.5,32.5,0,0,0-55.48,23h65A32.4,32.4,0,0,0,899.23,540Z" style="fill: #7c7c11"/>
    <path d="M741.13,540.37h0A32,32,0,0,0,686.5,563h64A31.9,31.9,0,0,0,741.13,540.37Z" style="fill: #7c7c11"/>
    <path d="M692.64,548.86h0A20,20,0,0,0,658.5,563h40A19.94,19.94,0,0,0,692.64,548.86Z" style="fill: #8a9311"/>
    <g id="flower">
      <rect id="stem" x="707.5" y="543" width="2" height="20" transform="translate(1417 1106) rotate(-180)" style="fill: #90a80e"/>
      <path id="flower-2" data-name="flower" d="M712.5,537v4a4,4,0,0,1-8,0v-4Z" style="fill: #9b2153"/>
    </g>
    <g id="flower-3" data-name="flower">
      <rect id="stem-2" data-name="stem" x="403.5" y="543" width="2" height="20" transform="translate(809 1106) rotate(-180)" style="fill: #90a80e"/>
      <path id="flower-4" data-name="flower" d="M408.5,537v4a4,4,0,0,1-8,0v-4Z" style="fill: #9b2153"/>
    </g>
    <g id="flower-5" data-name="flower">
      <rect id="stem-3" data-name="stem" x="391.5" y="550" width="2" height="13" transform="translate(785 1113) rotate(-180)" style="fill: #90a80e"/>
      <path id="flower-6" data-name="flower" d="M396.5,543v4a4,4,0,0,1-8,0v-4Z" style="fill: #9b2153"/>
    </g>
    <g id="flower-7" data-name="flower">
      <rect id="stem-4" data-name="stem" x="110.34" y="549.86" width="2" height="13.14" transform="translate(222.69 1112.86) rotate(-180)" style="fill: #90a80e"/>
      <path id="flower-8" data-name="flower" d="M115.34,542.86v4a4,4,0,0,1-8,0v-4Z" style="fill: #9b2153"/>
    </g>
  </g>
  <g id="stones">
    <path d="M389,554.51A12,12,0,0,0,368.5,563h24A12,12,0,0,0,389,554.51Z" style="fill: #777787"/>
    <path d="M400.74,558.76A6,6,0,0,0,390.5,563h12A6,6,0,0,0,400.74,558.76Z" style="fill: #777787"/>
    <path d="M846,554.51A12,12,0,0,0,825.5,563h24A12,12,0,0,0,846,554.51Z" style="fill: #777787"/>
  </g>
  <g id="island-rocks">
    <g id="rocks-back">
      <path id="rock" d="M141.26,587.39,518.11,964.24a23.24,23.24,0,0,0,32.77,0L927.74,587.39A23.1,23.1,0,0,0,934.5,571h-800A23.1,23.1,0,0,0,141.26,587.39Z" style="fill: #2a111a"/>
      <path id="rock-2" data-name="rock" d="M255.6,588.2,651.3,983.9a24.4,24.4,0,0,0,34.41,0l395.7-395.7a24.26,24.26,0,0,0,7.1-17.2h-840A24.26,24.26,0,0,0,255.6,588.2Z" style="fill: #36121f"/>
      <path id="rock-3" data-name="rock" d="M63.74,583.7,355.8,875.76a18,18,0,0,0,25.4,0L673.26,583.7A17.9,17.9,0,0,0,678.5,571H58.5A17.9,17.9,0,0,0,63.74,583.7Z" style="fill: #36121f"/>
    </g>
    <path id="gradient-back" d="M826.09,801a13.6,13.6,0,0,1-19.17,0l-78.26-78.26L556,895.42a19.17,19.17,0,0,1-27,0l-174-174-46.24,46.24a11.62,11.62,0,0,1-16.39,0l-40.93-40.93L229.06,749,355.8,875.76a18,18,0,0,0,25.4,0l24.22-24.22,112.7,112.7a23.24,23.24,0,0,0,32.77,0l40.37-40.37,60,60a24.4,24.4,0,0,0,34.41,0L908.15,761.46l-21.24-21.24Z" style="fill: url(#linear-gradient)"/>
    <g id="crystal2" style="opacity: 0.8" filter="url(#glow)">
      <path d="M751.51,829.64l-14.35-21.52a2,2,0,0,0-1.56-.86v0h-.2a2,2,0,0,0-1.56.88l-14.35,21.52a2,2,0,0,0,0,2.22l3.52,5.29,10.82,16.23a2,2,0,0,0,3.33,0l14.35-21.52A2,2,0,0,0,751.51,829.64Z" style="fill: #61e1ff"/>
      <path d="M735.6,807.24,748,837.15l-10.82,16.23a2,2,0,0,1-1.66.89v-47Z" style="fill: #71ebff"/>
      <path d="M733.84,808.12l-14.35,21.52a2,2,0,0,0,0,2.22l3.52,5.29,12.39-29.9A2,2,0,0,0,733.84,808.12Z" style="fill: #b8f5ff"/>
      <path d="M735.4,807.24,723,837.15l10.82,16.23a2,2,0,0,0,1.66.89v-47Z" style="fill: #92f0ff"/>
      <path d="M745.44,831l2.55,6.15-10.82,16.23,14.35-21.52a2,2,0,0,0,.3-.86Z" style="fill: #57cadd"/>
      <path d="M745.44,831H735.5v23.27a2,2,0,0,0,1.66-.89L748,837.15Z" style="fill: #69d6e2"/>
      <path d="M719.19,831a2,2,0,0,0,.3.86l3.52,5.29,2.55-6.15Z" style="fill: #a8e0e5"/>
      <path d="M725.56,831,723,837.15l10.82,16.23a2,2,0,0,0,1.66.89V831Z" style="fill: #86d9e2"/>
    </g>
    <g id="rocks-mid">
      <path d="M922.5,571h-200a11.55,11.55,0,0,0,3.38,8.19L914.31,767.62a11.62,11.62,0,0,0,16.39,0l188.43-188.43a11.55,11.55,0,0,0,3.38-8.19Z" style="fill: #4e152a"/>
      <path d="M542.5,571h-330a19.06,19.06,0,0,0,5.58,13.52L529,895.42a19.17,19.17,0,0,0,27,0L866.92,584.52A19.06,19.06,0,0,0,872.5,571Z" style="fill: #4e152a"/>
      <path d="M212.5,571H22.5a11,11,0,0,0,3.21,7.78l179,179a11,11,0,0,0,15.57,0l179-179A11,11,0,0,0,402.5,571Z" style="fill: #4e152a"/>
    </g>
    <g id="gradient-mid">
      <path d="M1070.26,607.21l-44.41,44.41a4.76,4.76,0,0,1-6.72,0L997.33,629.8,886.91,740.22l21.24,21.24h0l6.16,6.16a11.62,11.62,0,0,0,16.39,0l150-150Z" style="fill: url(#linear-gradient-2)"/>
      <path d="M134.82,610.13,115,630a3.49,3.49,0,0,1-4.92,0L90.41,610.35l-16.62,16.5h0L204.72,757.79a11,11,0,0,0,15.57,0l8.77-8.77h0l22.32-22.32Z" style="fill: url(#linear-gradient-3)"/>
      <path d="M542.5,901A19.06,19.06,0,0,0,556,895.42L728.66,722.79,694.85,689l-59,59a10.46,10.46,0,0,1-14.75,0l-114-114-9.65,9.78a4.2,4.2,0,0,1-6,0L478,630l-29.76,29.43a5.33,5.33,0,0,1-7.46,0l-12-11.9-73.8,73.8,174,174A19.06,19.06,0,0,0,542.5,901Z" style="fill: url(#linear-gradient-4)"/>
    </g>
    <g id="crystal1" style="opacity: 0.8" filter="url(#glow)">
      <path d="M384.51,763.64l-14.35-21.52a2,2,0,0,0-1.56-.86v0h-.2a2,2,0,0,0-1.56.88l-14.35,21.52a2,2,0,0,0,0,2.22l3.52,5.29,10.82,16.23a2,2,0,0,0,3.33,0l14.35-21.52A2,2,0,0,0,384.51,763.64Z" style="fill: #61e1ff"/>
      <path d="M368.6,741.24,381,771.15l-10.82,16.23a2,2,0,0,1-1.66.89v-47Z" style="fill: #71ebff"/>
      <path d="M366.84,742.12l-14.35,21.52a2,2,0,0,0,0,2.22l3.52,5.29,12.39-29.9A2,2,0,0,0,366.84,742.12Z" style="fill: #b8f5ff"/>
      <path d="M368.4,741.24,356,771.15l10.82,16.23a2,2,0,0,0,1.66.89v-47Z" style="fill: #92f0ff"/>
      <path d="M378.44,765l2.55,6.15-10.82,16.23,14.35-21.52a2,2,0,0,0,.3-.86Z" style="fill: #57cadd"/>
      <path d="M378.44,765H368.5v23.27a2,2,0,0,0,1.66-.89L381,771.15Z" style="fill: #69d6e2"/>
      <path d="M352.19,765a2,2,0,0,0,.3.86l3.52,5.29,2.55-6.15Z" style="fill: #a8e0e5"/>
      <path d="M358.56,765,356,771.15l10.82,16.23a2,2,0,0,0,1.66.89V765Z" style="fill: #86d9e2"/>
    </g>
    <g id="rocks-front">
      <path d="M816.5,571h-234a13.51,13.51,0,0,0,4,9.59L806.91,801a13.6,13.6,0,0,0,19.17,0l220.46-220.46a13.51,13.51,0,0,0,4-9.59Z" style="fill: #601b34"/>
      <path d="M628.5,571h-180a10.4,10.4,0,0,0,3,7.37L621.13,748a10.46,10.46,0,0,0,14.75,0L805.46,578.37a10.4,10.4,0,0,0,3-7.37Z" style="fill: #601b34"/>
      <path d="M300.5,571h-200a11.55,11.55,0,0,0,3.38,8.19L292.31,767.62a11.62,11.62,0,0,0,16.39,0L497.12,579.19A11.55,11.55,0,0,0,500.5,571Z" style="fill: #601b34"/>
    </g>
    <g id="rocks-edge">
      <path d="M1036.51,573.46,1093,630a3.49,3.49,0,0,0,4.92,0l56.53-56.53a3.47,3.47,0,0,0,1-2.46h-120A3.47,3.47,0,0,0,1036.51,573.46Z" style="fill: #772543"/>
      <path d="M941.89,574.36l77.26,77.26a4.76,4.76,0,0,0,6.72,0l77.26-77.26a4.74,4.74,0,0,0,1.39-3.36h-164A4.74,4.74,0,0,0,941.89,574.36Z" style="fill: #772543"/>
      <path d="M355,574.69l85.73,84.79a5.33,5.33,0,0,0,7.46,0L534,574.69A5.17,5.17,0,0,0,535.5,571h-182A5.17,5.17,0,0,0,355,574.69Z" style="fill: #772543"/>
      <path d="M422.73,574l68.78,69.72a4.2,4.2,0,0,0,6,0L566.27,574a4.3,4.3,0,0,0,1.23-3h-146A4.3,4.3,0,0,0,422.73,574Z" style="fill: #772543"/>
      <path d="M660.36,575.51,764,679.14a6.39,6.39,0,0,0,9,0L876.64,575.51A6.35,6.35,0,0,0,878.5,571h-220A6.35,6.35,0,0,0,660.36,575.51Z" style="fill: #772543"/>
      <path d="M171.49,573.46,115,630a3.49,3.49,0,0,1-4.92,0L53.51,573.46a3.47,3.47,0,0,1-1-2.46h120A3.47,3.47,0,0,1,171.49,573.46Z" style="fill: #772543"/>
      <path d="M127.41,573.62l-60.74,60.3a3.77,3.77,0,0,1-5.28,0L3.26,575.57C2.54,574.85.5,572,.5,571h128A3.68,3.68,0,0,1,127.41,573.62Z" style="fill: #772543"/>
      <path d="M606.32,574,652,619.68a2.82,2.82,0,0,0,4,0L701.68,574a2.8,2.8,0,0,0,.82-2h-97A2.8,2.8,0,0,0,606.32,574Z" style="fill: #772543"/>
      <path d="M292.32,573,338,618.68a2.82,2.82,0,0,0,4,0L387.68,573a2.8,2.8,0,0,0,.82-2h-97A2.8,2.8,0,0,0,292.32,573Z" style="fill: #772543"/>
      <path d="M146.26,572.84l42.4,42.4a2.61,2.61,0,0,0,3.69,0l42.4-42.4a2.6,2.6,0,0,0,.76-1.84h-90A2.6,2.6,0,0,0,146.26,572.84Z" style="fill: #772543"/>
      <path d="M201,572.19l27.32,27.32a1.68,1.68,0,0,0,2.38,0L258,572.19a1.67,1.67,0,0,0,.49-1.19h-58A1.67,1.67,0,0,0,201,572.19Z" style="fill: #772543"/>
      <path d="M590,572.19l27.32,27.32a1.68,1.68,0,0,0,2.38,0L647,572.19a1.67,1.67,0,0,0,.49-1.19h-58A1.67,1.67,0,0,0,590,572.19Z" style="fill: #772543"/>
      <path d="M848,572.19l27.32,27.32a1.68,1.68,0,0,0,2.38,0L905,572.19a1.67,1.67,0,0,0,.49-1.19h-58A1.67,1.67,0,0,0,848,572.19Z" style="fill: #772543"/>
      <path d="M224.51,573.46,281,630a3.49,3.49,0,0,0,4.92,0l56.53-56.53a3.47,3.47,0,0,0,1-2.46h-120A3.47,3.47,0,0,0,224.51,573.46Z" style="fill: #772543"/>
      <path d="M883.28,578.88l43.34,43.34a2.67,2.67,0,0,0,3.77,0l43.34-43.34a2.66,2.66,0,0,0,.78-1.88h-92A2.66,2.66,0,0,0,883.28,578.88Z" style="fill: #772543"/>
      <path d="M522.28,571.88l43.34,43.34a2.67,2.67,0,0,0,3.77,0l43.34-43.34a2.66,2.66,0,0,0,.78-1.88h-92A2.66,2.66,0,0,0,522.28,571.88Z" style="fill: #772543"/>
    </g>
    <path id="gradient-front" d="M1122.5,571H613.31a2.68,2.68,0,0,0,.19-1h-92a2.68,2.68,0,0,0,.19,1H.5c0,1,2,3.85,2.76,4.57l58.13,58.35a3.77,3.77,0,0,0,5.28,0l23.74-23.57L110,630a3.49,3.49,0,0,0,4.92,0l19.86-19.86L292.31,767.62a11.62,11.62,0,0,0,16.39,0l120-120,12,11.9a5.33,5.33,0,0,0,7.46,0L478,630l13.52,13.71a4.2,4.2,0,0,0,6,0l9.65-9.78,114,114a10.46,10.46,0,0,0,14.75,0l59-59L806.91,801a13.6,13.6,0,0,0,19.17,0L997.33,629.8l21.81,21.81a4.76,4.76,0,0,0,6.72,0l44.41-44.41,10.42,10.42h0L1093,630a3.49,3.49,0,0,0,4.92,0l56.53-56.53a3.46,3.46,0,0,0,1-2.46Z" style="fill: url(#linear-gradient-5)"/>
  </g>
  <g id="dome">
    <g style="opacity: 0.1">
      <path d="M1.5,577A576.65,576.65,0,0,1,1109.2,353.1,572.86,572.86,0,0,1,1154.5,577Z" style="fill: url(#linear-gradient-6)"/>
      <path d="M578,2a572.8,572.8,0,0,1,321.77,98.29,577.19,577.19,0,0,1,208.51,253.2A571.78,571.78,0,0,1,1153.5,576H2.5a572.78,572.78,0,0,1,98.28-320.27A577.19,577.19,0,0,1,354,47.22,571.9,571.9,0,0,1,578,2m0-2C259.06,0,.5,258.56.5,577.5c0,.17,0,.33,0,.5h1155c0-.17,0-.33,0-.5C1155.5,258.56,896.94,0,578,0Z" style="fill: #fff"/>
    </g>
  </g>
  <g id="grass2">
    <rect y="562" width="1156.5" height="16" rx="8" ry="8" style="fill: #90a80e"/>
  </g>
</svg>
