<svg xmlns="http://www.w3.org/2000/svg" viewBox="0 0 1164 1036"><style>.st1{fill:#36121f}.st2{fill:#4e152a}.st3{fill:#521b2f}.st4{fill:#601b34}.st5{fill:#741a3b}.st6{fill:#772543}.st7{fill:#6e750d}.st8{fill:#90a80e}.st9{fill:#773e2a}.st10{fill:#8a9311}.st12{display:none}.st13{display:inline;fill:#5a5263}.st16{fill:#bf887f}.st20{display:inline;fill:#16131c}.st21,.st23,.st28{display:inline;fill:#282333}.st23,.st28{fill:#18182b}.st28{opacity:.11;fill:#fff}.st29{fill:#9fa2b5}.st30{fill:#bbbfd5}.st31{fill:#483b69}.st36{fill:#9b2153}.st37{fill:#606066}.st38{fill:#777787}.st39{fill:#4eb9cd}.st40{fill:#cbeff4}.st41{fill:#fff}</style><g id="Island_Rocks"><path d="M152.8 486.4l376.9 376.9c9 9 23.8 9 32.8 0l376.9-376.9c4.5-4.5 6.8-10.4 6.8-16.4H146c0 5.9 2.3 11.9 6.8 16.4z" fill="#2a111a"/><path class="st1" d="M267.1 487.2l395.7 395.7c9.5 9.5 24.9 9.5 34.4 0l395.7-395.7c4.7-4.7 7.1-11 7.1-17.2H260c0 6.2 2.4 12.5 7.1 17.2z"/><path class="st1" d="M75.2 482.7l292.1 292.1c7 7 18.4 7 25.4 0l292.1-292.1c3.5-3.5 5.2-8.1 5.2-12.7H70c0 4.6 1.7 9.2 5.2 12.7z"/><path class="st2" d="M734 470c0 3 1.1 5.9 3.4 8.2l188.4 188.4c2.3 2.3 5.2 3.4 8.2 3.4V470H734z"/><path class="st3" d="M934 470v200c3 0 5.9-1.1 8.2-3.4l188.4-188.4c2.3-2.3 3.4-5.2 3.4-8.2H934z"/><path class="st2" d="M224 470c0 4.9 1.9 9.8 5.6 13.5l310.9 310.9c3.7 3.7 8.6 5.6 13.5 5.6V470H224z"/><path class="st3" d="M554 470v330c4.9 0 9.8-1.9 13.5-5.6l310.9-310.9c3.7-3.7 5.6-8.6 5.6-13.5H554z"/><path class="st2" d="M34 470c0 2.8 1.1 5.6 3.2 7.8l179 179c2.1 2.1 5 3.2 7.8 3.2V470H34z"/><path class="st3" d="M224 470v190c2.8 0 5.6-1.1 7.8-3.2l179-179c2.1-2.1 3.2-5 3.2-7.8H224z"/><path class="st4" d="M594 470c0 3.5 1.3 6.9 4 9.6L818.4 700c2.6 2.6 6.1 4 9.6 4V470H594z"/><path class="st5" d="M828 470v234c3.5 0 6.9-1.3 9.6-4L1058 479.6c2.6-2.6 4-6.1 4-9.6H828z"/><path class="st4" d="M460 470c0 2.7 1 5.3 3 7.4L632.6 647c2 2 4.7 3 7.4 3V470H460z"/><path class="st5" d="M640 470v180c2.7 0 5.3-1 7.4-3L817 477.4c2-2 3-4.7 3-7.4H640z"/><path class="st4" d="M112 470c0 3 1.1 5.9 3.4 8.2l188.4 188.4c2.3 2.3 5.2 3.4 8.2 3.4V470H112z"/><path class="st5" d="M312 470v200c3 0 5.9-1.1 8.2-3.4l188.4-188.4c2.3-2.3 3.4-5.2 3.4-8.2H312z"/><path class="st6" d="M13.7 474.1l94.2 94.2c2.3 2.3 5.9 2.3 8.2 0l94.2-94.2c1.1-1.1 1.7-2.6 1.7-4.1H12c0 1.5.6 3 1.7 4.1zM366.5 473.7l85.7 84.8c2.1 2 5.4 2 7.5 0l85.7-84.8c1-1 1.5-2.4 1.5-3.7H365c0 1.3.5 2.7 1.5 3.7z"/><path class="st6" d="M434.2 473l68.8 69.7c1.6 1.7 4.3 1.7 6 0l68.8-69.7c.8-.8 1.2-1.9 1.2-3H433c0 1.1.4 2.2 1.2 3zM671.9 474.5l103.6 103.6c2.5 2.5 6.5 2.5 9 0l103.6-103.6c1.2-1.2 1.9-2.9 1.9-4.5H670c0 1.6.6 3.3 1.9 4.5zM987 472.5l56.5 56.5c1.4 1.4 3.6 1.4 4.9 0l56.5-56.5c.7-.7 1-1.6 1-2.5H986c0 .9.3 1.8 1 2.5z"/><path class="st6" d="M1031.1 472.6l60.7 60.3c1.5 1.4 3.8 1.4 5.3 0l58.1-58.3c.7-.7 2.8-3.6 2.8-4.6h-128c0 1 .4 1.9 1.1 2.6z"/></g><g id="Grass"><path class="st7" d="M1149.5 480.5h-7.5V475H28v6h-8l15.5 14.5 7.1-7.5h.8l9.1 9.4 9.1-9.4h7.8l2.6 2.7 2.6-2.7h4.8l8.6 8.9 8.4-8.9h.2l10.4 11 5.5-5.7 1.5 1.6 6.6-6.9h1.8l4.6 4.8 4.6-4.8h5.8l7.1 7.4 8.7-7.4h11.7l9.6 10.5 6-6.2 3.5 3.6 7.6-7.9h.8l6.1 6.3 6.1-6.3h1.8l10.6 11 6-6.2 3 3.1 4.5-4.7 7.5 7.8 10.6-11h12.1l8 8.2 4.3-4.4 6.5 6.7 10.1-10.5h6.8l5.6 5.8 5.6-5.8h1.8l9.6 10 9.6-10h7.8l8.6 8.9 8.6-8.9h7.8l4.1 4.3 4.1-4.3h4.8l5.6 5.8 3-3.1 8 8.3 10.6-11h.8l9.1 9.4 9.1-9.4h7.8l2.6 2.7 2.6-2.7h4.8l8.6 8.9 8.4-8.9h1.2l10.4 11 5.5-5.7 1.5 1.6 6.6-6.9h1.8l4.6 4.8 4.6-4.8h5.8l7.1 7.4 8.7-7.4h11.7l9.6 10.5 6-6.2 3.5 3.6 7.6-7.9h.8l6.1 6.3 6.1-6.3h1.8l10.6 11 6-6.2 3 3.1 4.5-4.7 7.5 7.8 10.6-11h12.1l8 8.2 4.3-4.4 6.5 6.7 10.1-10.5h6.8l5.6 5.8 5.6-5.8h1.8l9.6 10 9.6-10h7.8l8.6 8.9 8.6-8.9h7.8l4.1 4.3 4.1-4.3h4.8l5.6 5.8 3-3.1 8 8.3 10.6-11h.8l9.1 9.4 9.1-9.4h7.8l2.6 2.7 2.6-2.7h4.8l8.6 8.9 8.4-8.9h3.2l8.4 8.9 8.6-8.9h4.8l2.6 2.7 2.6-2.7h7.8l9.1 9.4 9.1-9.4h.8l10.6 11 8-8.3 3 3.1 5.6-5.8h4.8l4.1 4.3 4.1-4.3h7.8l8.6 8.9 8.6-8.9h7.8l9.6 10 9.6-10h1.8l5.6 5.8 5.6-5.8h6.8l10.1 10.5 6.5-6.7 4.3 4.4 8-8.2h12.1l10.6 11 7.5-7.8 4.5 4.7 3-3.1 6 6.2 10.6-11h1.8l6.1 6.3 6.1-6.3h.8l7.6 7.9 3.5-3.6 6 6.2 9.6-10.5h11.7l8.7 7.4 7.1-7.4h5.4v-.5l.2.3z"/><path class="st8" d="M1164 470c0-4.4-3.6-8-8-8H8c-4.4 0-8 3.6-8 8 0 4.3 3.4 7.8 7.6 8l11.3 12 5.5-5.7 1.5 1.6 3-3.1 3.6 3.7 4.5-4.6 1.9 2 5.6-5.8h3.8l8.1 8.4 6.6-5.7 5 5.2 7.5-7.9h.2l10.5 11.5 6-6.2 3.5 3.6 8-8.3 6.5 6.7 7-7.2 11.5 11.9 6-6.2 3 3.1 4.5-4.7 7.5 7.8 3.7-3.9 1.3 1.4 6-6.2 3.5 3.6 6.7-6.9h.5l8.9 9.2 4.3-4.5 6.5 6.7 3.8-3.9 2.4 2.4 6-6.2 3 3.1 3.7-3.8 3.6 3.7.8-.9 3.9 4 5.7-5.8 6.6 6.8 10.6-11h.9l7 7.2 2.4-2.5 5 5.2 1.9-2 1.5 1.5 9.2-9.5h2.8l5.1 5.3 2.9-3 2.5 2.6 3.5-3.7 5.5 5.7 3-3.1 5 5.2 2.9 3.1 11-11.4 9.5 9.8 2.5-2.6.1.1 7.7-7.9h5.6l3.6 3.7 2-2.1 1.6 1.7 2.9-3 9.3 9.7 6.5-6.9 6.7 7 3.4-3.6 3.3 3.5 7.6-7.9 6.2 6.4 8.2-8.4h3.4l10.1 10.4 8.2-8.5 5.8 6 1.3-1.4 5.2 5.4 7.8-8.1 5.7 6.1 5.5-5.7 1.5 1.6 2.7-2.8 2.2 2.3 4.7-4.9 3.3 3.4 3.2-3.3 9.1 9.5 4.3-4.4.9.9 7.5-6.4h2.7l10.6 11 5.4-5.6 3.8 4.1 5.1-5.3 2.6 2.7.9-.9.9 1 6.7-6.9h2.7l5.2 5.3.1-.1 6 6.3 6.5-6.7 4.3 4.5.4-.4 1.2 1.2 6-6.2 3 3.1 4.5-4.7 7.5 7.8 3-3.1 5 5.1 7.5-7.8 4.5 4.7 3-3.1 6 6.2 7.5-7.8 5.1 5.3 4-4.1 1.9 2 6.5-6.7 8 8.3 3.5-3.6 6 6.2 5.9-6.5 3.8 3.9 8.7-9h1.7l9.8 8.4 3.1-3.2 2.7 2.8 6.8-7.1 4.8 4.9 5.5-5.7 7.5 7.8 1.5-1.6 5.5 5.7 8.1-8.6 6.4 6.6 2.8-2.9 2.7 2.8 8.2-8.5 6.8 7 8.2-8.4h2.1l10.1 10.4 8.8-9.1 6.4 6.6.7-.7 4.6 4.8 8-8.3 3 3.1 1.4-1.4 2.4 2.5 6.6-6.9 4.1 4.2 4.4-4.5.9 1 1.7-1.7h3.9l9.6 9.9 2.9-3 1.5 1.5 8.2-8.4h2.7l9.7 10v-.1l1 1 7.9-8.2 2 2.1 2.5-2.6 4.4 4.6 5.5-5.7 2.1 2.1 3.2-3.3h.7l11.1 11.5 4.5-4.7 1.1 1.1 2-2 3.2 3.3 8.9-9.2h3.2l8.7 9 3.4-3.5 6.3 6.6 7.1-7.3.2.2.4-.4 4.3 4.5 3-3.1 6 6.2 5.6-5.8 3.2 3.3 5.8-6 3.8 3.9.7-.7.6.6 5.8-6 7.4 7.7 3.5-3.6 6 6.2 4.6-5 3.4 3.5 7.5-7.8 4.5 4.7 3-3.1 6 6.2 9.7-10h3.1l5.6 5.8 5.5-5.7 7.5 7.8 1.3-1.4.4.4.2-.2 5.1 5.3 3.3-3.5.9 1 7.1-7.7 7.6 8.2 8.7-9.1 6.5 5.5 6.2-6.4h3.9l10.1 10.4 7.4-7.7 3 3.1 1.5-1.6 5.5 5.7 9.5-10c2.8-.7 6.1-4.2 6.1-8.4z"/></g><g id="Behind_House"><g id="Bush_1_"><path class="st7" d="M332.8 397.9c-36 0-65.2 28.7-65.2 64.1H398c0-35.4-29.2-64.1-65.2-64.1z"/><path class="st7" d="M242.1 424.5c-21.1 0-38.1 16.8-38.1 37.5h76.3c0-20.7-17.1-37.5-38.2-37.5z"/></g><g id="Tree_1_"><path class="st9" d="M760.7 65.4h16.1v231.2h-16.1z"/><path transform="rotate(90 823.8 221.417)" class="st9" d="M798.7 218.4H849v6h-50.3z"/><path transform="rotate(-180 801.678 243.533)" class="st9" d="M776.5 240.5h50.3v6h-50.3z"/><path class="st7" d="M795.3 216.5c-15.7-15.7-15.7-41.2 0-56.9l56.9 56.9c-15.7 15.8-41.2 15.7-56.9 0z"/><path class="st10" d="M852.2 159.7c15.7 15.7 15.7 41.2 0 56.9l-56.9-56.9c15.7-15.7 41.2-15.7 56.9 0z"/><g><path class="st7" d="M715.5 128.7c29.5 29.4 77.2 29.4 106.6 0L715.5 22.1c-29.5 29.4-29.5 77.2 0 106.6z"/><path class="st10" d="M822.1 22.1c-29.5-29.4-77.2-29.4-106.6 0l106.6 106.6c29.5-29.4 29.5-77.2 0-106.6z"/></g><g><path transform="rotate(90 714.2 167.132)" class="st9" d="M689.1 164.1h50.3v6h-50.3z"/><path class="st9" d="M711.2 186.2h50.3v6h-50.3z"/><path class="st7" d="M685.8 155.2c15.7 15.7 41.2 15.7 56.9 0l-56.9-56.9c-15.7 15.8-15.7 41.2 0 56.9z"/><path class="st10" d="M742.7 98.4c-15.7-15.7-41.2-15.7-56.9 0l56.9 56.9c15.7-15.8 15.7-41.2 0-56.9z"/></g></g><g id="Bush_7_"><path class="st7" d="M790.9 397.9c35.8 0 64.9 28.7 64.9 64.1H726c0-35.4 29.1-64.1 64.9-64.1z"/><path class="st7" d="M854.1 424.5c20.9 0 37.9 16.8 37.9 37.5h-75.9c0-20.7 17-37.5 38-37.5z"/></g></g><g id="Inside_House"><path id="Background_2_" fill="#1a1628" d="M743 257H443l-90 96v108h480V353z"/><g id="Desk" class="st12"><path class="st13" d="M447.6 433.5h1.6v39.4h-1.6zM378.6 433.5h1.6v39.4h-1.6z"/><path fill="#702542" d="M375.3 430.2h77.1v3.3h-77.1z"/></g><g id="Swen" class="st12"><g id="Head"><path class="st16" d="M448.7 412.8c0 2 1.4 3.6 3.1 3.6h.8c4.3 0 7.3-3.2 7.3-6.5V407c0-3.6-2.5-6.5-5.6-6.5-3.1 0-5.6 2.9-5.6 6.5v2.9"/><path class="st16" d="M450.6 407.1l-.8-.3c-.3-.1-.5 0-.6.3l-1.2 3.1c-.1.3 0 .5.3.6l.8.3c.3.1.5 0 .6-.3l1.2-3.1c.1-.2-.1-.5-.3-.6z"/></g><path d="M456.5 403h-7c-.8 0-1.5-.7-1.5-1.5s.7-1.5 1.5-1.5h7c.8 0 1.5.7 1.5 1.5s-.7 1.5-1.5 1.5z" fill="#662241"/><path d="M454.5 414h2c2.5 0 4.5-2 4.5-4.5v-5c0-2.5-2-4.5-4.5-4.5h-2c-2.5 0-4.5 2-4.5 4.5v5c0 2.5 2 4.5 4.5 4.5z" fill="#5b1f35"/></g><g id="Chair" class="st12"><path class="st20" d="M431.5 438h9c.8 0 1.5-.7 1.5-1.5s-.7-1.5-1.5-1.5h-9c-.8 0-1.5.7-1.5 1.5s.7 1.5 1.5 1.5z"/><path class="st21" d="M429.5 438h9c.8 0 1.5-.7 1.5-1.5s-.7-1.5-1.5-1.5h-9c-.8 0-1.5.7-1.5 1.5s.7 1.5 1.5 1.5zM461.5 417.6H448c-3.3 0-6 2.7-6 6V446c0 3.3 2.7 6 6 6h13.5c3.3 0 6-2.7 6-6v-22.4c0-3.3-2.7-6-6-6z"/><path class="st20" d="M464 417.6h-13.5c-3.3 0-6 2.7-6 6V446c0 3.3 2.7 6 6 6H464c3.3 0 6-2.7 6-6v-22.4c0-3.3-2.7-6-6-6z"/></g><g id="Computer" class="st12"><path d="M431.1 399.1H395c-.9 0-1.6.7-1.6 1.6v23c0 .9.7 1.6 1.6 1.6h13.1v3.3h-5.7c-.5 0-.8.4-.8.8s.4.8.8.8h19.7c.5 0 .8-.4.8-.8s-.4-.8-.8-.8h-5.7v-3.3h14.8c.9 0 1.6-.7 1.6-1.6v-23c0-.9-.8-1.6-1.7-1.6z" fill="#2f2f51"/><path class="st23" d="M424.1 430.2h-20.3c-.3 0-.5-.2-.5-.5v-.6c0-.3.2-.5.5-.5h20.3c.3 0 .5.2.5.5v.6c0 .3-.2.5-.5.5z"/><path fill="#11111e" d="M409.8 425.3h8.2v3.3h-8.2z"/><path class="st23" d="M433.4 425.3H396c-.6 0-1-.4-1-1V400c0-.6.4-1 1-1h37.4c.6 0 1 .4 1 1v24.3c0 .6-.4 1-1 1z"/><linearGradient id="SVGID_1_" gradientUnits="userSpaceOnUse" x1="396.68" y1="412.185" x2="516.475" y2="412.185"><stop offset="0" stop-color="#c9a6d1" stop-opacity=".6"/><stop offset=".327" stop-color="#937a97" stop-opacity=".404"/><stop offset="1" stop-opacity="0"/></linearGradient><path fill="url(#SVGID_1_)" d="M516.5 447.5l-119.8-23.8v-23l119.8-23.8z"/><path fill="#a469b2" d="M396.7 400.7h36.1v23h-36.1z"/><path d="M429.9 424.1h1.1c.1 0 .3.1.3.3v.3c0 .1-.1.3-.3.3h-1.1c-.1 0-.3-.1-.3-.3v-.3c0-.2.1-.3.3-.3z" fill="#19a1af"/></g><g id="Window_Reflection" class="st12"><path transform="rotate(18.066 594.018 418.909)" class="st28" d="M588.3 370.9h11.4v96h-11.4z"/><path transform="rotate(18.066 607.886 419.63)" class="st28" d="M604.8 371.6h6.1v96h-6.1z"/></g><g id="Window_Reflection_1_" class="st12"><path transform="rotate(18.066 766.017 415.907)" class="st28" d="M760.3 367.9h11.4v96h-11.4z"/><path transform="rotate(18.066 779.886 416.629)" class="st28" d="M776.8 368.6h6.1v96h-6.1z"/></g></g><g id="House"><g id="House_1_"><path class="st29" d="M353 462h180V346H353v116zm36-83h96v48h-96v-48zM353 346h180l-90-96z"/><path class="st30" d="M533 346v116h300V346H533zm90 81h-48v-48h48v48zm171.6 0h-48v-48h48v48z"/><path class="st31" d="M743 250H443l90 96h300z"/><g id="Chimney"><path fill="#322a4c" d="M489 226h16v24h-16z"/><path class="st31" d="M505 226h24v24h-24z"/></g></g><g id="Entrance"><g id="Steps"><path fill="#592b11" d="M665 452.4h42v9.6h-42z"/><path fill="#874226" d="M669.8 457.2h42v4.8h-42z"/></g><g id="Door_1_"><path fill="#334d77" d="M665 379.2h42v72h-42z"/><path class="st30" d="M694.6 417.8h8v2h-8z"/></g></g></g><g id="Flora"><g id="Tree_2_"><path class="st9" d="M226.6 232.4h16.1V462h-16.1z"/><path transform="rotate(90 180.153 336.943)" class="st9" d="M155.2 333.9h49.9v6h-49.9z"/><path class="st9" d="M177.1 355.9h50.2v6h-50.2z"/><path class="st7" d="M181.4 295.8c29.4 29.2 77.1 29.2 106.5 0L181.4 189.9c-29.4 29.3-29.4 76.7 0 105.9z"/><path class="st10" d="M287.9 189.9c-29.4-29.2-77.1-29.2-106.5 0l106.5 105.9c29.5-29.2 29.5-76.6 0-105.9z"/><g><path class="st7" d="M151.8 325.1c15.7 15.6 41.1 15.6 56.8 0l-56.8-56.5c-15.7 15.6-15.7 40.9 0 56.5z"/><path class="st10" d="M208.6 268.7c-15.7-15.6-41.1-15.6-56.8 0l56.8 56.5c15.7-15.7 15.7-41 0-56.5z"/></g></g><g id="Bush_10_"><path class="st7" d="M1003.2 398c36 0 65.2 28.7 65.2 64H938c0-35.3 29.2-64 65.2-64z"/><path class="st7" d="M1093.9 424.6c21.1 0 38.1 16.7 38.1 37.4h-76.3c0-20.7 17.1-37.4 38.2-37.4z"/></g><g id="Flower_13_"><path class="st8" d="M329 422h2v13h-2z"/><path class="st36" d="M326 415v4c0 2.2 1.8 4 4 4s4-1.8 4-4v-4h-8z"/></g><g id="Flower_12_"><path class="st8" d="M318 412h2v13h-2z"/><path class="st36" d="M315 405v4c0 2.2 1.8 4 4 4s4-1.8 4-4v-4h-8z"/></g><g id="Bush_9_"><path class="st10" d="M283.1 410c-28.8 0-52.1 23.3-52.1 52h104.1c0-28.7-23.3-52-52-52z"/><path class="st10" d="M345 428c-18.8 0-34 15.2-34 34h68c0-18.8-15.2-34-34-34z"/></g><g id="Bush_8_"><path class="st10" d="M1050.9 410c28.8 0 52.1 23.3 52.1 52H998.7c0-28.7 23.4-52 52.2-52z"/><path class="st10" d="M989.1 428c18.8 0 34.1 15.2 34.1 34H955c0-18.8 15.3-34 34.1-34z"/></g><g id="Bush_6_"><path class="st7" d="M508.3 432c-16.7 0-30.3 13.4-30.3 30h60.6c0-16.6-13.6-30-30.3-30z"/><path class="st10" d="M544.2 442.4c-10.9 0-19.8 8.8-19.8 19.6H564c0-10.8-8.9-19.6-19.8-19.6z"/></g><g id="Flower_11_"><path class="st8" d="M352 449h2v13h-2z"/><path class="st36" d="M349 442v4c0 2.2 1.8 4 4 4s4-1.8 4-4v-4h-8z"/></g><g id="Flower_10_"><path class="st8" d="M364 442h2v20h-2z"/><path class="st36" d="M361 436v4c0 2.2 1.8 4 4 4s4-1.8 4-4v-4h-8z"/></g><g id="Flower_9_"><path class="st8" d="M807 449h2v13h-2z"/><path class="st36" d="M804 442v4c0 2.2 1.8 4 4 4s4-1.8 4-4v-4h-8z"/></g><g id="Flower_8_"><path class="st8" d="M819 442h2v20h-2z"/><path class="st36" d="M816 436v4c0 2.2 1.8 4 4 4s4-1.8 4-4v-4h-8z"/></g><g id="Flower_7_"><path class="st8" d="M830 449h2v13h-2z"/><path class="st36" d="M827 442v4c0 2.2 1.8 4 4 4s4-1.8 4-4v-4h-8z"/></g></g><g id="Stones"><g id="Stone"><path class="st37" d="M834.5 453.5c-2.3 2.3-3.5 5.4-3.5 8.5h12l-8.5-8.5z"/><path class="st38" d="M834.5 453.5l8.5 8.5h12c0-3.1-1.2-6.1-3.5-8.5-4.7-4.7-12.3-4.7-17 0z"/></g><g id="Stone_1_"><path class="st37" d="M822.8 457.8c-1.2 1.2-1.8 2.7-1.8 4.2h6l-4.2-4.2z"/><path class="st38" d="M822.8 457.8l4.2 4.2h6c0-1.5-.6-3.1-1.8-4.2a5.8 5.8 0 0 0-8.4 0z"/></g><g id="Stone_3_"><path class="st37" d="M1010.5 453.5c-2.3 2.3-3.5 5.4-3.5 8.5h12l-8.5-8.5z"/><path class="st38" d="M1010.5 453.5l8.5 8.5h12c0-3.1-1.2-6.1-3.5-8.5-4.7-4.7-12.3-4.7-17 0z"/></g></g><g id="Waterfall"><path class="st39" d="M892 462h110v574H892z"/><g id="Stream"><path class="st40" d="M892 462h110v130H892z"/><path class="st40" d="M994.2 642.8c-4.4 0-7.9-3.5-7.9-7.8V502.7c0-4.3 3.5-7.8 7.8-7.8s7.8 3.5 7.8 7.8v132.2c.1 4.3-3.4 7.9-7.7 7.9z"/><path class="st39" d="M978.4 667.4c-4.4 0-7.9-3.5-7.9-7.8v-86.4c0-4.3 3.5-7.8 7.8-7.8s7.8 3.5 7.8 7.8v86.4c.2 4.3-3.3 7.8-7.7 7.8z"/><path class="st40" d="M962.7 604.1c-4.4 0-7.9-3.5-7.9-7.8V470c0-4.3 3.5-7.8 7.8-7.8s7.8 3.5 7.8 7.8v126.3c.2 4.2-3.4 7.8-7.7 7.8z"/><path class="st39" d="M947 617.4c-4.4 0-7.9-3.5-7.9-7.8v-86.4c0-4.3 3.5-7.8 7.8-7.8s7.8 3.5 7.8 7.8v86.4c.2 4.2-3.4 7.8-7.7 7.8z"/><path class="st40" d="M931.3 630.7c-4.4 0-7.9-3.5-7.9-7.8V490.7c0-4.3 3.5-7.8 7.8-7.8s7.8 3.5 7.8 7.8v132.2c.1 4.3-3.4 7.8-7.7 7.8z"/><path class="st39" d="M915.6 645.5c-4.4 0-7.9-3.5-7.9-7.8v-86.4c0-4.3 3.5-7.8 7.8-7.8s7.8 3.5 7.8 7.8v86.4c.1 4.2-3.4 7.8-7.7 7.8z"/><path class="st40" d="M899.9 678c-4.4 0-7.9-3.5-7.9-7.8V501c0-4.3 3.5-7.8 7.8-7.8s7.8 3.5 7.8 7.8v169.2c.1 4.3-3.4 7.8-7.7 7.8z"/></g><g id="Splatters"><circle class="st40" cx="867" cy="640" r="2.5"/><circle class="st40" cx="881" cy="586" r="2.5"/><circle class="st40" cx="1021" cy="534" r="3.5"/><circle class="st40" cx="881" cy="782" r="3.5"/><circle class="st41" cx="915" cy="520" r="3.5"/><circle class="st41" cx="943" cy="496" r="3.5"/><circle class="st41" cx="989" cy="510" r="3.5"/><circle class="st40" cx="971" cy="746" r="2.5"/><circle class="st40" cx="1015" cy="682" r="2.5"/><circle class="st40" cx="917" cy="868" r="3.5"/></g><g id="Fall"><circle class="st41" cx="897" cy="460" r="9"/><circle class="st41" cx="909" cy="462" r="8"/><circle class="st41" cx="919" cy="458" r="6"/><circle class="st41" cx="927" cy="460" r="7"/><circle class="st41" cx="933" cy="462" r="6"/><circle class="st41" cx="941" cy="460" r="8"/><circle class="st41" cx="949" cy="462" r="7"/><circle class="st41" cx="959" cy="464" r="8"/><circle class="st41" cx="967" cy="460" r="6"/><circle class="st41" cx="977" cy="464" r="7"/><circle class="st41" cx="985" cy="462" r="6"/><circle class="st41" cx="997" cy="460" r="9"/></g></g></svg>