<?xml version="1.0" encoding="utf-8"?>
<!-- Generator: Adobe Illustrator 21.0.0, SVG Export Plug-In . SVG Version: 6.00 Build 0)  -->
<svg version="1.1" id="Layer_1" xmlns="http://www.w3.org/2000/svg" xmlns:xlink="http://www.w3.org/1999/xlink" x="0px" y="0px"
	 viewBox="0 0 297.5 420" style="enable-background:new 0 0 297.5 420;" xml:space="preserve">
<style type="text/css">
	.st0{fill:#EFC725;}
	.st1{fill:#FBDE34;}
	.st2{fill:#EBEBEB;}
	.st3{fill:#FFFFFF;}
	.st4{fill:#151515;}
	.st5{fill:#020202;}
</style>
<g>
	<polygon class="st0" points="27.1,386.2 0,82.6 297.5,82.6 270.4,386.2 148.5,420 	"/>
	<polygon class="st1" points="148.5,393.8 246.9,366.5 270.1,107.1 148.5,107.1 	"/>
	<polygon class="st2" points="148.4,316.4 148.3,316.4 106.8,305.2 104.1,275.6 84,275.6 66.8,275.6 72,334 148.2,355.2 
		148.4,355.1 	"/>
	<polygon class="st2" points="153.4,256.9 153.4,219.7 107.6,219.7 113,161.2 153.5,160.2 153.4,121.4 79.3,121.4 76.5,148.9 
		67.8,246.9 66.9,256.9 76.9,256.9 	"/>
	<polygon class="st3" points="153.2,160.2 153.3,160.2 194,162.6 197.5,201.1 217.6,201.1 234.8,201.1 228.3,129.1 153.4,121.4 
		153.2,121.5 	"/>
	<polyline class="st3" points="231,160.3 227.8,121.4 149.2,121.4 149.2,145.6 149.2,160.2 149.2,160.3 231,160.3 	"/>
	<polygon class="st3" points="148.3,219.7 148.3,256.9 194.1,256.9 189.8,305.2 148.3,316.4 148.3,355.2 224.6,334 225.2,327.7 
		233.9,229.7 234.8,219.7 224.8,219.7 	"/>
	<path class="st3" d="M226.2,158.7"/>
	<g>
		<polygon class="st4" points="201.2,15.5 176.5,15.5 202.2,43.4 202.2,56.7 149.3,56.7 149.3,41.1 174.9,41.1 149.3,13.3 149.3,0 
			201.2,0 		"/>
		<path class="st5" d="M139.9,0v56.6H94.3V37.9h26.6V0H139.9L139.9,0z"/>
	</g>
	<path class="st3" d="M225.7,158.7"/>
</g>
</svg>
