<svg data-name="Layer 1" xmlns="http://www.w3.org/2000/svg" viewBox="0 0 280 3272.47">
  <defs>
    <linearGradient id="a" x1="140" y1="3272.47" x2="140" gradientUnits="userSpaceOnUse">
      <stop offset="0" stop-color="#7feeff"/>
      <stop offset=".34" stop-color="#7feeff"/>
      <stop offset=".37" stop-color="#7feeff" stop-opacity=".92"/>
      <stop offset=".51" stop-color="#7feeff" stop-opacity=".64"/>
      <stop offset=".64" stop-color="#7feeff" stop-opacity=".41"/>
      <stop offset=".75" stop-color="#7feeff" stop-opacity=".24"/>
      <stop offset=".86" stop-color="#7feeff" stop-opacity=".11"/>
      <stop offset=".94" stop-color="#7feeff" stop-opacity=".03"/>
      <stop offset="1" stop-color="#7feeff" stop-opacity="0"/>
    </linearGradient>
  </defs>
  <path d="M0 0v3132.47a140 140 0 0 0 280 0V0z" fill="url(#a)"/>
  <circle cx="140" cy="3132.47" r="120" fill="#1e253f"/>
  <path d="M225.71 2620.61v46.71a17.14 17.14 0 0 1-17.14 17.14 17.14 17.14 0 0 1-17.14-17.14v-247.71a17.14 17.14 0 0 0-17.14-17.14 17.14 17.14 0 0 0-17.14 17.14v158.71a17.14 17.14 0 0 1-17.15 17.15 17.14 17.14 0 0 1-17.14-17.14v-104.72a17.14 17.14 0 0 0-17.14-17.14 17.14 17.14 0 0 0-17.14 17.14v169.71a17.14 17.14 0 0 1-17.14 17.14 17.14 17.14 0 0 1-17.14-17.14v-42.71a17.14 17.14 0 0 0-17.14-17.14A17.14 17.14 0 0 0 20 2600.61v527.5a17.14 17.14 0 0 0 17.14 17.14 17.14 17.14 0 0 1 17.14 17.14V3200a17.14 17.14 0 0 0 17.14 17.14A17.14 17.14 0 0 0 88.57 3200v-40.71a17.14 17.14 0 0 1 17.14-17.14 17.14 17.14 0 0 1 17.14 17.14v71.57A17.14 17.14 0 0 0 140 3248a17.14 17.14 0 0 0 17.14-17.14v-68.71a17.14 17.14 0 0 1 17.15-17.15 17.14 17.14 0 0 1 17.14 17.14v46.71a17.14 17.14 0 0 0 17.14 17.15 17.14 17.14 0 0 0 17.14-17.14v-44a17.14 17.14 0 0 1 17.14-17.14 17.14 17.14 0 0 0 17.15-17.18v-509.93a17.14 17.14 0 0 0-17.14-17.14 17.14 17.14 0 0 0-17.15 17.14z" fill="#1e253f"/>
  <circle cx="140" cy="3132.47" r="100" fill="#ff417b"/>
  <path d="M221.82 2920.56v58.82a9.09 9.09 0 0 1-9.09 9.09 9.09 9.09 0 0 1-9.09-9.09v-124.82a9.09 9.09 0 0 0-9.09-9.09 9.09 9.09 0 0 0-9.09 9.09v149.82a9.09 9.09 0 0 1-9.09 9.09 9.09 9.09 0 0 1-9.09-9.09v-186.82a9.09 9.09 0 0 0-9.09-9.09 9.09 9.09 0 0 0-9.09 9.09v128.82a9.09 9.09 0 0 1-9.09 9.09 9.09 9.09 0 0 1-9.09-9.09v-82.82a9.09 9.09 0 0 0-9.09-9.09 9.09 9.09 0 0 0-9.09 9.09v165.82a9.09 9.09 0 0 1-9.09 9.09 9.09 9.09 0 0 1-9.09-9.09v-266.82a9.09 9.09 0 0 0-9.09-9.09 9.09 9.09 0 0 0-9.09 9.09v232.82a9.09 9.09 0 0 1-9.09 9.09 9.09 9.09 0 0 1-9.09-9.09v-97.82a9.09 9.09 0 0 0-9.09-9.09 9.09 9.09 0 0 0-9.09 9.09v231.82a9.09 9.09 0 0 0 9.09 9.09 9.09 9.09 0 0 1 9.09 9.09v29.82a9.09 9.09 0 0 0 9.09 9.09 9.09 9.09 0 0 0 9.09-9.09v-79.82a9.09 9.09 0 0 1 9.09-9.09 9.09 9.09 0 0 1 9.09 9.09v101.82a9.09 9.09 0 0 0 9.09 9.09 9.09 9.09 0 0 0 9.09-9.09v-85.82a9.09 9.09 0 0 1 9.09-9.09 9.09 9.09 0 0 1 9.09 9.09v52.82a9.09 9.09 0 0 0 9.09 9.09 9.09 9.09 0 0 0 9.09-9.09v-98.82a9.09 9.09 0 0 1 9.09-9.09 9.09 9.09 0 0 1 9.09 9.09v136.82a9.09 9.09 0 0 0 9.09 9.09 9.09 9.09 0 0 0 9.09-9.09v-99.82a9.09 9.09 0 0 1 9.09-9.09 9.09 9.09 0 0 1 9.09 9.09v70.82a9.09 9.09 0 0 0 9.09 9.09 9.09 9.09 0 0 0 9.09-9.09v-27.82a9.09 9.09 0 0 1 9.09-9.09 9.09 9.09 0 0 0 9.09-9.09v-208.82a9.09 9.09 0 0 0-9.09-9.09 9.09 9.09 0 0 0-9.09 9.09z" fill="#ff417b"/>
  <g fill="#ff417b">
    <rect x="149" y="2726.3" width="18.27" height="68.67" rx="9.14" ry="9.14"/>
    <rect x="149" y="2653.13" width="18.27" height="53.67" rx="9.14" ry="9.14"/>
    <rect x="112.73" y="2800.47" width="18.27" height="40.17" rx="9.14" ry="9.14"/>
    <rect x="112.73" y="2708.47" width="18.27" height="72.67" rx="9.14" ry="9.14"/>
    <rect x="186.06" y="2774.47" width="18.27" height="53.83" rx="9.14" ry="9.14"/>
    <rect x="40" y="2820.55" width="18.27" height="55.42" rx="9.14" ry="9.14"/>
    <rect x="221.73" y="2859.47" width="18.27" height="36.58" rx="9.14" ry="9.14"/>
  </g>
</svg>
