<?xml version="1.0" encoding="utf-8"?>
<!-- Generator: Adobe Illustrator 21.0.0, SVG Export Plug-In . SVG Version: 6.00 Build 0)  -->
<svg version="1.1" id="Capa_1" xmlns="http://www.w3.org/2000/svg" xmlns:xlink="http://www.w3.org/1999/xlink" x="0px" y="0px"
	 viewBox="0 0 480 480" style="enable-background:new 0 0 480 480;" xml:space="preserve">
<style type="text/css">
	.st0{fill:#EB6E00;}
	.st1{fill:#F5D000;}
	.st2{fill:#E8B000;}
</style>
<g>
	<path class="st0" d="M311.6,150.1l12.5-9.2c0.5-0.4,0.8-0.9,1.2-1.4l0.3-0.1c2.2-2.8,2.4-6.8,0.2-9.7c-2.6-3.5-7.6-4.3-11.2-1.7
		l-10.3,7.6h-19.6c-4.4,0-8,3.6-8,8s3.6,8,8,8h4.3h18C308.6,151.7,310.3,151.1,311.6,150.1z"/>
	<path class="st0" d="M355.2,142.5c1.6,0,3.3-0.5,4.7-1.5c0.2-0.2,0.4-0.3,0.6-0.5c1.3-1.2,2.2-2.8,2.5-4.5l0,0
		c0.4-2.1,0-4.4-1.4-6.2l-20.5-28.1c-2.6-3.6-7.6-4.4-11.2-1.8c-3.6,2.6-4.4,7.6-1.8,11.2l20.5,28.1
		C350.3,141.3,352.7,142.5,355.2,142.5z"/>
	<path class="st0" d="M270.5,179.4c-1.3,0.4-2.8,0.1-3.8-0.9l-26.2-24c-1.7-1.6-3.7-1-4.2-0.7c-0.5,0.2-2.4,1.2-2.5,3.5l2.3,17.8
		c0.2,1.6-0.6,3.3-2.1,4c-1.5,0.8-3.3,0.6-4.5-0.5l-21.8-19.3c-7.5-4-16.7-2.8-22.9,3l-7,17.5c-1.1,2.7-2.9,5.1-5.3,6.9l-11.1,8.3
		l37.3-6.6c2.6-0.5,5.1-0.7,7.7-0.7c8.6,0,17,2.5,24.2,7.3l20.5,13.6c4.1,2.7,9.2,3.4,13.9,1.8l37-12.4l6.2-5.6
		c3.7-3.3,5.8-8.1,5.8-13.1c0-4.3-1.6-8.4-4.4-11.6L270.5,179.4z"/>
	<path class="st0" d="M347.2,25.3c8.9,4.5,17.6,9.5,25.8,15c0,0,0,0,0,0C364.8,34.7,356.1,29.7,347.2,25.3
		C347.2,25.2,347.2,25.3,347.2,25.3c-0.1-0.1-0.2-0.1-0.3-0.2c0,0,0,0,0.1,0c-4.4-2.2-8.8-4.2-13.3-6.2c0,0,0.1,0,0.1,0
		c-0.2-0.1-0.4-0.2-0.6-0.3c0,0,0,0,0.1,0c-2.2-0.9-4.3-1.8-6.5-2.6c0,0,0,0,0.1,0c-0.3-0.1-0.7-0.3-1-0.4c0,0,0.1,0,0.1,0
		c-2.2-0.8-4.4-1.7-6.6-2.4c-0.1,0-0.1,0-0.2-0.1c-1.3-0.5-2.6-0.9-3.9-1.3c-0.2-0.1-0.4-0.1-0.6-0.2c-3.7-1.2-7.5-2.3-11.3-3.4
		c-0.5-0.1-1-0.3-1.5-0.4c-1-0.3-2.1-0.6-3.2-0.8c-0.6-0.2-1.3-0.3-1.9-0.5c-1.5-0.4-3.1-0.7-4.6-1.1c-0.9-0.2-1.9-0.4-2.8-0.6
		c-0.9-0.2-1.7-0.3-2.6-0.5c-0.9-0.2-1.8-0.4-2.7-0.5c-0.8-0.2-1.6-0.3-2.5-0.4c-1.1-0.2-2.2-0.4-3.3-0.5c-0.6-0.1-1.3-0.2-1.9-0.3
		c-1.7-0.3-3.3-0.5-5-0.7c-0.7-0.1-1.3-0.2-2-0.2c-1.2-0.1-2.4-0.3-3.6-0.4c-0.6-0.1-1.3-0.1-1.9-0.2c-1.5-0.2-3.1-0.3-4.6-0.4
		c-0.3,0-0.5,0-0.8-0.1c-1.8-0.1-3.6-0.2-5.4-0.3c-0.6,0-1.1-0.1-1.7-0.1c-1.4-0.1-2.7-0.1-4.1-0.2c-0.6,0-1.1,0-1.7,0
		C243.7,0,241.9,0,240,0C107.5,0,0,107.5,0,240s107.5,240,240,240s240-107.5,240-240C480,146,425.9,64.6,347.2,25.3z M113.2,87.9
		c2.3-3.8,7.2-5,11-2.6l12.8,7.9c2.9,1.8,4.4,5.2,3.6,8.6l-5.7,25.5c-0.8,3.7-4.1,6.3-7.8,6.3c-0.6,0-1.2-0.1-1.7-0.2
		c-4.3-1-7-5.2-6.1-9.5l4.4-19.9l-7.9-4.9C112,96.6,110.9,91.7,113.2,87.9z M476.5,211.1l-77.1-24.5l3.6,16c0.8,3.3,2.8,6.1,5.8,7.8
		c3,1.7,6.4,2,9.7,0.9l8.9-2.9c1.2-0.4,2.6-0.2,3.6,0.6c1,0.8,1.7,2,1.7,3.2v21.7v0c0,8.9-4.2,17.2-11.3,22.5l-22.9,18.4
		c-3.5,2.8-8.7,2.2-11.4-1.4L350,224c-3.9-5.2-9.3-9.1-15.5-11.2L320,208l60.5,78.6c5.4,4.5,12.4,6.9,19.8,6.4l11.4-0.8
		c1.2-0.1,2.4,0.4,3.3,1.3c0.8,0.9,1.2,2.2,1,3.4l-4.7,25.8c-0.2,0.8-0.6,1.6-1.2,2.2l-46.9,44.2l-35,88.5c-0.5,1.2-1.4,2-2.6,2.4
		c-4.4,1.3-8.9,1.9-13.4,1.9c-8.1,0-16.2-2.1-23.5-6.2c-11.2-6.3-19.3-16.6-22.7-28.9c-2.7-9.8-4-16.3-4-20v-33.4l-5.4-2.1
		c-12.5-4.8-23.5-12.8-31.8-23.2l-12.4-15.3l-53.2,9.5c-2.3,0.4-4.6,0.6-6.9,0.5c15.4,56.7,51,105.1,98.6,136.9c0,0,0,0,0,0
		c-47.6-31.8-83.2-80.2-98.6-136.9c-3.9-0.1-7.8-0.8-11.4-2c-4.3-1.5-8.3-3.9-11.7-6.9c-0.2-0.2-0.4-0.4-0.6-0.5
		c-0.3-0.3-0.6-0.6-1-0.9c-0.3-0.3-0.6-0.6-0.8-0.9c-0.3-0.3-0.5-0.5-0.8-0.8c-0.3-0.4-0.7-0.8-1-1.2c-0.2-0.2-0.4-0.4-0.6-0.7
		c-0.5-0.6-1-1.3-1.4-2v0l-5.8-8.7c-8.7-12.9-11.8-28.4-9.4-43.3c0-0.2,0.1-0.4,0.1-0.6c0-0.2,0.1-0.5,0.1-0.7
		c0.1-0.4,0.2-0.8,0.2-1.2c0-0.1,0-0.1,0-0.2c0.8-3.8,2-7.6,3.6-11.3c0.5-1.2,1.1-2.4,1.7-3.6c0,0,0,0,0,0l12.3-23.6l-0.2-8.2
		c-0.3-12.7,7.8-23.8,19.7-27.4l-10.9-3c-8.3-2.3-14.1-9.6-14.6-18.2l-0.6-10.7c-0.6-10.6,7.3-19.8,17.9-21L148,144V125
		c0-1.3,0.6-2.4,1.6-3.2l31.8-24c2.2-1.6,4-3.7,5.3-6l5.5-9.6l-35.6,7c-1.2,0.2-2.4-0.1-3.3-0.8c-0.9-0.8-1.5-1.9-1.5-3.1v-11
		c0-10.9,4.9-21.1,13.4-28l50.1-40.4c1.3-1,3.1-1.2,4.5-0.4l35.1,20.2c0.9,0.5,2,0.7,3.1,0.4c1-0.3,1.9-1,2.4-1.9l13.4-21.8l0,0
		c36.3,5.1,70,18.4,99.2,37.9c0,0,0,0,0,0c16.7,11.2,32,24.4,45.4,39.3l0,0c7.3,8.1,14,16.7,20.1,25.7c0.2,0.3,0.4,0.6,0.6,0.9
		c2.4,3.6,4.8,7.3,7,11.1c0.3,0.6,0.7,1.1,1,1.7c1.7,2.9,3.4,5.8,4.9,8.8l0,0c13.5,25.4,22.5,53.6,26.1,83.4
		C477.6,211.2,477.1,211.3,476.5,211.1z"/>
</g>
<g>
	<path class="st1" d="M115.8,98.9l7.9,4.9l-4.4,19.9c-1,4.3,1.8,8.6,6.1,9.5c0.6,0.1,1.2,0.2,1.7,0.2c3.7,0,7-2.5,7.8-6.3l5.7-25.5
		c0.7-3.3-0.7-6.8-3.6-8.6l-12.8-7.9c-3.8-2.3-8.7-1.1-11,2.6C110.9,91.7,112,96.6,115.8,98.9z"/>
	<path class="st1" d="M452.1,127.8l-7.5,25c-3,10-3.2,20.6-0.5,30.6l5.1,19l-49.8-15.8l77.1,24.5c0.6,0.2,1.1,0.2,1.7,0.1
		C474.6,181.3,465.6,153.2,452.1,127.8z"/>
	<path class="st1" d="M411.7,292.3l-11.4,0.8c-7.4,0.5-14.4-1.9-19.8-6.4l-34.5-5.1c-6.1-0.9-12.2,1.8-15.7,6.9l-0.9,1.3
		c-5.9,8.9-15.9,14.2-26.6,14.2h-93.7c-10.7,0-20.7,5.3-26.6,14.3l-15.1,22.6l-8.2,1.5c-0.7,0.1-1.4,0.2-2.1,0.3
		c0.7-0.1,1.4-0.2,2.1-0.3l53.2-9.5l12.4,15.3c8.4,10.4,19.4,18.4,31.8,23.2l5.4,2.1v33.4c0,3.6,1.3,10.2,4,20
		c3.4,12.4,11.5,22.6,22.7,28.9c7.3,4.1,15.3,6.2,23.5,6.2c4.5,0,9-0.6,13.4-1.9c1.2-0.3,2.2-1.2,2.6-2.4l35-88.5l46.9-44.2
		c0.6-0.6,1-1.4,1.2-2.2l4.7-25.8c0.2-1.2-0.1-2.5-1-3.4C414.2,292.7,413,292.2,411.7,292.3z"/>
	<path class="st1" d="M159.4,195.3c11.7-30.9,29.5-58.8,52.1-82.1C188.9,136.5,171,164.4,159.4,195.3l2-0.4l11.1-8.3
		c2.4-1.8,4.2-4.2,5.3-6.9l7-17.5c6.3-5.8,15.5-7,22.9-3l21.8,19.3c1.2,1.1,3,1.3,4.5,0.5c1.5-0.8,2.3-2.4,2.1-4l-2.3-17.8
		c0.1-2.4,1.9-3.3,2.5-3.5c0.5-0.2,2.5-0.9,4.2,0.7l26.2,24c1,1,2.5,1.3,3.8,0.9l17.5-5.2l-2-3.6c-3.5-6.2-2.3-14.1,2.9-18.9h-4.3
		c-4.4,0-8-3.6-8-8c0-4.4,3.6-8,8-8h19.6l10.3-7.6c3.6-2.6,8.6-1.9,11.2,1.7c2.2,3,2,7-0.2,9.7L336,136h10.4l-18.1-24.9
		c-2.6-3.6-1.8-8.6,1.8-11.2c3.6-2.6,8.6-1.8,11.2,1.8l20.5,28.1c1.4,1.9,1.8,4.1,1.4,6.2l15.9-4.4c8.4-2.3,15.4-7.9,19.6-15.5
		l19.9-36.5C405,64.7,389.8,51.5,373,40.3c-18.4-12.3-38.7-22.1-60.2-28.9c0.7,0.3,1.5,0.5,2.2,0.8c5,1.7,10,3.5,14.9,5.4
		c1.6,0.7,3.2,1.4,4.8,2.1c4.1,1.8,8.1,3.6,12.1,5.6c1.8,0.9,3.6,1.9,5.4,2.8c3.7,2,7.3,4,10.9,6.1c1.8,1.1,3.6,2.2,5.4,3.3
		c1.4,0.9,2.7,1.8,4.1,2.8c0,0,0,0,0,0c-1.4-0.9-2.7-1.9-4.1-2.7c-1.8-1.1-3.6-2.2-5.4-3.3c-3.6-2.1-7.2-4.2-10.9-6.1
		c-1.8-1-3.6-1.9-5.4-2.8c-4-2-8-3.8-12.1-5.6c-1.6-0.7-3.2-1.4-4.8-2.1c-4.9-2-9.9-3.8-14.9-5.4c-0.8-0.2-1.5-0.5-2.2-0.8
		c-1.4-0.4-2.8-0.9-4.2-1.3c0,0,0,0,0,0c-1.4-0.4-2.8-0.8-4.2-1.2c-0.2,0-0.4-0.1-0.5-0.2c0,0,0.1,0,0.1,0c-0.4-0.1-0.9-0.2-1.3-0.4
		c0,0,0,0,0,0c-1.3-0.4-2.7-0.7-4-1.1c-0.3-0.1-0.7-0.2-1-0.2c-4.3-1.1-8.6-2-13-2.8c-0.5-0.1-0.9-0.2-1.4-0.3c0,0,0,0,0.1,0
		c-3-0.5-6-1-9.1-1.5c-0.1,0-0.3,0-0.4,0l-13.4,21.8c-0.5,0.9-1.4,1.6-2.4,1.9c-1.1,0.3-2.1,0.2-3.1-0.4L219.9,5.6
		c-1.4-0.8-3.2-0.7-4.5,0.4l-50.1,40.4c-8.5,6.9-13.4,17.1-13.4,28v11c0,1.2,0.5,2.3,1.5,3.1c0.9,0.8,2.1,1.1,3.3,0.8l35.6-7
		l-5.5,9.6c-1.3,2.4-3.1,4.4-5.3,6l-31.8,24c-1,0.8-1.6,1.9-1.6,3.2V144l-10.7,1.1c-10.6,1.1-18.4,10.3-17.9,21l0.6,10.7
		c0.5,8.6,6.3,15.9,14.6,18.2l10.9,3L159.4,195.3z"/>
</g>
<path class="st2" d="M452.1,127.8L452.1,127.8c-1.6-3-3.2-6-4.9-8.9c-0.3-0.6-0.7-1.1-1-1.7c-2.2-3.8-4.6-7.4-7-11.1
	c-0.2-0.3-0.4-0.6-0.6-0.9c-6.1-9-12.8-17.6-20.1-25.7l0,0l-19.9,36.5c-4.2,7.6-11.2,13.2-19.6,15.5L363,136l0,0
	c-0.3,1.7-1.1,3.3-2.5,4.5c-0.2,0.2-0.4,0.3-0.6,0.5c-1.4,1-3.1,1.5-4.7,1.5c-2.5,0-4.9-1.1-6.5-3.3l-2.3-3.2H336l-10.4,3.5
	l-0.3,0.1c-0.4,0.5-0.7,1-1.2,1.4l-12.5,9.2c-1.4,1-3,1.6-4.8,1.6h0h-18c-5.2,4.9-6.4,12.7-2.9,18.9l2,3.6l21.5-6.4
	c2.8,3.2,4.4,7.3,4.4,11.6c0,5-2.1,9.8-5.8,13.1l-6.2,5.6l-37,12.4l-7.4,2.5l-6.5-4.3L230.5,195c-7.3-4.8-15.7-7.3-24.2-7.3
	c-2.6,0-5.1,0.2-7.7,0.7l-37.3,6.6l-2,0.4l-13.8,2.6l13.9-2.6c-6.8,18.1-11.6,37.3-13.9,57.1c-0.4,3.6-0.8,7.3-1,10.9
	c0.3-3.7,0.6-7.3,1-10.9c2.3-19.9,7-39,13.9-57.1l-13.9,2.6c-11.9,3.6-20,14.6-19.7,27.4l0.2,8.2l-12.3,23.6c0,0,0,0,0,0
	c-0.6,1.2-1.2,2.4-1.7,3.6c-1.6,3.7-2.8,7.5-3.6,11.3c0,0.1,0,0.1,0,0.2c-0.1,0.4-0.2,0.8-0.2,1.2c0,0.2-0.1,0.5-0.1,0.7
	c0,0.2-0.1,0.4-0.1,0.6c-1.1,6.6-1.1,13.3,0,19.9c1.3,7.6,4,15,8.2,21.7c0.4,0.6,0.7,1.2,1.1,1.7l5.8,8.7c0.5,0.7,0.9,1.3,1.4,2
	c0.2,0.2,0.4,0.5,0.6,0.7c0.3,0.4,0.6,0.8,1,1.2c0.3,0.3,0.5,0.6,0.8,0.8c0.3,0.3,0.6,0.6,0.8,0.9c0.3,0.3,0.6,0.6,1,0.9
	c0.2,0.2,0.4,0.4,0.6,0.5c0,0,0.1,0.1,0.1,0.1c3.4,3,7.4,5.3,11.6,6.8c5.8,2,12,2.6,18.3,1.5l8.2-1.5l15.1-22.6
	c5.9-8.9,15.9-14.3,26.6-14.3h93.7c10.7,0,20.7-5.3,26.6-14.2l0.9-1.3c3.4-5.2,9.5-7.9,15.7-6.9l34.5,5.1L320,208l14.5,4.8
	c6.2,2.1,11.6,6,15.5,11.2l37,49.4c2.7,3.6,7.9,4.3,11.4,1.4l22.9-18.4c7.1-5.3,11.3-13.6,11.3-22.5v0v-21.7c0-1.3-0.6-2.5-1.7-3.2
	c-1-0.8-2.4-1-3.6-0.6l-8.9,2.9c-3.3,1.1-6.7,0.7-9.7-0.9c-3-1.7-5-4.5-5.8-7.8l-3.6-16l49.8,15.8l-5.1-19
	c-2.7-10-2.5-20.6,0.5-30.6L452.1,127.8z M144.1,341.7c1.2,0.3,2.3,0.5,3.5,0.7C146.4,342.2,145.2,342,144.1,341.7z"/>
</svg>
