<?xml version="1.0" encoding="utf-8"?>
<!-- Generator: Adobe Illustrator 21.0.0, SVG Export Plug-In . SVG Version: 6.00 Build 0)  -->
<svg version="1.1" id="Layer_1" xmlns="http://www.w3.org/2000/svg" xmlns:xlink="http://www.w3.org/1999/xlink" x="0px" y="0px"
	 viewBox="0 0 210 210" style="enable-background:new 0 0 210 210;" xml:space="preserve">

<path d="M210,105c0,13.6-12.3,24.6-17.2,36.4c-5.1,12.2-4.3,28.7-13.5,37.9c-9.2,9.2-25.7,8.5-37.9,13.5
	c-11.8,4.9-22.8,17.2-36.4,17.2c-13.6,0-24.6-12.3-36.4-17.2c-12.2-5.1-28.7-4.3-37.9-13.5c-9.2-9.2-8.5-25.7-13.5-37.9
	C12.3,129.6,0,118.6,0,105c0-13.6,12.3-24.6,17.2-36.4c5.1-12.2,4.3-28.7,13.5-37.9c9.2-9.2,25.7-8.5,37.9-13.5
	C80.4,12.3,91.4,0,105,0c13.6,0,24.6,12.3,36.4,17.2c12.2,5.1,28.7,4.3,37.9,13.5c9.2,9.2,8.5,25.7,13.5,37.9
	C197.7,80.4,210,91.4,210,105z"/>
</svg>
