<svg xmlns="http://www.w3.org/2000/svg" viewBox="0 0 4000 1000">
  <path d="M400.1 677.3H222.8c-30.1 0-54.5-24.4-54.5-54.5s24.4-54.5 54.5-54.5h177.3c30.1 0 54.5 24.4 54.5 54.5s-24.4 54.5-54.5 54.5zM153.7 73.2H36.6C16.4 73.2 0 56.8 0 36.6 0 16.4 16.4 0 36.6 0h117.1c20.2 0 36.6 16.4 36.6 36.6 0 20.2-16.4 36.6-36.6 36.6zM215.9 789.4h-95.1c-18.2 0-32.9-14.7-32.9-32.9s14.7-32.9 32.9-32.9h95.1c18.2 0 32.9 14.7 32.9 32.9 0 18.1-14.7 32.9-32.9 32.9zM1828.3 677.3h-114.4c-15 0-27.1-12.1-27.1-27.1 0-15 12.1-27.1 27.1-27.1h114.4c15 0 27.1 12.1 27.1 27.1 0 15-12.2 27.1-27.1 27.1zM1040.1 363.4H847.8c-29.4 0-53.3-23.8-53.3-53.3 0-29.4 23.8-53.3 53.3-53.3h192.3c29.4 0 53.3 23.8 53.3 53.3 0 29.4-23.9 53.3-53.3 53.3zM262.7 374.2c0-8 6.5-14.4 14.4-14.4h21.6c23.9 0 43.2-19.4 43.2-43.2 0-23.9-19.4-43.2-43.2-43.2H133c-23.9 0-43.2 19.4-43.2 43.2 0 23.9 19.4 43.2 43.2 43.2h21.6c8 0 14.4 6.5 14.4 14.4 0 8-6.5 14.4-14.4 14.4h-27.7c-39.8 0-72.1 32.3-72.1 72.1s32.3 72.1 72.1 72.1h302.7c39.8 0 72.1-32.3 72.1-72.1s-32.3-72.1-72.1-72.1H277.1c-7.9 0-14.4-6.4-14.4-14.4zM1815 845.5h-175.7c-39.2 0-71-31.8-71-71s31.8-71 71-71H1815c39.2 0 71 31.8 71 71 0 39.3-31.8 71-71 71zM1793.4 354c0-34.8-28.2-63-63-63h-226.8c-34.8 0-63 28.2-63 63v3.8c0 32.7 26.5 59.2 59.2 59.2 10.4 0 18.9 8.5 18.9 18.9 0 10.4-8.5 18.9-18.9 18.9h-37.2c-31.3 0-56.7 25.4-56.7 56.7 0 31.3 25.4 56.7 56.7 56.7h220.5c31.3 0 56.7-25.4 56.7-56.7 0-31.3-25.4-56.7-56.7-56.7h-6.9c-10.4 0-18.9-8.5-18.9-18.9 0-10.4 8.5-18.9 18.9-18.9h54.2c34.8 0 63-28.2 63-63zM1032.2 237.8H751.8c-33.8 0-61.1-27.4-61.1-61.1 0-33.8 27.4-61.1 61.1-61.1h280.4c33.8 0 61.1 27.4 61.1 61.1.1 33.7-27.3 61.1-61.1 61.1zM867.6 431.2H764.7c-13.5 0-24.4-10.9-24.4-24.4 0-13.5 10.9-24.4 24.4-24.4h102.9c13.5 0 24.4 10.9 24.4 24.4 0 13.5-10.9 24.4-24.4 24.4zM1173.9 778.3H782c-45.7 0-82.7-37-82.7-82.7s37-82.7 82.7-82.7h391.8c45.7 0 82.7 37 82.7 82.7.1 45.6-36.9 82.7-82.6 82.7zM2403 677.2h-177.3c-30.1 0-54.5-24.4-54.5-54.5s24.4-54.5 54.5-54.5H2403c30.1 0 54.5 24.4 54.5 54.5s-24.4 54.5-54.5 54.5zM2156.7 73.1h-117.1c-20.2 0-36.6-16.4-36.6-36.6 0-20.2 16.4-36.6 36.6-36.6h117.1c20.2 0 36.6 16.4 36.6 36.6 0 20.2-16.4 36.6-36.6 36.6zM2218.8 789.3h-95.1c-18.2 0-32.9-14.7-32.9-32.9s14.7-32.9 32.9-32.9h95.1c18.2 0 32.9 14.7 32.9 32.9.1 18.1-14.7 32.9-32.9 32.9zM3831.2 677.2h-114.4c-15 0-27.1-12.1-27.1-27.1 0-15 12.1-27.1 27.1-27.1h114.4c15 0 27.1 12.1 27.1 27.1 0 15-12.1 27.1-27.1 27.1zM3043.1 363.2h-192.3c-29.4 0-53.3-23.8-53.3-53.3 0-29.4 23.8-53.3 53.3-53.3h192.3c29.4 0 53.3 23.8 53.3 53.3-.1 29.5-23.9 53.3-53.3 53.3zM2265.7 374.1c0-8 6.5-14.4 14.4-14.4h21.6c23.9 0 43.2-19.4 43.2-43.2 0-23.9-19.4-43.2-43.2-43.2H2136c-23.9 0-43.2 19.4-43.2 43.2 0 23.9 19.4 43.2 43.2 43.2h21.6c8 0 14.4 6.5 14.4 14.4 0 8-6.5 14.4-14.4 14.4h-27.7c-39.8 0-72.1 32.3-72.1 72.1s32.3 72.1 72.1 72.1h302.7c39.8 0 72.1-32.3 72.1-72.1s-32.3-72.1-72.1-72.1h-152.5c-8 0-14.4-6.4-14.4-14.4zM3818 845.4h-175.7c-39.2 0-71-31.8-71-71s31.8-71 71-71H3818c39.2 0 71 31.8 71 71s-31.8 71-71 71zM3796.4 353.9c0-34.8-28.2-63-63-63h-226.8c-34.8 0-63 28.2-63 63v3.8c0 32.7 26.5 59.2 59.2 59.2 10.4 0 18.9 8.5 18.9 18.9 0 10.4-8.5 18.9-18.9 18.9h-37.2c-31.3 0-56.7 25.4-56.7 56.7 0 31.3 25.4 56.7 56.7 56.7h220.5c31.3 0 56.7-25.4 56.7-56.7 0-31.3-25.4-56.7-56.7-56.7h-6.9c-10.4 0-18.9-8.5-18.9-18.9 0-10.4 8.5-18.9 18.9-18.9h54.2c34.8 0 63-28.2 63-63zM3035.2 237.7h-280.4c-33.8 0-61.1-27.4-61.1-61.1 0-33.8 27.4-61.1 61.1-61.1h280.4c33.8 0 61.1 27.4 61.1 61.1s-27.4 61.1-61.1 61.1zM2870.6 431h-102.9c-13.5 0-24.4-10.9-24.4-24.4 0-13.5 10.9-24.4 24.4-24.4h102.9c13.5 0 24.4 10.9 24.4 24.4 0 13.5-10.9 24.4-24.4 24.4zM3176.8 778.2H2785c-45.7 0-82.7-37-82.7-82.7s37-82.7 82.7-82.7h391.8c45.7 0 82.7 37 82.7 82.7.1 45.6-37 82.7-82.7 82.7z"/>
</svg>
