<svg xmlns="http://www.w3.org/2000/svg" viewBox="0 0 4000 1000">
    <path d="M217.1 267.5H39.2C18.1 267.5 1 250.4 1 229.3s17.1-38.2 38.2-38.2h177.9c21.1 0 38.2 17.1 38.2 38.2s-17.1 38.2-38.2 38.2zM377.8 508.4H166c-20.7 0-37.4-16.7-37.4-37.4s16.7-37.4 37.4-37.4h211.8c20.7 0 37.4 16.7 37.4 37.4s-16.8 37.4-37.4 37.4zM725.4 710h-137c-16.5 0-29.9-13.4-29.9-29.9s13.4-29.9 29.9-29.9h137c16.5 0 29.9 13.4 29.9 29.9S741.9 710 725.4 710zM834.8 624.2h-148c-16.5 0-29.9-13.4-29.9-29.9s13.4-29.9 29.9-29.9h148c16.5 0 29.9 13.4 29.9 29.9s-13.3 29.9-29.9 29.9zM1203 358.5h-175.3c-24.7 0-44.7-20-44.7-44.7 0-24.7 20-44.7 44.7-44.7H1203c24.7 0 44.7 20 44.7 44.7 0 24.6-20 44.7-44.7 44.7zM1276.9 444.3h-145.7c-16.1 0-29.1-13-29.1-29.1s13-29.1 29.1-29.1h145.7c16.1 0 29.1 13 29.1 29.1s-13 29.1-29.1 29.1zM1410.4 701.3h-153.5c-27.4 0-49.6-22.2-49.6-49.6 0-27.4 22.2-49.6 49.6-49.6h153.5c27.4 0 49.6 22.2 49.6 49.6 0 27.4-22.2 49.6-49.6 49.6zM781.7 214.4H526.6c-24.1 0-43.7-19.6-43.7-43.7s19.6-43.7 43.7-43.7h255.1c24.1 0 43.7 19.6 43.7 43.7s-19.6 43.7-43.7 43.7zM1933.4 907h-137c-16.5 0-29.9-13.4-29.9-29.9s13.4-29.9 29.9-29.9h137c16.5 0 29.9 13.4 29.9 29.9s-13.4 29.9-29.9 29.9zM1870.2 821.2h-214.6c-27.4 0-49.6-22.2-49.6-49.6 0-27.4 22.2-49.6 49.6-49.6h214.6c27.4 0 49.6 22.2 49.6 49.6-.1 27.4-22.3 49.6-49.6 49.6zM1833 385h-302c-39.2 0-71-31.8-71-71s31.8-71 71-71h302c39.2 0 71 31.8 71 71s-31.8 71-71 71z"/>
    <path d="M2215.1 267.5h-177.9c-21.1 0-38.2-17.1-38.2-38.2s17.1-38.2 38.2-38.2h177.9c21.1 0 38.2 17.1 38.2 38.2s-17.1 38.2-38.2 38.2zM2375.8 508.4H2164c-20.7 0-37.4-16.7-37.4-37.4s16.7-37.4 37.4-37.4h211.8c20.7 0 37.4 16.7 37.4 37.4s-16.8 37.4-37.4 37.4zM2723.4 710h-137c-16.5 0-29.9-13.4-29.9-29.9s13.4-29.9 29.9-29.9h137c16.5 0 29.9 13.4 29.9 29.9s-13.4 29.9-29.9 29.9zM2832.8 624.2h-148c-16.5 0-29.9-13.4-29.9-29.9s13.4-29.9 29.9-29.9h148c16.5 0 29.9 13.4 29.9 29.9s-13.3 29.9-29.9 29.9zM3201 358.5h-175.3c-24.7 0-44.7-20-44.7-44.7 0-24.7 20-44.7 44.7-44.7H3201c24.7 0 44.7 20 44.7 44.7 0 24.6-20 44.7-44.7 44.7zM3274.9 444.3h-145.7c-16.1 0-29.1-13-29.1-29.1s13-29.1 29.1-29.1h145.7c16.1 0 29.1 13 29.1 29.1s-13 29.1-29.1 29.1zM3408.4 701.3h-153.5c-27.4 0-49.6-22.2-49.6-49.6 0-27.4 22.2-49.6 49.6-49.6h153.5c27.4 0 49.6 22.2 49.6 49.6 0 27.4-22.2 49.6-49.6 49.6zM2779.7 214.4h-255.1c-24.1 0-43.7-19.6-43.7-43.7s19.6-43.7 43.7-43.7h255.1c24.1 0 43.7 19.6 43.7 43.7s-19.6 43.7-43.7 43.7zM3931.4 907h-137c-16.5 0-29.9-13.4-29.9-29.9s13.4-29.9 29.9-29.9h137c16.5 0 29.9 13.4 29.9 29.9s-13.4 29.9-29.9 29.9zM3868.2 821.2h-214.6c-27.4 0-49.6-22.2-49.6-49.6 0-27.4 22.2-49.6 49.6-49.6h214.6c27.4 0 49.6 22.2 49.6 49.6-.1 27.4-22.3 49.6-49.6 49.6zM3831 385h-302c-39.2 0-71-31.8-71-71s31.8-71 71-71h302c39.2 0 71 31.8 71 71s-31.8 71-71 71z"/>
</svg>
