<?xml version="1.0" encoding="utf-8"?>
<!-- Generator: Adobe Illustrator 21.0.0, SVG Export Plug-In . SVG Version: 6.00 Build 0)  -->
<svg version="1.1" id="Layer_1" xmlns="http://www.w3.org/2000/svg" xmlns:xlink="http://www.w3.org/1999/xlink" x="0px" y="0px"
	 viewBox="0 0 462 204" style="enable-background:new 0 0 462 204;" xml:space="preserve">
<style type="text/css">
	.st0{opacity:0.3;fill:#A743FF;}
	.st1{fill:#353238;}
	.st2{fill:#364070;}
	.st3{fill:#3B4589;}
	.st4{fill:#C199AA;}
	.st5{fill:#FFFFFF;}
	.st6{fill:#685662;}
	.st7{fill:#9645FF;}
	.st8{fill:#2D2D2D;}
	.st9{fill:#444444;}
	.st10{fill:#8042D1;}
	.st11{fill:#CCCCCC;}
	.st12{fill:#E2DEDF;}
	.st13{fill:#727071;}
	.st14{fill:#C1C1C1;}
	.st15{fill:#FF417B;}
	.st16{fill:#666666;}
</style>
<polygon class="st0" points="350.2,65.2 276.5,34.7 277,35 204,35 204,123.9 277,154.1 277,154 439,154 "/>
<path class="st1" d="M352.3,189l-50.4-54c-0.8-0.8-0.7-2.1,0.1-2.8l0,0c0.8-0.8,2.1-0.7,2.8,0.1l50.4,54c0.8,0.8,0.7,2.1-0.1,2.8h0
	C354.3,189.9,353,189.8,352.3,189z"/>
<path class="st1" d="M225,174.7L225,174.7c-4.6,0-8.3-3.7-8.3-8.3V85.8c0-4.6,3.7-8.3,8.3-8.3h0c4.6,0,8.3,3.7,8.3,8.3v80.6
	C233.3,170.9,229.5,174.7,225,174.7z"/>
<path class="st2" d="M298.8,138.6l-44.5-11c-3-0.7-4.8-3.8-4.1-6.7v0c0.7-3,3.8-4.8,6.7-4.1l44.5,11c3,0.7,4.8,3.8,4.1,6.7v0
	C304.8,137.5,301.8,139.4,298.8,138.6z"/>
<path class="st3" d="M291.3,138.6l-44.5-11c-3-0.7-4.8-3.8-4.1-6.7v0c0.7-3,3.8-4.8,6.7-4.1l44.5,11c3,0.7,4.8,3.8,4.1,6.7v0
	C297.3,137.5,294.3,139.4,291.3,138.6z"/>
<path class="st1" d="M303.8,146.9L303.8,146.9c-1.5,0-2.7-1.2-2.7-2.7V124c0-1.5,1.2-2.7,2.7-2.7l0,0c1.5,0,2.7,1.2,2.7,2.7v20.2
	C306.5,145.7,305.3,146.9,303.8,146.9z"/>
<path class="st4" d="M300.7,140.6L300.7,140.6c-2,0-3.7-1.6-3.7-3.7v-3.4c0-2,1.6-3.7,3.7-3.7l0,0c2,0,3.7,1.6,3.7,3.7v3.4
	C304.3,138.9,302.7,140.6,300.7,140.6z"/>
<g>
	<path class="st4" d="M245,95.8L245,95.8c-4.5,0-8.2,3.7-8.2,8.2V118c0,4.5,3.7,8.2,8.2,8.2h0c4.5,0,8.2-3.7,8.2-8.2V104
		C253.2,99.5,249.5,95.8,245,95.8z"/>
	<path class="st4" d="M255,111.7h-9.5c-4.8,0-8.8-3.9-8.8-8.8V82.4c0-4.8,3.9-8.8,8.8-8.8h9.5c4.8,0,8.8,3.9,8.8,8.8v20.5
		C263.8,107.7,259.8,111.7,255,111.7z"/>
	<path class="st5" d="M260.6,91.1h-3.3c-1.3,0-2.4-1.1-2.4-2.4v0c0-1.3,1.1-2.4,2.4-2.4h3.3c1.3,0,2.4,1.1,2.4,2.4v0
		C263,90,261.9,91.1,260.6,91.1z"/>
	<path class="st6" d="M260.4,82.8h-19c-3.2,0-5.7-2.6-5.7-5.8v0c0-3.2,2.6-5.7,5.7-5.7h19c3.2,0,5.7,2.6,5.7,5.7v0
		C266.2,80.2,263.6,82.8,260.4,82.8z"/>
	<path class="st6" d="M242.6,71.3L242.6,71.3c-4.6,0-8.3,3.7-8.3,8.3v16.2c0,4.6,3.8,8.3,8.3,8.3h0c4.6,0,8.3-3.7,8.3-8.3V79.7
		C250.9,75.1,247.2,71.3,242.6,71.3z"/>
	<path class="st4" d="M246.3,87.8L246.3,87.8c1.4,0,2.6,1.2,2.6,2.6v4.4c0,1.4-1.2,2.6-2.6,2.6h0c-1.4,0-2.6-1.2-2.6-2.6v-4.4
		C243.8,88.9,244.9,87.8,246.3,87.8z"/>
	<path class="st6" d="M260,111.7h-11.7c-2.5,0-4.6-2.1-4.6-4.6v-4.2c0-2.5,2.1-4.6,4.6-4.6H260c2.5,0,4.6,2.1,4.6,4.6v4.2
		C264.6,109.6,262.5,111.7,260,111.7z"/>
	<path d="M261,89.7L261,89.7c-0.5,0-0.9-0.4-0.9-0.9v0c0-0.5,0.4-0.9,0.9-0.9l0,0c0.5,0,0.9,0.4,0.9,0.9v0
		C261.9,89.2,261.5,89.7,261,89.7z"/>
	<path class="st3" d="M252.6,167.7h-7.3c-6.6,0-12-5.4-12-12v-30.2c0-6.6,5.4-12,12-12h7.3c6.6,0,12,5.4,12,12v30.2
		C264.6,162.3,259.2,167.7,252.6,167.7z"/>
</g>
<polygon class="st7" points="123,0 39,0 74,35 158,35 "/>
<g id="thruster">
	<g>
		<polygon class="st8" points="0,56 0,120 0,184 8,184 8,120 8,56 		"/>
		<rect y="56" class="st9" width="8" height="64"/>
	</g>
	<g>
		<polygon class="st10" points="8,48 8,56 8,120 8,184 8,191.1 39,203.9 39,154 39,120 39,35.1 		"/>
		<polygon class="st7" points="39,120 39,35.1 8,48 8,56 8,120 		"/>
	</g>
</g>
<g id="hull">
	<path class="st11" d="M437,154H276.7L204,123.9v0.1l-0.5-0.3l0.5,0.2V120V35H39v0.1V120v34v49.9v0.1h48h190h160
		c13.8,0,25-11.2,25-25v0C462,165.2,450.8,154,437,154z"/>
	<polygon class="st12" points="204,120 204,35 39,35 39,35.1 39,120 	"/>
</g>
<polygon class="st13" points="434.2,149.2 277.8,149.2 277.8,149.3 209.5,121 209.5,35 204,35 204,123.9 277,154.1 277,154 439,154 
	"/>
<g>
	<circle class="st7" cx="310.3" cy="180" r="6"/>
	<circle class="st7" cx="367" cy="180" r="6"/>
	<circle class="st7" cx="424.8" cy="180" r="6"/>
</g>
<g>
	<g>
		<polygon class="st11" points="73.9,98.3 73.9,98.3 74,98.3 		"/>
		<rect x="74.3" y="98.3" class="st11" width="101.2" height="21.2"/>
		<polygon class="st14" points="74.3,119.5 74.3,141.7 73.9,141.5 73.9,141.8 175.5,141.8 175.5,119.5 		"/>
		<polygon class="st15" points="74.3,98.2 74,98.3 74.3,98.3 		"/>
		<polygon class="st10" points="66.3,119.5 66.3,136.3 66.3,138.4 73.9,141.6 73.9,119.5 		"/>
		<polygon class="st7" points="73.9,119.5 73.9,98.4 66.3,101.6 66.3,103.5 66.3,119.5 		"/>
		<rect x="62.7" y="119.5" class="st8" width="3.6" height="16.7"/>
		<rect x="62.7" y="103.5" class="st9" width="3.6" height="16"/>
	</g>
	<rect x="175.5" y="98.3" class="st13" width="4.8" height="21.2"/>
	<rect x="175.5" y="119.5" class="st16" width="4.8" height="22.4"/>
</g>
<path class="st4" d="M265.1,98.2h-1.3c-1,0-1.9-0.8-1.9-1.9v0c0-1,0.8-1.9,1.9-1.9h1.3c1,0,1.9,0.8,1.9,1.9v0
	C267,97.3,266.2,98.2,265.1,98.2z"/>
</svg>
