<?xml version="1.0" encoding="utf-8"?>
<!-- Generator: Adobe Illustrator 21.0.0, SVG Export Plug-In . SVG Version: 6.00 Build 0)  -->
<svg version="1.1" id="Layer_1" xmlns="http://www.w3.org/2000/svg" xmlns:xlink="http://www.w3.org/1999/xlink" x="0px" y="0px"
	 viewBox="0 0 412 406.3" style="enable-background:new 0 0 412 406.3;" xml:space="preserve">
<path fill="#FFFFFF" d="M412,203.1c0,11.8-12.9,22.4-14.9,33.7c-2,11.6,6.5,25.9,2.5,36.8c-4,11-19.8,16.5-25.6,26.5
	c-5.8,10.1-2.8,26.5-10.2,35.4c-7.5,8.9-24.2,8.7-33.1,16.2c-8.9,7.5-11.6,24-21.7,29.8c-10,5.8-25.6-0.1-36.6,3.9
	c-10.8,3.9-19,18.5-30.6,20.6c-11.3,2-23.9-8.9-35.8-8.9c-11.8,0-24.5,10.9-35.8,8.9c-11.6-2-19.8-16.6-30.6-20.6
	c-11-4-26.6,1.9-36.6-3.9c-10.1-5.8-12.8-22.3-21.7-29.8c-8.9-7.5-25.6-7.3-33.1-16.2c-7.5-8.9-4.4-25.3-10.2-35.4
	c-5.8-10-21.6-15.5-25.6-26.5c-3.9-10.8,4.6-25.2,2.5-36.8C12.9,225.6,0,215,0,203.1c0-11.8,12.9-22.4,14.9-33.7
	c2-11.6-6.5-25.9-2.5-36.8c4-11,19.8-16.5,25.6-26.5c5.8-10.1,2.8-26.5,10.2-35.4c7.5-8.9,24.2-8.7,33.1-16.2
	c8.9-7.5,11.6-24,21.7-29.8c10-5.8,25.6,0.1,36.6-3.9c10.8-3.9,19-18.5,30.6-20.6c11.3-2,23.9,8.9,35.8,8.9
	c11.8,0,24.5-10.9,35.8-8.9c11.6,2,19.8,16.6,30.6,20.6c11,4,26.6-1.9,36.6,3.9c10.1,5.8,12.8,22.3,21.7,29.8
	c8.9,7.5,25.6,7.3,33.1,16.2c7.5,8.9,4.4,25.3,10.2,35.4c5.8,10,21.6,15.5,25.6,26.5c3.9,10.8-4.6,25.2-2.5,36.8
	C399.1,180.7,412,191.3,412,203.1z"/>
</svg>
