<svg xmlns="http://www.w3.org/2000/svg" viewBox="0 0 412 406.3">
  <path d="M412 203.1c0 11.8-12.9 22.4-14.9 33.7-2 11.6 6.5 25.9 2.5 36.8-4 11-19.8 16.5-25.6 26.5-5.8 10.1-2.8 26.5-10.2 35.4-7.5 8.9-24.2 8.7-33.1 16.2-8.9 7.5-11.6 24-21.7 29.8-10 5.8-25.6-.1-36.6 3.9-10.8 3.9-19 18.5-30.6 20.6-11.3 2-23.9-8.9-35.8-8.9-11.8 0-24.5 10.9-35.8 8.9-11.6-2-19.8-16.6-30.6-20.6-11-4-26.6 1.9-36.6-3.9-10.1-5.8-12.8-22.3-21.7-29.8-8.9-7.5-25.6-7.3-33.1-16.2-7.5-8.9-4.4-25.3-10.2-35.4-5.8-10-21.6-15.5-25.6-26.5-3.9-10.8 4.6-25.2 2.5-36.8C12.9 225.6 0 215 0 203.1c0-11.8 12.9-22.4 14.9-33.7 2-11.6-6.5-25.9-2.5-36.8 4-11 19.8-16.5 25.6-26.5 5.8-10.1 2.8-26.5 10.2-35.4 7.5-8.9 24.2-8.7 33.1-16.2 8.9-7.5 11.6-24 21.7-29.8 10-5.8 25.6.1 36.6-3.9 10.8-3.9 19-18.5 30.6-20.6 11.3-2 23.9 8.9 35.8 8.9 11.8 0 24.5-10.9 35.8-8.9 11.6 2 19.8 16.6 30.6 20.6 11 4 26.6-1.9 36.6 3.9 10.1 5.8 12.8 22.3 21.7 29.8 8.9 7.5 25.6 7.3 33.1 16.2 7.5 8.9 4.4 25.3 10.2 35.4 5.8 10 21.6 15.5 25.6 26.5 3.9 10.8-4.6 25.2-2.5 36.8 2 11.3 14.9 21.9 14.9 33.7z"/>
</svg>