<?xml version="1.0" encoding="utf-8"?>
<!-- Generator: Adobe Illustrator 21.0.0, SVG Export Plug-In . SVG Version: 6.00 Build 0)  -->
<svg version="1.1" xmlns="http://www.w3.org/2000/svg" xmlns:xlink="http://www.w3.org/1999/xlink" x="0px" y="0px"
	 viewBox="0 0 1000 1000" style="enable-background:new 0 0 1000 1000;" xml:space="preserve">
<style type="text/css">
	.st0{fill:#FF417B;}
	.st1{fill:#D83075;}
	.st2{fill:#B2306E;}
	.st3{fill:#FF6E6E;}
	.st4{fill:#FFB985;}
	.st5{display:none;}
	.st6{display:inline;}
	.st7{fill:#AD1F48;}
	.st8{display:inline;fill:#EA786A;}
	.st9{fill:#EA786A;}
	.st10{display:inline;fill:#EDD48E;}
	.st11{fill:#EDD48E;}
</style>
<g id="planet">
	<g>
		<ellipse transform="matrix(0.7071 -0.7071 0.7071 0.7071 -207.1068 500)" class="st0" cx="500" cy="500" rx="500" ry="500"/>
	</g>
	<g>
		<path class="st1" d="M853.6,853.6c195.3-195.3,195.3-511.8,0-707.1c-31-31-65-57.1-101.2-78.2c-3.4,2.8-8.2,3.6-12.6,1.8l-19.4-8
			c-6.4-2.6-13.7,0.4-16.3,6.8c-2.6,6.4,0.4,13.7,6.8,16.3l68.4,28.3c6.4,2.6,9.4,10,6.8,16.3c-2.6,6.4-10,9.4-16.3,6.8L716,114.3
			c-6.4-2.6-13.7,0.4-16.3,6.8c-2.6,6.4,0.4,13.7,6.8,16.3L761,160c6.4,2.6,9.4,10,6.8,16.3c-2.6,6.4-10,9.4-16.3,6.8l-59.1-24.5
			c-6.4-2.6-13.7,0.4-16.3,6.8c-2.6,6.4,0.4,13.7,6.8,16.3l134.4,55.7c6.4,2.6,9.4,10,6.8,16.3c-2.6,6.4-10,9.4-16.3,6.8l-67.9-28.1
			c-6.4-2.6-13.7,0.4-16.3,6.8c-2.6,6.4,0.4,13.7,6.8,16.3l108.1,44.8c6.4,2.6,9.4,10,6.8,16.3c-2.6,6.4-10,9.4-16.3,6.8l-49.9-20.7
			c-6.4-2.6-13.7,0.4-16.3,6.8c-2.6,6.4,0.4,13.7,6.8,16.3l63.7,26.4c6.4,2.6,9.4,10,6.8,16.3c-2.6,6.4-10,9.4-16.3,6.8L730,336.6
			c-6.4-2.6-13.7,0.4-16.3,6.8c-2.6,6.4,0.4,13.7,6.8,16.3l118.3,49c6.4,2.6,9.4,10,6.8,16.3c-2.6,6.4-10,9.4-16.3,6.8l-128.9-53.4
			c-6.4-2.6-13.7,0.4-16.3,6.8c-2.6,6.4,0.4,13.7,6.8,16.3l115,47.6c6.4,2.6,9.4,10,6.8,16.3c-2.6,6.4-10,9.4-16.3,6.8L726,443.1
			c-6.4-2.6-13.7,0.4-16.3,6.8c-2.6,6.4,0.4,13.7,6.8,16.3l84.1,34.8c6.4,2.6,9.4,10,6.8,16.3s-10,9.4-16.3,6.8l-111.8-46.3
			c-6.4-2.6-13.7,0.4-16.3,6.8c-2.6,6.4,0.4,13.7,6.8,16.3l160.8,66.6c6.4,2.6,9.4,10,6.8,16.3c-2.6,6.4-10,9.4-16.3,6.8L715.4,547
			c-6.4-2.6-13.7,0.4-16.3,6.8c-2.6,6.4,0.4,13.7,6.8,16.3l48,19.9c6.4,2.6,9.4,10,6.8,16.3c-2.6,6.4-10,9.4-16.3,6.8l-155.7-64.5
			c-6.4-2.6-13.7,0.4-16.3,6.8c-2.6,6.4,0.4,13.7,6.8,16.3l164,67.9c6.4,2.6,9.4,10,6.8,16.3c-2.6,6.4-10,9.4-16.3,6.8l-122-50.5
			c-6.4-2.6-13.7,0.4-16.3,6.8c-2.6,6.4,0.4,13.7,6.8,16.3l97.9,40.6c6.4,2.6,9.4,10,6.8,16.3c-2.6,6.4-10,9.4-16.3,6.8l-73-30.2
			c-6.4-2.6-13.7,0.4-16.3,6.8c-2.6,6.4,0.4,13.7,6.8,16.3l64.7,26.8c6.4,2.6,9.4,10,6.8,16.3c-2.6,6.4-10,9.4-16.3,6.8l-97-40.2
			c-6.4-2.6-13.7,0.4-16.3,6.8c-2.6,6.4,0.4,13.7,6.8,16.3l65.6,27.2c6.4,2.6,9.4,10,6.8,16.3c-2.6,6.4-10,9.4-16.3,6.8l-106.2-44
			c-6.4-2.6-13.7,0.4-16.3,6.8c-2.6,6.4,0.4,13.7,6.8,16.3l137.7,57c6.4,2.6,9.4,10,6.8,16.3c-2.6,6.4-10,9.4-16.3,6.8l-97.5-40.4
			c-6.4-2.6-13.7,0.4-16.3,6.8s0.4,13.7,6.8,16.3l40.2,16.6c6.4,2.6,9.4,10,6.8,16.3c-2.6,6.4-10,9.4-16.3,6.8l-101.6-42.1
			c-6.4-2.6-13.7,0.4-16.3,6.8s0.4,13.7,6.8,16.3l94.2,39c6.4,2.6,9.4,10,6.8,16.3c-2.6,6.4-10,9.4-16.3,6.8l-80.4-33.3
			c-6.4-2.6-13.7,0.4-16.3,6.8c-2.6,6.4,0.4,13.7,6.8,16.3l66.5,27.6c6.4,2.6,9.4,10,6.8,16.3c-2.6,6.4-10,9.4-16.3,6.8l-95.2-39.4
			c-6.4-2.6-13.7,0.4-16.3,6.8s0.4,13.7,6.8,16.3l85,35.2c6.4,2.6,9.4,10,6.8,16.3c-2.6,6.4-10,9.4-16.3,6.8l-112.7-46.7
			c-6.4-2.6-13.7,0.4-16.3,6.8c-2.6,6.4,0.4,13.7,6.8,16.3l30.5,12.6c5.3,2.2,8.3,7.6,7.6,13.1
			C540.8,1026.8,723.9,983.2,853.6,853.6z"/>
	</g>
	<g>
		<path class="st2" d="M853.6,853.6c189.3-189.3,195.1-492.5,17.5-688.7c0,0,0,0.1-0.1,0.1c-2.6,6.4-10,9.4-16.3,6.8l-29.6-12.2
			c-6.4-2.6-13.7,0.4-16.3,6.8c-2.6,6.4,0.4,13.7,6.8,16.3l83.1,34.4c6.4,2.6,9.4,10,6.8,16.3c-2.6,6.4-10,9.4-16.3,6.8l-7.4-3.1
			c-6.4-2.6-13.7,0.4-16.3,6.8c-2.6,6.4,0.4,13.7,6.8,16.3l70.7,29.3c6.4,2.6,9.4,10,6.8,16.3c-2.6,6.4-10,9.4-16.3,6.8l-20.8-8.6
			c-6.4-2.6-13.7,0.4-16.3,6.8c-2.6,6.4,0.4,13.7,6.8,16.3l60.1,24.9c6.4,2.6,9.4,10,6.8,16.3c-2.6,6.4-10,9.4-16.3,6.8L909,356.6
			c-6.4-2.6-13.7,0.4-16.3,6.8c-2.6,6.4,0.4,13.7,6.8,16.3l70.2,29.1c6.4,2.6,9.4,10,6.8,16.3c-2.6,6.4-10,9.4-16.3,6.8l-6.5-2.7
			c-6.4-2.6-13.7,0.4-16.3,6.8c-2.6,6.4,0.4,13.7,6.8,16.3l6.5,2.7c6.4,2.6,9.4,10,6.8,16.3c-2.6,6.4-10,9.4-16.3,6.8l-35.6-14.7
			c-6.4-2.6-13.7,0.4-16.3,6.8c-2.6,6.4,0.4,13.7,6.8,16.3l50.4,20.9c6.4,2.6,9.4,10,6.8,16.3c-2.6,6.4-10,9.4-16.3,6.8L872.9,504
			c-6.4-2.6-13.7,0.4-16.3,6.8c-2.6,6.4,0.4,13.7,6.8,16.3l82.2,34.1c6.4,2.6,9.4,10,6.8,16.3c-2.6,6.4-10,9.4-16.3,6.8l-36-14.9
			c-6.4-2.6-13.7,0.4-16.3,6.8c-2.6,6.4,0.4,13.7,6.8,16.3l53.6,22.2c6.4,2.6,9.4,10,6.8,16.3s-10,9.4-16.3,6.8l-27.7-11.5
			c-6.4-2.6-13.7,0.4-16.3,6.8c-2.6,6.4,0.4,13.7,6.8,16.3l22.2,9.2c6.4,2.6,9.4,10,6.8,16.3c-2.6,6.4-10,9.4-16.3,6.8l-93.8-38.8
			c-6.4-2.6-13.7,0.4-16.3,6.8c-2.6,6.4,0.4,13.7,6.8,16.3l103.9,43.1c6.4,2.6,9.4,10,6.8,16.3c-2.6,6.4-10,9.4-16.3,6.8l-73.9-30.6
			c-6.4-2.6-13.7,0.4-16.3,6.8c-2.6,6.4,0.4,13.7,6.8,16.3l62.8,26c6.4,2.6,9.4,10,6.8,16.3c-2.6,6.4-10,9.4-16.3,6.8l-114.6-47.5
			c-6.4-2.6-13.7,0.4-16.3,6.8c-2.6,6.4,0.4,13.7,6.8,16.3l75.8,31.4c6.4,2.6,9.4,10,6.8,16.3c-2.6,6.4-10,9.4-16.3,6.8l-49-20.3
			c-6.4-2.6-13.7,0.4-16.3,6.8c-2.6,6.4,0.4,13.7,6.8,16.3l42.5,17.6c6.4,2.6,9.4,10,6.8,16.3c-2.6,6.4-10,9.4-16.3,6.8l-83.1-34.4
			c-6.4-2.6-13.7,0.4-16.3,6.8c-2.6,6.4,0.4,13.7,6.8,16.3l46.2,19.1c6.4,2.6,9.4,10,6.8,16.3c-2.6,6.4-10,9.4-16.3,6.8l-42-17.4
			c-6.4-2.6-13.7,0.4-16.3,6.8s0.4,13.7,6.8,16.3l20.8,8.6c6.4,2.6,9.4,10,6.8,16.3c-2.6,6.4-10,9.4-16.3,6.8l-65.6-27.2
			c-6.4-2.6-13.7,0.4-16.3,6.8c-2.6,6.4,0.4,13.7,6.8,16.3l35.1,14.5c6.4,2.6,9.4,10,6.8,16.3c-2.6,6.4-10,9.4-16.3,6.8l-62.8-26
			c-6.4-2.6-13.7,0.4-16.3,6.8c-2.6,6.4,0.4,13.7,6.8,16.3l29.6,12.2c6.4,2.6,9.4,10,6.8,16.3c-2.6,6.4-10,9.4-16.3,6.8L521,953.6
			c-6.4-2.6-13.7,0.4-16.3,6.8s0.4,13.7,6.8,16.3l11.1,4.6c6.4,2.6,9.4,10,6.8,16.3c-0.2,0.5-0.4,1-0.5,1.6
			C647,992.4,763.2,943.9,853.6,853.6z"/>
	</g>
	<g>
		<path class="st3" d="M146.4,146.4c-195.3,195.3-195.3,511.8,0,707.1c31.4,31.4,66,57.8,102.7,79.1c3.3-4.7,9.5-6.6,15-4.3
			l15.7,6.5c6.4,2.6,13.7-0.4,16.3-6.8c2.6-6.4-0.4-13.7-6.8-16.3l-59.1-24.5c-6.4-2.6-9.4-10-6.8-16.3c2.6-6.4,10-9.4,16.3-6.8
			l31.4,13c6.4,2.6,13.7-0.4,16.3-6.8s-0.4-13.7-6.8-16.3l-35.1-14.5c-6.4-2.6-9.4-10-6.8-16.3s10-9.4,16.3-6.8l39.7,16.5
			c6.4,2.6,13.7-0.4,16.3-6.8s-0.4-13.7-6.8-16.3l-106.7-44.2c-6.4-2.6-9.4-10-6.8-16.3c2.6-6.4,10-9.4,16.3-6.8l40.2,16.6
			c6.4,2.6,13.7-0.4,16.3-6.8c2.6-6.4-0.4-13.7-6.8-16.3l-90.5-37.5c-6.4-2.6-9.4-10-6.8-16.3c2.6-6.4,10-9.4,16.3-6.8l32.3,13.4
			c6.4,2.6,13.7-0.4,16.3-6.8c2.6-6.4-0.4-13.7-6.8-16.3l-32.3-13.4c-6.4-2.6-9.4-10-6.8-16.3s10-9.4,16.3-6.8l61.9,25.6
			c6.4,2.6,13.7-0.4,16.3-6.8s-0.4-13.7-6.8-16.3l-83.1-34.4c-6.4-2.6-9.4-10-6.8-16.3s10-9.4,16.3-6.8l93.8,38.8
			c6.4,2.6,13.7-0.4,16.3-6.8s-0.4-13.7-6.8-16.3l-91-37.7c-6.4-2.6-9.4-10-6.8-16.3c2.6-6.4,10-9.4,16.3-6.8l46.2,19.1
			c6.4,2.6,13.7-0.4,16.3-6.8s-0.4-13.7-6.8-16.3l-45.3-18.8c-6.4-2.6-9.4-10-6.8-16.3c2.6-6.4,10-9.4,16.3-6.8l73,30.2
			c6.4,2.6,13.7-0.4,16.3-6.8s-0.4-13.7-6.8-16.3l-121-50.1c-6.4-2.6-9.4-10-6.8-16.3c2.6-6.4,10-9.4,16.3-6.8l65.6,27.2
			c6.4,2.6,13.7-0.4,16.3-6.8s-0.4-13.7-6.8-16.3l-22.2-9.2c-6.4-2.6-9.4-10-6.8-16.3c2.6-6.4,10-9.4,16.3-6.8l49.4,20.5
			c6.4,2.6,13.7-0.4,16.3-6.8s-0.4-13.7-6.8-16.3l-43-17.8c-6.4-2.6-9.4-10-6.8-16.3c2.6-6.4,10-9.4,16.3-6.8l104.4,43.2
			c6.4,2.6,13.7-0.4,16.3-6.8c2.6-6.4-0.4-13.7-6.8-16.3L319.7,329c-6.4-2.6-9.4-10-6.8-16.3s10-9.4,16.3-6.8l40.7,16.8
			c6.4,2.6,13.7-0.4,16.3-6.8s-0.4-13.7-6.8-16.3l-37-15.3c-6.4-2.6-9.4-10-6.8-16.3s10-9.4,16.3-6.8l69.3,28.7
			c6.4,2.6,13.7-0.4,16.3-6.8s-0.4-13.7-6.8-16.3l-59.1-24.5c-6.4-2.6-9.4-10-6.8-16.3c2.6-6.4,10-9.4,16.3-6.8l99.8,41.3
			c6.4,2.6,13.7-0.4,16.3-6.8c2.6-6.4-0.4-13.7-6.8-16.3l-104.4-43.2c-6.4-2.6-9.4-10-6.8-16.3c2.6-6.4,10-9.4,16.3-6.8l64.2,26.6
			c6.4,2.6,13.7-0.4,16.3-6.8c2.6-6.4-0.4-13.7-6.8-16.3l-22.6-9.4c-6.4-2.6-9.4-10-6.8-16.3s10-9.4,16.3-6.8l74.8,31
			c6.4,2.6,13.7-0.4,16.3-6.8c2.6-6.4-0.4-13.7-6.8-16.3l-49-20.3c-6.4-2.6-9.4-10-6.8-16.3c2.6-6.4,10-9.4,16.3-6.8l44.3,18.4
			c6.4,2.6,13.7-0.4,16.3-6.8c2.6-6.4-0.4-13.7-6.8-16.3l-24-9.9c-6.4-2.6-9.4-10-6.8-16.3c2.6-6.4,10-9.4,16.3-6.8l78.5,32.5
			c6.4,2.6,13.7-0.4,16.3-6.8c2.6-6.4-0.4-13.7-6.8-16.3l-78.5-32.5c-6.4-2.6-9.4-10-6.8-16.3c2.6-6.4,10-9.4,16.3-6.8l100.7,41.7
			c6.4,2.6,13.7-0.4,16.3-6.8c2.6-6.4-0.4-13.7-6.8-16.3l-8.3-3.4c-5.4-2.3-8.4-7.9-7.6-13.5C481.6-31.7,283.9,9,146.4,146.4z"/>
	</g>
	<g>
		<path class="st4" d="M146.4,146.4c-188.7,188.7-195,490.6-19.1,686.9c0.4-0.6,0.7-1.2,1-1.9c2.6-6.4,10-9.4,16.3-6.8l31.4,13
			c6.4,2.6,13.7-0.4,16.3-6.8c2.6-6.4-0.4-13.7-6.8-16.3l-77.6-32.1c-6.4-2.6-9.4-10-6.8-16.3c2.6-6.4,10-9.4,16.3-6.8l13.9,5.7
			c6.4,2.6,13.7-0.4,16.3-6.8c2.6-6.4-0.4-13.7-6.8-16.3l-55.9-23.2c-6.4-2.6-9.4-10-6.8-16.3c2.6-6.4,10-9.4,16.3-6.8l7.9,3.3
			c6.4,2.6,13.7-0.4,16.3-6.8c2.6-6.4-0.4-13.7-6.8-16.3l-40.7-16.8c-6.4-2.6-9.4-10-6.8-16.3c2.6-6.4,10-9.4,16.3-6.8l44.3,18.4
			c6.4,2.6,13.7-0.4,16.3-6.8c2.6-6.4-0.4-13.7-6.8-16.3l-70.2-29.1c-6.4-2.6-9.4-10-6.8-16.3c2.6-6.4,10-9.4,16.3-6.8l6.5,2.7
			c6.4,2.6,13.7-0.4,16.3-6.8c2.6-6.4-0.4-13.7-6.8-16.3l-6.5-2.7c-6.4-2.6-9.4-10-6.8-16.3c2.6-6.4,10-9.4,16.3-6.8l35.6,14.7
			c6.4,2.6,13.7-0.4,16.3-6.8c2.6-6.4-0.4-13.7-6.8-16.3l-50.4-20.9c-6.4-2.6-9.4-10-6.8-16.3c2.6-6.4,10-9.4,16.3-6.8l63.7,26.4
			c6.4,2.6,13.7-0.4,16.3-6.8c2.6-6.4-0.4-13.7-6.8-16.3l-82.2-34.1c-6.4-2.6-9.4-10-6.8-16.3c2.6-6.4,10-9.4,16.3-6.8l36,14.9
			c6.4,2.6,13.7-0.4,16.3-6.8c2.6-6.4-0.4-13.7-6.8-16.3l-53.6-22.2c-6.4-2.6-9.4-10-6.8-16.3c2.6-6.4,10-9.4,16.3-6.8l27.7,11.5
			c6.4,2.6,13.7-0.4,16.3-6.8c2.6-6.4-0.4-13.7-6.8-16.3l-22.2-9.2c-6.4-2.6-9.4-10-6.8-16.3c2.6-6.4,10-9.4,16.3-6.8l93.8,38.8
			c6.4,2.6,13.7-0.4,16.3-6.8c2.6-6.4-0.4-13.7-6.8-16.3l-103.9-43.1c-6.4-2.6-9.4-10-6.8-16.3c2.6-6.4,10-9.4,16.3-6.8l73.9,30.6
			c6.4,2.6,13.7-0.4,16.3-6.8c2.6-6.4-0.4-13.7-6.8-16.3l-62.8-26c-6.4-2.6-9.4-10-6.8-16.3c2.6-6.4,10-9.4,16.3-6.8l114.6,47.5
			c6.4,2.6,13.7-0.4,16.3-6.8c2.6-6.4-0.4-13.7-6.8-16.3l-75.8-31.4c-6.4-2.6-9.4-10-6.8-16.3c2.6-6.4,10-9.4,16.3-6.8l49,20.3
			c6.4,2.6,13.7-0.4,16.3-6.8c2.6-6.4-0.4-13.7-6.8-16.3l-42.5-17.6c-6.4-2.6-9.4-10-6.8-16.3s10-9.4,16.3-6.8l83.1,34.4
			c6.4,2.6,13.7-0.4,16.3-6.8s-0.4-13.7-6.8-16.3L294,156c-6.4-2.6-9.4-10-6.8-16.3s10-9.4,16.3-6.8l42,17.4
			c6.4,2.6,13.7-0.4,16.3-6.8c2.6-6.4-0.4-13.7-6.8-16.3l-20.8-8.6c-6.4-2.6-9.4-10-6.8-16.3s10-9.4,16.3-6.8l65.6,27.2
			c6.4,2.6,13.7-0.4,16.3-6.8c2.6-6.4-0.4-13.7-6.8-16.3L384,85c-6.4-2.6-9.4-10-6.8-16.3s10-9.4,16.3-6.8l62.8,26
			c6.4,2.6,13.7-0.4,16.3-6.8c2.6-6.4-0.4-13.7-6.8-16.3l-29.6-12.2c-6.4-2.6-9.4-10-6.8-16.3c2.6-6.4,10-9.4,16.3-6.8L493.1,49
			c6.4,2.6,13.7-0.4,16.3-6.8c2.6-6.4-0.4-13.7-6.8-16.3l-15.7-6.5c-6.4-2.6-9.4-10-6.8-16.3c0.4-0.9,0.6-1.8,0.8-2.7
			C359.4,5,239.2,53.7,146.4,146.4z"/>
	</g>
</g>
<g id="Layer_2" class="st5">
	<g>
		<g class="st6">
			<rect x="622.5" y="36" class="st1" width="500" height="25"/>
		</g>
		<g class="st6">
			<g>
				<rect x="539.5" y="61" class="st1" width="500" height="25"/>
			</g>
		</g>
		<g class="st6">
			<rect x="623.5" y="86" class="st1" width="500" height="25"/>
		</g>
		<g class="st6">
			<rect x="534.5" y="111" class="st1" width="500" height="25"/>
		</g>
		<g class="st6">
			<rect x="705" y="136" class="st1" width="500" height="25"/>
		</g>
		<g class="st6">
			<rect x="606.5" y="161" class="st1" width="500" height="25"/>
		</g>
		<g class="st6">
			<rect x="748.5" y="186" class="st1" width="500" height="25"/>
		</g>
		<g class="st6">
			<rect x="669.5" y="211" class="st1" width="500" height="25"/>
		</g>
		<g class="st6">
			<rect x="763.5" y="236" class="st1" width="500" height="25"/>
		</g>
		<g class="st6">
			<rect x="637.5" y="261" class="st1" width="500" height="25"/>
		</g>
		<g class="st6">
			<rect x="790.5" y="286" class="st1" width="500" height="25"/>
		</g>
		<g class="st6">
			<rect x="626" y="311" class="st1" width="500" height="25"/>
		</g>
		<g class="st6">
			<rect x="775.5" y="336" class="st1" width="500" height="25"/>
		</g>
		<g class="st6">
			<rect x="790.5" y="386" class="st1" width="500" height="25"/>
		</g>
		<g class="st6">
			<rect x="644.5" y="411" class="st1" width="500" height="25"/>
		</g>
		<g class="st6">
			<rect x="843.5" y="436" class="st1" width="500" height="25"/>
		</g>
		<g class="st6">
			<rect x="704.5" y="461" class="st1" width="500" height="25"/>
		</g>
		<g class="st6">
			<rect x="781.5" y="486" class="st1" width="500" height="25"/>
		</g>
		<g class="st6">
			<rect x="588" y="511" class="st1" width="500" height="25"/>
		</g>
		<g class="st6">
			<rect x="790.5" y="536" class="st1" width="500" height="25"/>
		</g>
		<g class="st6">
			<rect x="633.5" y="561" class="st1" width="500" height="25"/>
		</g>
		<g class="st6">
			<rect x="764.5" y="586" class="st1" width="500" height="25"/>
		</g>
		<g class="st6">
			<rect x="660.5" y="611" class="st1" width="500" height="25"/>
		</g>
		<g class="st6">
			<rect x="755.5" y="636" class="st1" width="500" height="25"/>
		</g>
		<g class="st6">
			<rect x="625.5" y="661" class="st1" width="500" height="25"/>
		</g>
		<g class="st6">
			<rect x="721.5" y="686" class="st1" width="500" height="25"/>
		</g>
		<g class="st6">
			<rect x="581.5" y="711" class="st1" width="500" height="25"/>
		</g>
		<g class="st6">
			<rect x="755.5" y="736" class="st1" width="500" height="25"/>
		</g>
		<g class="st6">
			<rect x="625" y="761" class="st1" width="500" height="25"/>
		</g>
		<g class="st6">
			<rect x="693.5" y="786" class="st1" width="500" height="25"/>
		</g>
		<g class="st6">
			<rect x="558.5" y="811" class="st1" width="500" height="25"/>
		</g>
		<g class="st6">
			<rect x="685.5" y="836" class="st1" width="500" height="25"/>
		</g>
		<g class="st6">
			<rect x="573.5" y="861" class="st1" width="500" height="25"/>
		</g>
		<g class="st6">
			<rect x="670.5" y="886" class="st1" width="500" height="25"/>
		</g>
		<g class="st6">
			<rect x="542.5" y="911" class="st1" width="500" height="25"/>
		</g>
		<g class="st6">
			<rect x="659.5" y="936" class="st1" width="500" height="25"/>
		</g>
		<g class="st6">
			<rect x="512.5" y="961" class="st1" width="500" height="25"/>
		</g>
		<g class="st6">
			<rect x="570.5" y="986" class="st1" width="500" height="25"/>
		</g>
		<g class="st6">
			<rect x="523.5" y="11" class="st1" width="500" height="25"/>
		</g>
		<g class="st6">
			<rect x="569.5" y="-14" class="st1" width="500" height="25"/>
		</g>
		<g class="st6">
			<rect x="674.5" y="361" class="st1" width="500" height="25"/>
		</g>
	</g>
	<g>
		<g class="st6">
			<rect x="714.5" y="36" class="st7" width="500" height="25"/>
		</g>
		<g class="st6">
			<g>
				<rect x="657.5" y="61" class="st7" width="500" height="25"/>
			</g>
		</g>
		<g class="st6">
			<rect x="772.5" y="86" class="st7" width="500" height="25"/>
		</g>
		<g class="st6">
			<rect x="739.5" y="111" class="st7" width="500" height="25"/>
		</g>
		<g class="st6">
			<rect x="841" y="136" class="st7" width="500" height="25"/>
		</g>
		<g class="st6">
			<rect x="793.5" y="161" class="st7" width="500" height="25"/>
		</g>
		<g class="st6">
			<rect x="883.5" y="186" class="st7" width="500" height="25"/>
		</g>
		<g class="st6">
			<rect x="810.5" y="211" class="st7" width="500" height="25"/>
		</g>
		<g class="st6">
			<rect x="911.5" y="236" class="st7" width="500" height="25"/>
		</g>
		<g class="st6">
			<rect x="879.5" y="261" class="st7" width="500" height="25"/>
		</g>
		<g class="st6">
			<rect x="911.5" y="286" class="st7" width="500" height="25"/>
		</g>
		<g class="st6">
			<rect x="848" y="311" class="st7" width="500" height="25"/>
		</g>
		<g class="st6">
			<rect x="927.5" y="336" class="st7" width="500" height="25"/>
		</g>
		<g class="st6">
			<rect x="833.5" y="361" class="st7" width="500" height="25"/>
		</g>
		<g class="st6">
			<rect x="947.5" y="386" class="st7" width="500" height="25"/>
		</g>
		<g class="st6">
			<rect x="883.5" y="411" class="st7" width="500" height="25"/>
		</g>
		<g class="st6">
			<rect x="966.5" y="436" class="st7" width="500" height="25"/>
		</g>
		<g class="st6">
			<rect x="911.5" y="461" class="st7" width="500" height="25"/>
		</g>
		<g class="st6">
			<rect x="960.5" y="486" class="st7" width="500" height="25"/>
		</g>
		<g class="st6">
			<rect x="834" y="511" class="st7" width="500" height="25"/>
		</g>
		<g class="st6">
			<rect x="971.5" y="536" class="st7" width="500" height="25"/>
		</g>
		<g class="st6">
			<rect x="866.5" y="561" class="st7" width="500" height="25"/>
		</g>
		<g class="st6">
			<rect x="959.5" y="586" class="st7" width="500" height="25"/>
		</g>
		<g class="st6">
			<rect x="810.5" y="611" class="st7" width="500" height="25"/>
		</g>
		<g class="st6">
			<rect x="917.5" y="636" class="st7" width="500" height="25"/>
		</g>
		<g class="st6">
			<rect x="839.5" y="661" class="st7" width="500" height="25"/>
		</g>
		<g class="st6">
			<rect x="910.5" y="686" class="st7" width="500" height="25"/>
		</g>
		<g class="st6">
			<rect x="795.5" y="711" class="st7" width="500" height="25"/>
		</g>
		<g class="st6">
			<rect x="870.5" y="736" class="st7" width="500" height="25"/>
		</g>
		<g class="st6">
			<rect x="800" y="761" class="st7" width="500" height="25"/>
		</g>
		<g class="st6">
			<rect x="847.5" y="786" class="st7" width="500" height="25"/>
		</g>
		<g class="st6">
			<rect x="751.5" y="811" class="st7" width="500" height="25"/>
		</g>
		<g class="st6">
			<rect x="814.5" y="836" class="st7" width="500" height="25"/>
		</g>
		<g class="st6">
			<rect x="721.5" y="861" class="st7" width="500" height="25"/>
		</g>
		<g class="st6">
			<rect x="778.5" y="886" class="st7" width="500" height="25"/>
		</g>
		<g class="st6">
			<rect x="680.5" y="911" class="st7" width="500" height="25"/>
		</g>
		<g class="st6">
			<rect x="717.5" y="936" class="st7" width="500" height="25"/>
		</g>
	</g>
	<g>
		<rect x="-113.5" y="936" class="st8" width="500" height="25"/>
		<g class="st6">
			<rect x="-54.5" y="911" class="st9" width="500" height="25"/>
		</g>
		<rect x="-117.5" y="886" class="st8" width="500" height="25"/>
		<rect x="-49.5" y="861" class="st8" width="500" height="25"/>
		<rect x="-190" y="836" class="st8" width="500" height="25"/>
		<rect x="-121.5" y="811" class="st8" width="500" height="25"/>
		<rect x="-244.5" y="786" class="st8" width="500" height="25"/>
		<rect x="-184.5" y="761" class="st8" width="500" height="25"/>
		<rect x="-244.5" y="736" class="st8" width="500" height="25"/>
		<rect x="-152.5" y="711" class="st8" width="500" height="25"/>
		<rect x="-267.5" y="686" class="st8" width="500" height="25"/>
		<rect x="-141" y="661" class="st8" width="500" height="25"/>
		<rect x="-264.5" y="636" class="st8" width="500" height="25"/>
		<rect x="-263.5" y="586" class="st8" width="500" height="25"/>
		<rect x="-159.5" y="561" class="st8" width="500" height="25"/>
		<rect x="-315.5" y="536" class="st8" width="500" height="25"/>
		<rect x="-219.5" y="511" class="st8" width="500" height="25"/>
		<rect x="-268.5" y="486" class="st8" width="500" height="25"/>
		<rect x="-190" y="461" class="st8" width="500" height="25"/>
		<rect x="-261.5" y="436" class="st8" width="500" height="25"/>
		<rect x="-123.5" y="411" class="st8" width="500" height="25"/>
		<rect x="-244.5" y="386" class="st8" width="500" height="25"/>
		<rect x="-175.5" y="361" class="st8" width="500" height="25"/>
		<rect x="-240.5" y="336" class="st8" width="500" height="25"/>
		<rect x="-140.5" y="311" class="st8" width="500" height="25"/>
		<rect x="-229.5" y="286" class="st8" width="500" height="25"/>
		<rect x="-96.5" y="261" class="st8" width="500" height="25"/>
		<rect x="-234.5" y="236" class="st8" width="500" height="25"/>
		<rect x="-140" y="211" class="st8" width="500" height="25"/>
		<rect x="-189.5" y="186" class="st8" width="500" height="25"/>
		<rect x="-83.5" y="161" class="st8" width="500" height="25"/>
		<rect x="-161.5" y="136" class="st8" width="500" height="25"/>
		<rect x="-88.5" y="111" class="st8" width="500" height="25"/>
		<rect x="-139.5" y="86" class="st8" width="500" height="25"/>
		<rect x="-29.5" y="61" class="st8" width="500" height="25"/>
		<rect x="-139.5" y="36" class="st8" width="500" height="25"/>
		<rect x="-5.5" y="11" class="st8" width="500" height="25"/>
		<rect x="-39.5" y="-14" class="st8" width="500" height="25"/>
		<rect x="-24.5" y="961" class="st8" width="500" height="25"/>
		<rect x="-66.5" y="986" class="st8" width="500" height="25"/>
		<rect x="-189.5" y="611" class="st8" width="500" height="25"/>
	</g>
	<g>
		<rect x="-216.5" y="936" class="st10" width="500" height="25"/>
		<g class="st6">
			<rect x="-157.5" y="911" class="st11" width="500" height="25"/>
		</g>
		<rect x="-266.5" y="886" class="st10" width="500" height="25"/>
		<rect x="-226.5" y="861" class="st10" width="500" height="25"/>
		<rect x="-312" y="836" class="st10" width="500" height="25"/>
		<rect x="-278.5" y="811" class="st10" width="500" height="25"/>
		<rect x="-347.5" y="786" class="st10" width="500" height="25"/>
		<rect x="-274.5" y="761" class="st10" width="500" height="25"/>
		<rect x="-375.5" y="736" class="st10" width="500" height="25"/>
		<rect x="-343.5" y="711" class="st10" width="500" height="25"/>
		<rect x="-375.5" y="686" class="st10" width="500" height="25"/>
		<rect x="-312" y="661" class="st10" width="500" height="25"/>
		<rect x="-391.5" y="636" class="st10" width="500" height="25"/>
		<rect x="-297.5" y="611" class="st10" width="500" height="25"/>
		<rect x="-411.5" y="586" class="st10" width="500" height="25"/>
		<rect x="-347.5" y="561" class="st10" width="500" height="25"/>
		<rect x="-430.5" y="536" class="st10" width="500" height="25"/>
		<rect x="-375.5" y="511" class="st10" width="500" height="25"/>
		<rect x="-424.5" y="486" class="st10" width="500" height="25"/>
		<rect x="-298" y="461" class="st10" width="500" height="25"/>
		<rect x="-435.5" y="436" class="st10" width="500" height="25"/>
		<rect x="-330.5" y="411" class="st10" width="500" height="25"/>
		<rect x="-423.5" y="386" class="st10" width="500" height="25"/>
		<rect x="-274.5" y="361" class="st10" width="500" height="25"/>
		<rect x="-381.5" y="336" class="st10" width="500" height="25"/>
		<rect x="-303.5" y="311" class="st10" width="500" height="25"/>
		<rect x="-374.5" y="286" class="st10" width="500" height="25"/>
		<rect x="-259.5" y="261" class="st10" width="500" height="25"/>
		<rect x="-334.5" y="236" class="st10" width="500" height="25"/>
		<rect x="-264" y="211" class="st10" width="500" height="25"/>
		<rect x="-311.5" y="186" class="st10" width="500" height="25"/>
		<rect x="-215.5" y="161" class="st10" width="500" height="25"/>
		<rect x="-278.5" y="136" class="st10" width="500" height="25"/>
		<rect x="-185.5" y="111" class="st10" width="500" height="25"/>
		<rect x="-242.5" y="86" class="st10" width="500" height="25"/>
		<rect x="-166.5" y="61" class="st10" width="500" height="25"/>
		<rect x="-208.5" y="36" class="st10" width="500" height="25"/>
	</g>
</g>
</svg>
