<?xml version="1.0" encoding="utf-8"?>
<!-- Generator: Adobe Illustrator 21.0.0, SVG Export Plug-In . SVG Version: 6.00 Build 0)  -->
<svg version="1.1" id="planet" xmlns="http://www.w3.org/2000/svg" xmlns:xlink="http://www.w3.org/1999/xlink" x="0px" y="0px"
	 viewBox="0 0 1000 1000" style="enable-background:new 0 0 1000 1000;" xml:space="preserve">
<style type="text/css">
	.st0{fill:#FF417B;}
	.st1{fill:#FFFFFF;}
</style>
<g>
	<path class="st0" d="M500,997.5c-67.2,0-132.3-13.2-193.6-39.1c-59.2-25.1-112.4-60.9-158.1-106.6
		c-45.7-45.7-81.6-98.9-106.6-158.1C15.7,632.3,2.5,567.2,2.5,500s13.2-132.3,39.1-193.6c25.1-59.2,60.9-112.4,106.6-158.1
		s98.9-81.6,158.1-106.6C367.7,15.7,432.8,2.5,500,2.5s132.3,13.2,193.6,39.1c59.2,25.1,112.4,60.9,158.1,106.6
		c45.7,45.7,81.6,98.9,106.6,158.1c25.9,61.3,39.1,126.5,39.1,193.6s-13.2,132.3-39.1,193.6c-25.1,59.2-60.9,112.4-106.6,158.1
		c-45.7,45.7-98.9,81.6-158.1,106.6C632.3,984.3,567.2,997.5,500,997.5z"/>
	<path class="st1" d="M500,5c66.8,0,131.7,13.1,192.7,38.9C751.6,68.8,804.6,104.5,850,150s81.2,98.4,106.1,157.3
		c25.8,61,38.9,125.8,38.9,192.7s-13.1,131.7-38.9,192.7C931.2,751.6,895.5,804.6,850,850s-98.4,81.2-157.3,106.1
		C631.7,981.9,566.8,995,500,995s-131.7-13.1-192.7-38.9C248.4,931.2,195.4,895.5,150,850S68.8,751.6,43.9,692.7
		C18.1,631.7,5,566.8,5,500s13.1-131.7,38.9-192.7C68.8,248.4,104.5,195.4,150,150s98.4-81.2,157.3-106.1C368.3,18.1,433.2,5,500,5
		 M500,0C223.9,0,0,223.9,0,500s223.9,500,500,500s500-223.9,500-500S776.1,0,500,0L500,0z"/>
</g>
</svg>
