<svg xmlns="http://www.w3.org/2000/svg" viewBox="0 0 1000 1000">
  <g id="sun">
    <ellipse transform="rotate(-45.001 499.997 500.008)" cx="500" cy="500" rx="500" ry="500" fill="#ff417b"/>
    <path fill="#d83075" d="M853.6 853.6c195.3-195.3 195.3-511.8 0-707.1-31-31-65-57.1-101.2-78.2-3.4 2.8-8.2 3.6-12.6 1.8l-19.4-8c-6.4-2.6-13.7.4-16.3 6.8-2.6 6.4.4 13.7 6.8 16.3l68.4 28.3c6.4 2.6 9.4 10 6.8 16.3-2.6 6.4-10 9.4-16.3 6.8L716 114.3c-6.4-2.6-13.7.4-16.3 6.8-2.6 6.4.4 13.7 6.8 16.3L761 160c6.4 2.6 9.4 10 6.8 16.3-2.6 6.4-10 9.4-16.3 6.8l-59.1-24.5c-6.4-2.6-13.7.4-16.3 6.8-2.6 6.4.4 13.7 6.8 16.3l134.4 55.7c6.4 2.6 9.4 10 6.8 16.3-2.6 6.4-10 9.4-16.3 6.8l-67.9-28.1c-6.4-2.6-13.7.4-16.3 6.8-2.6 6.4.4 13.7 6.8 16.3l108.1 44.8c6.4 2.6 9.4 10 6.8 16.3-2.6 6.4-10 9.4-16.3 6.8l-49.9-20.7c-6.4-2.6-13.7.4-16.3 6.8-2.6 6.4.4 13.7 6.8 16.3l63.7 26.4c6.4 2.6 9.4 10 6.8 16.3-2.6 6.4-10 9.4-16.3 6.8L730 336.6c-6.4-2.6-13.7.4-16.3 6.8-2.6 6.4.4 13.7 6.8 16.3l118.3 49c6.4 2.6 9.4 10 6.8 16.3-2.6 6.4-10 9.4-16.3 6.8l-128.9-53.4c-6.4-2.6-13.7.4-16.3 6.8-2.6 6.4.4 13.7 6.8 16.3l115 47.6c6.4 2.6 9.4 10 6.8 16.3-2.6 6.4-10 9.4-16.3 6.8L726 443.1c-6.4-2.6-13.7.4-16.3 6.8-2.6 6.4.4 13.7 6.8 16.3l84.1 34.8c6.4 2.6 9.4 10 6.8 16.3s-10 9.4-16.3 6.8l-111.8-46.3c-6.4-2.6-13.7.4-16.3 6.8-2.6 6.4.4 13.7 6.8 16.3l160.8 66.6c6.4 2.6 9.4 10 6.8 16.3-2.6 6.4-10 9.4-16.3 6.8L715.4 547c-6.4-2.6-13.7.4-16.3 6.8-2.6 6.4.4 13.7 6.8 16.3l48 19.9c6.4 2.6 9.4 10 6.8 16.3-2.6 6.4-10 9.4-16.3 6.8l-155.7-64.5c-6.4-2.6-13.7.4-16.3 6.8-2.6 6.4.4 13.7 6.8 16.3l164 67.9c6.4 2.6 9.4 10 6.8 16.3-2.6 6.4-10 9.4-16.3 6.8l-122-50.5c-6.4-2.6-13.7.4-16.3 6.8-2.6 6.4.4 13.7 6.8 16.3l97.9 40.6c6.4 2.6 9.4 10 6.8 16.3-2.6 6.4-10 9.4-16.3 6.8l-73-30.2c-6.4-2.6-13.7.4-16.3 6.8-2.6 6.4.4 13.7 6.8 16.3l64.7 26.8c6.4 2.6 9.4 10 6.8 16.3-2.6 6.4-10 9.4-16.3 6.8l-97-40.2c-6.4-2.6-13.7.4-16.3 6.8-2.6 6.4.4 13.7 6.8 16.3l65.6 27.2c6.4 2.6 9.4 10 6.8 16.3-2.6 6.4-10 9.4-16.3 6.8l-106.2-44c-6.4-2.6-13.7.4-16.3 6.8-2.6 6.4.4 13.7 6.8 16.3l137.7 57c6.4 2.6 9.4 10 6.8 16.3-2.6 6.4-10 9.4-16.3 6.8l-97.5-40.4c-6.4-2.6-13.7.4-16.3 6.8s.4 13.7 6.8 16.3l40.2 16.6c6.4 2.6 9.4 10 6.8 16.3-2.6 6.4-10 9.4-16.3 6.8l-101.6-42.1c-6.4-2.6-13.7.4-16.3 6.8s.4 13.7 6.8 16.3l94.2 39c6.4 2.6 9.4 10 6.8 16.3-2.6 6.4-10 9.4-16.3 6.8l-80.4-33.3c-6.4-2.6-13.7.4-16.3 6.8-2.6 6.4.4 13.7 6.8 16.3l66.5 27.6c6.4 2.6 9.4 10 6.8 16.3-2.6 6.4-10 9.4-16.3 6.8l-95.2-39.4c-6.4-2.6-13.7.4-16.3 6.8s.4 13.7 6.8 16.3l85 35.2c6.4 2.6 9.4 10 6.8 16.3-2.6 6.4-10 9.4-16.3 6.8l-112.7-46.7c-6.4-2.6-13.7.4-16.3 6.8-2.6 6.4.4 13.7 6.8 16.3l30.5 12.6c5.3 2.2 8.3 7.6 7.6 13.1 164.3 42.5 347.4-1.1 477.1-130.7z"/>
    <path d="M853.6 853.6c189.3-189.3 195.1-492.5 17.5-688.7 0 0 0 .1-.1.1-2.6 6.4-10 9.4-16.3 6.8l-29.6-12.2c-6.4-2.6-13.7.4-16.3 6.8-2.6 6.4.4 13.7 6.8 16.3l83.1 34.4c6.4 2.6 9.4 10 6.8 16.3-2.6 6.4-10 9.4-16.3 6.8l-7.4-3.1c-6.4-2.6-13.7.4-16.3 6.8-2.6 6.4.4 13.7 6.8 16.3l70.7 29.3c6.4 2.6 9.4 10 6.8 16.3-2.6 6.4-10 9.4-16.3 6.8l-20.8-8.6c-6.4-2.6-13.7.4-16.3 6.8-2.6 6.4.4 13.7 6.8 16.3l60.1 24.9c6.4 2.6 9.4 10 6.8 16.3-2.6 6.4-10 9.4-16.3 6.8L909 356.6c-6.4-2.6-13.7.4-16.3 6.8-2.6 6.4.4 13.7 6.8 16.3l70.2 29.1c6.4 2.6 9.4 10 6.8 16.3-2.6 6.4-10 9.4-16.3 6.8l-6.5-2.7c-6.4-2.6-13.7.4-16.3 6.8-2.6 6.4.4 13.7 6.8 16.3l6.5 2.7c6.4 2.6 9.4 10 6.8 16.3-2.6 6.4-10 9.4-16.3 6.8l-35.6-14.7c-6.4-2.6-13.7.4-16.3 6.8-2.6 6.4.4 13.7 6.8 16.3l50.4 20.9c6.4 2.6 9.4 10 6.8 16.3-2.6 6.4-10 9.4-16.3 6.8L872.9 504c-6.4-2.6-13.7.4-16.3 6.8-2.6 6.4.4 13.7 6.8 16.3l82.2 34.1c6.4 2.6 9.4 10 6.8 16.3-2.6 6.4-10 9.4-16.3 6.8l-36-14.9c-6.4-2.6-13.7.4-16.3 6.8-2.6 6.4.4 13.7 6.8 16.3l53.6 22.2c6.4 2.6 9.4 10 6.8 16.3s-10 9.4-16.3 6.8L907 626.3c-6.4-2.6-13.7.4-16.3 6.8-2.6 6.4.4 13.7 6.8 16.3l22.2 9.2c6.4 2.6 9.4 10 6.8 16.3-2.6 6.4-10 9.4-16.3 6.8l-93.8-38.8c-6.4-2.6-13.7.4-16.3 6.8-2.6 6.4.4 13.7 6.8 16.3l103.9 43.1c6.4 2.6 9.4 10 6.8 16.3-2.6 6.4-10 9.4-16.3 6.8l-73.9-30.6c-6.4-2.6-13.7.4-16.3 6.8-2.6 6.4.4 13.7 6.8 16.3l62.8 26c6.4 2.6 9.4 10 6.8 16.3-2.6 6.4-10 9.4-16.3 6.8l-114.6-47.5c-6.4-2.6-13.7.4-16.3 6.8-2.6 6.4.4 13.7 6.8 16.3l75.8 31.4c6.4 2.6 9.4 10 6.8 16.3-2.6 6.4-10 9.4-16.3 6.8l-49-20.3c-6.4-2.6-13.7.4-16.3 6.8-2.6 6.4.4 13.7 6.8 16.3l42.5 17.6c6.4 2.6 9.4 10 6.8 16.3-2.6 6.4-10 9.4-16.3 6.8L704.8 813c-6.4-2.6-13.7.4-16.3 6.8-2.6 6.4.4 13.7 6.8 16.3l46.2 19.1c6.4 2.6 9.4 10 6.8 16.3-2.6 6.4-10 9.4-16.3 6.8l-42-17.4c-6.4-2.6-13.7.4-16.3 6.8s.4 13.7 6.8 16.3l20.8 8.6c6.4 2.6 9.4 10 6.8 16.3-2.6 6.4-10 9.4-16.3 6.8l-65.6-27.2c-6.4-2.6-13.7.4-16.3 6.8-2.6 6.4.4 13.7 6.8 16.3l35.1 14.5c6.4 2.6 9.4 10 6.8 16.3-2.6 6.4-10 9.4-16.3 6.8l-62.8-26c-6.4-2.6-13.7.4-16.3 6.8-2.6 6.4.4 13.7 6.8 16.3l29.6 12.2c6.4 2.6 9.4 10 6.8 16.3-2.6 6.4-10 9.4-16.3 6.8l-69.1-28c-6.4-2.6-13.7.4-16.3 6.8s.4 13.7 6.8 16.3l11.1 4.6c6.4 2.6 9.4 10 6.8 16.3-.2.5-.4 1-.5 1.6 118.1-6.8 234.3-55.3 324.7-145.6z" fill="#b2306e"/>
    <path d="M146.4 146.4c-195.3 195.3-195.3 511.8 0 707.1 31.4 31.4 66 57.8 102.7 79.1 3.3-4.7 9.5-6.6 15-4.3l15.7 6.5c6.4 2.6 13.7-.4 16.3-6.8 2.6-6.4-.4-13.7-6.8-16.3l-59.1-24.5c-6.4-2.6-9.4-10-6.8-16.3 2.6-6.4 10-9.4 16.3-6.8l31.4 13c6.4 2.6 13.7-.4 16.3-6.8s-.4-13.7-6.8-16.3l-35.1-14.5c-6.4-2.6-9.4-10-6.8-16.3s10-9.4 16.3-6.8l39.7 16.5c6.4 2.6 13.7-.4 16.3-6.8s-.4-13.7-6.8-16.3l-106.7-44.2c-6.4-2.6-9.4-10-6.8-16.3 2.6-6.4 10-9.4 16.3-6.8l40.2 16.6c6.4 2.6 13.7-.4 16.3-6.8 2.6-6.4-.4-13.7-6.8-16.3l-90.5-37.5c-6.4-2.6-9.4-10-6.8-16.3 2.6-6.4 10-9.4 16.3-6.8l32.3 13.4c6.4 2.6 13.7-.4 16.3-6.8 2.6-6.4-.4-13.7-6.8-16.3l-32.3-13.4c-6.4-2.6-9.4-10-6.8-16.3s10-9.4 16.3-6.8l61.9 25.6c6.4 2.6 13.7-.4 16.3-6.8s-.4-13.7-6.8-16.3L183 597.3c-6.4-2.6-9.4-10-6.8-16.3s10-9.4 16.3-6.8l93.8 38.8c6.4 2.6 13.7-.4 16.3-6.8s-.4-13.7-6.8-16.3l-91-37.7c-6.4-2.6-9.4-10-6.8-16.3 2.6-6.4 10-9.4 16.3-6.8l46.2 19.1c6.4 2.6 13.7-.4 16.3-6.8s-.4-13.7-6.8-16.3l-45.3-18.8c-6.4-2.6-9.4-10-6.8-16.3 2.6-6.4 10-9.4 16.3-6.8l73 30.2c6.4 2.6 13.7-.4 16.3-6.8s-.4-13.7-6.8-16.3l-121-50.1c-6.4-2.6-9.4-10-6.8-16.3 2.6-6.4 10-9.4 16.3-6.8l65.6 27.2c6.4 2.6 13.7-.4 16.3-6.8s-.4-13.7-6.8-16.3l-22.2-9.2c-6.4-2.6-9.4-10-6.8-16.3 2.6-6.4 10-9.4 16.3-6.8l49.4 20.5c6.4 2.6 13.7-.4 16.3-6.8s-.4-13.7-6.8-16.3l-43-17.8c-6.4-2.6-9.4-10-6.8-16.3 2.6-6.4 10-9.4 16.3-6.8l104.4 43.2c6.4 2.6 13.7-.4 16.3-6.8 2.6-6.4-.4-13.7-6.8-16.3L319.7 329c-6.4-2.6-9.4-10-6.8-16.3s10-9.4 16.3-6.8l40.7 16.8c6.4 2.6 13.7-.4 16.3-6.8s-.4-13.7-6.8-16.3l-37-15.3c-6.4-2.6-9.4-10-6.8-16.3s10-9.4 16.3-6.8l69.3 28.7c6.4 2.6 13.7-.4 16.3-6.8s-.4-13.7-6.8-16.3l-59.1-24.5c-6.4-2.6-9.4-10-6.8-16.3 2.6-6.4 10-9.4 16.3-6.8l99.8 41.3c6.4 2.6 13.7-.4 16.3-6.8 2.6-6.4-.4-13.7-6.8-16.3L386 194.2c-6.4-2.6-9.4-10-6.8-16.3 2.6-6.4 10-9.4 16.3-6.8l64.2 26.6c6.4 2.6 13.7-.4 16.3-6.8 2.6-6.4-.4-13.7-6.8-16.3l-22.6-9.4c-6.4-2.6-9.4-10-6.8-16.3s10-9.4 16.3-6.8l74.8 31c6.4 2.6 13.7-.4 16.3-6.8 2.6-6.4-.4-13.7-6.8-16.3l-49-20.3c-6.4-2.6-9.4-10-6.8-16.3 2.6-6.4 10-9.4 16.3-6.8l44.3 18.4c6.4 2.6 13.7-.4 16.3-6.8 2.6-6.4-.4-13.7-6.8-16.3l-24-9.9c-6.4-2.6-9.4-10-6.8-16.3 2.6-6.4 10-9.4 16.3-6.8l78.5 32.5c6.4 2.6 13.7-.4 16.3-6.8 2.6-6.4-.4-13.7-6.8-16.3l-78.5-32.5c-6.4-2.6-9.4-10-6.8-16.3 2.6-6.4 10-9.4 16.3-6.8l100.7 41.7c6.4 2.6 13.7-.4 16.3-6.8 2.6-6.4-.4-13.7-6.8-16.3l-8.3-3.4c-5.4-2.3-8.4-7.9-7.6-13.5C481.6-31.7 283.9 9 146.4 146.4z" fill="#ff6e6e"/>
    <path d="M146.4 146.4C-42.3 335.1-48.6 637 127.3 833.3c.4-.6.7-1.2 1-1.9 2.6-6.4 10-9.4 16.3-6.8l31.4 13c6.4 2.6 13.7-.4 16.3-6.8 2.6-6.4-.4-13.7-6.8-16.3l-77.6-32.1c-6.4-2.6-9.4-10-6.8-16.3 2.6-6.4 10-9.4 16.3-6.8l13.9 5.7c6.4 2.6 13.7-.4 16.3-6.8 2.6-6.4-.4-13.7-6.8-16.3l-55.9-23.2c-6.4-2.6-9.4-10-6.8-16.3 2.6-6.4 10-9.4 16.3-6.8l7.9 3.3c6.4 2.6 13.7-.4 16.3-6.8 2.6-6.4-.4-13.7-6.8-16.3L71.1 659c-6.4-2.6-9.4-10-6.8-16.3 2.6-6.4 10-9.4 16.3-6.8l44.3 18.4c6.4 2.6 13.7-.4 16.3-6.8 2.6-6.4-.4-13.7-6.8-16.3l-70.2-29.1c-6.4-2.6-9.4-10-6.8-16.3 2.6-6.4 10-9.4 16.3-6.8l6.5 2.7c6.4 2.6 13.7-.4 16.3-6.8 2.6-6.4-.4-13.7-6.8-16.3l-6.5-2.7c-6.4-2.6-9.4-10-6.8-16.3 2.6-6.4 10-9.4 16.3-6.8l35.6 14.7c6.4 2.6 13.7-.4 16.3-6.8 2.6-6.4-.4-13.7-6.8-16.3l-50.4-20.9c-6.4-2.6-9.4-10-6.8-16.3 2.6-6.4 10-9.4 16.3-6.8l63.7 26.4c6.4 2.6 13.7-.4 16.3-6.8 2.6-6.4-.4-13.7-6.8-16.3l-82.2-34.1c-6.4-2.6-9.4-10-6.8-16.3 2.6-6.4 10-9.4 16.3-6.8l36 14.9c6.4 2.6 13.7-.4 16.3-6.8 2.6-6.4-.4-13.7-6.8-16.3l-53.6-22.2c-6.4-2.6-9.4-10-6.8-16.3 2.6-6.4 10-9.4 16.3-6.8l27.7 11.5c6.4 2.6 13.7-.4 16.3-6.8 2.6-6.4-.4-13.7-6.8-16.3l-22.2-9.2c-6.4-2.6-9.4-10-6.8-16.3 2.6-6.4 10-9.4 16.3-6.8l93.8 38.8c6.4 2.6 13.7-.4 16.3-6.8 2.6-6.4-.4-13.7-6.8-16.3l-103.9-43.1c-6.4-2.6-9.4-10-6.8-16.3 2.6-6.4 10-9.4 16.3-6.8l73.9 30.6c6.4 2.6 13.7-.4 16.3-6.8 2.6-6.4-.4-13.7-6.8-16.3l-62.8-26c-6.4-2.6-9.4-10-6.8-16.3 2.6-6.4 10-9.4 16.3-6.8l114.6 47.5c6.4 2.6 13.7-.4 16.3-6.8 2.6-6.4-.4-13.7-6.8-16.3L210.6 230c-6.4-2.6-9.4-10-6.8-16.3 2.6-6.4 10-9.4 16.3-6.8l49 20.3c6.4 2.6 13.7-.4 16.3-6.8 2.6-6.4-.4-13.7-6.8-16.3l-42.5-17.6c-6.4-2.6-9.4-10-6.8-16.3s10-9.4 16.3-6.8l83.1 34.4c6.4 2.6 13.7-.4 16.3-6.8s-.4-13.7-6.8-16.3L294 156c-6.4-2.6-9.4-10-6.8-16.3s10-9.4 16.3-6.8l42 17.4c6.4 2.6 13.7-.4 16.3-6.8 2.6-6.4-.4-13.7-6.8-16.3l-20.8-8.6c-6.4-2.6-9.4-10-6.8-16.3s10-9.4 16.3-6.8l65.6 27.2c6.4 2.6 13.7-.4 16.3-6.8 2.6-6.4-.4-13.7-6.8-16.3L384 85c-6.4-2.6-9.4-10-6.8-16.3s10-9.4 16.3-6.8l62.8 26c6.4 2.6 13.7-.4 16.3-6.8 2.6-6.4-.4-13.7-6.8-16.3l-29.6-12.2c-6.4-2.6-9.4-10-6.8-16.3 2.6-6.4 10-9.4 16.3-6.8L493.1 49c6.4 2.6 13.7-.4 16.3-6.8 2.6-6.4-.4-13.7-6.8-16.3l-15.7-6.5c-6.4-2.6-9.4-10-6.8-16.3.4-.9.6-1.8.8-2.7-121.5 4.6-241.7 53.3-334.5 146z" fill="#ffb985"/>
  </g>
</svg>