<svg xmlns="http://www.w3.org/2000/svg" style="display: none;">
	<defs>
	
		<symbol id="github" viewBox="0 0 24 24">
			<path d="M12,2A10,10 0 0,0 2,12C2,16.42 4.87,20.17 8.84,21.5C9.34,21.58 9.5,21.27 9.5,21C9.5,20.77 9.5,20.14 9.5,19.31C6.73,19.91 6.14,17.97 6.14,17.97C5.68,16.81 5.03,16.5 5.03,16.5C4.12,15.88 5.1,15.9 5.1,15.9C6.1,15.97 6.63,16.93 6.63,16.93C7.5,18.45 8.97,18 9.54,17.76C9.63,17.11 9.89,16.67 10.17,16.42C7.95,16.17 5.62,15.31 5.62,11.5C5.62,10.39 6,9.5 6.65,8.79C6.55,8.54 6.2,7.5 6.75,6.15C6.75,6.15 7.59,5.88 9.5,7.17C10.29,6.95 11.15,6.84 12,6.84C12.85,6.84 13.71,6.95 14.5,7.17C16.41,5.88 17.25,6.15 17.25,6.15C17.8,7.5 17.45,8.54 17.35,8.79C18,9.5 18.38,10.39 18.38,11.5C18.38,15.32 16.04,16.16 13.81,16.41C14.17,16.72 14.5,17.33 14.5,18.26C14.5,19.6 14.5,20.68 14.5,21C14.5,21.27 14.66,21.59 15.17,21.5C19.14,20.16 22,16.42 22,12A10,10 0 0,0 12,2Z"/>
		</symbol>

		<symbol id="arrow" viewBox="0 0 24 24">
			<path d="M4,11V13H16L10.5,18.5L11.92,19.92L19.84,12L11.92,4.08L10.5,5.5L16,11H4Z"/>
		</symbol>

		<symbol id="html5" viewBox="0 0 362.7 512">
  			<path d="M33 470.9L0 100.6h362.7l-33 370.2L181.1 512 33 470.9z" fill="#e44d26"/>
  			<path d="M181.4 480.5l120-33.3 28.2-316.4H181.4v349.7z" fill="#f16529"/>
  			<path d="M181.4 268.2h-60.1l-4.1-46.5h64.2v-45.4H67.5l1.1 12.2 11.2 125.1h101.6v-45.4zm0 118l-.2.1-50.6-13.7-3.2-36.2H81.8l6.4 71.3 93 25.8.2-.1v-47.2z" fill="#ebebeb"/>
  			<path d="M33.7 0h23.1v22.8h21.1V0H101v69H77.9V45.9H56.8V69h-23l-.1-69zm97.7 22.9H111V0h63.7v22.9h-20.3V69h-23.1l.1-46.1zM184.9 0H209l14.8 24.3L238.5 0h24.1v69h-23V34.8l-15.9 24.5h-.4l-15.9-24.5V69h-22.6V0zm89.2 0h23.1v46.2h32.5V69h-55.5V0z"/>
 			<path d="M181.2 268.2v45.4h55.9l-5.3 58.9-50.6 13.7v47.2l93.1-25.8.7-7.7 10.7-119.6 1.1-12.2h-12.2l-93.4.1zm0-91.9v45.4h109.7l.9-10.2 2.1-23 1.1-12.2H181.2z" fill="#fff"/>
		</symbol>

		<symbol id="css3" viewBox="0 0 362.734 512">
		 	<path fill="#264de4" d="M362.734 100.62l-33.046 370.199L181.145 512 33.011 470.877 0 100.62z"/>
			<path fill="#2965f1" d="M301.397 447.246l28.24-316.352h-148.27v349.629z"/>
			<path fill="#ebebeb" d="M75.677 268.217l4.07 45.41h101.62v-45.41zM181.367 176.305H67.499l4.128 45.411h109.74zM181.367 433.399v-47.246l-.199.053-50.574-13.656-3.233-36.217H81.776l6.362 71.301 93.02 25.823z"/>
			<path d="M85.367 0h55v23h-32v23h32v23h-55zM151.367 0h55v20h-32v4h32v46h-55V49h32v-4h-32zM217.367 0h55v20h-32v4h32v46h-55V49h32v-4h-32z"/>
			<path fill="#fff" d="M237.128 313.627l-5.271 58.894-50.647 13.67v47.244l93.094-25.801.683-7.672 10.671-119.551 1.108-12.194 8.198-91.912H181.21v45.411h63.988l-4.132 46.501H181.21v45.41z"/>
		</symbol>

		<symbol id="javascript" viewBox="0 0 362.6 512">
			<path fill="#efc725" d="M33 470.9L0 100.7h362.6l-33 370.1L181.1 512z"/>
			<path fill="#fbde34" d="M181 480.1l120-33.3 28.3-316.3H181z"/>
			<path fill="#ebebeb" d="M181 385.8h-.2l-50.6-13.6-3.2-36.3H81.4l6.3 71.3 93 25.8h.3zM187.1 313.2v-45.4h-55.9l6.5-71.2 49.5-1.3-.1-47.3H96.7l-3.4 33.5L82.6 301l-1.1 12.2h12.3z"/>
			<path fill="#fff" d="M186.8 195.3h.2l49.5 2.9 4.3 46.9h45.5l-7.9-87.7L187 148l-.2.1z"/>
			<path fill="#ebebeb" d="M281.6 195.5l-3.8-47.5h-95.9v47.5h99.7M180.8 267.8v45.4h55.9l-5.3 58.9-50.6 13.7V433l93.1-25.8.6-7.6L285.2 280l1.1-12.2h-12.2z"/>
			<path fill="#fff" d="M245.3 19h-30.1l31.3 33.9v16.2H182V50.2h31.3l-31.3-34V0h63.3z"/>
			<path d="M170.5 0v69H115V46.2h32.4V0h23.1z" fill="#fff"/>
		</symbol>

		<symbol id="wordpress" viewBox="0 0 500 500">
			<path fill="#fff" d="M235.7 34.1c52.1 0 99.6 20 135.2 52.7-17.4-.5-34.8 9.9-35.6 33.6-1.5 48 57.4 58.2 25.7 154.8l-26.2 79.9-71.5-210.5c-1.1-3.3.2-5.1 4.2-5.1h20.2c1 0 1.9-.9 1.9-2v-12c0-1.1-.9-2-1.9-2-38.3 1.7-76.3 1.7-114.1 0-1.1 0-1.9.9-1.9 2v12c0 1.1.9 2 1.9 2h20.3c4.5 0 5.8 1.5 6.8 4.4l29.4 80.3L186 357.5l-72.6-213.8c-.9-2.7.2-4.2 2.8-4.2h23.1c1 0 1.9-.9 1.9-2v-12c0-1.1-.9-2-1.9-2-24.3 1.3-48.7 1.5-71.4 1.8 35.7-54.9 97.5-91.2 167.8-91.2zM411.5 138.8c15.4 28.3 24.1 60.7 24.1 95.2 0 75.6-42 141.4-103.9 175.4L394 232.8c9.6-27.3 18.6-64.3 17.5-94z" transform="translate(-3.51 -1.668) scale(1.0755)"/>
			<path fill="#fff" d="M302.6 422.3c-20.9 7.4-43.4 11.5-66.9 11.5-20.2 0-39.7-3-58.1-8.6l61.6-176.5 63.4 173.6zM150.2 414.7C82.6 382.6 35.8 313.7 35.8 234c0-29.6 6.4-57.6 18-82.9l96.4 263.6z" transform="translate(-3.51 -1.668) scale(1.0755)"/>
			<path fill="#fff" d="M235.7 1.5C107.3 1.5 3.3 105.6 3.3 234s104.1 232.4 232.4 232.4S468.1 362.3 468.1 234 364 1.5 235.7 1.5zm0 451.1C115 452.6 17.1 354.7 17.1 234S115 15.4 235.7 15.4 454.3 113.3 454.3 234s-97.9 218.6-218.6 218.6z" transform="translate(-3.51 -1.668) scale(1.0755)"/>
		</symbol>

		<symbol id="css3-simple" viewBox="0 0 66.3 60">
			<path fill="#fff" d="M26.1 60l30.2-10 10-50H9.8L7.7 11.2H53l-1.4 7.1H6.1L3.9 29.5h45.3l-2.5 12.8-18.3 6-15.8-6 1.1-5.6H2.6L0 50.1 26.1 60" />
		</symbol>

		<symbol id="git-simple" viewBox="0 0 84.9 84.8">
			<path fill="#fff" d="M83.4 38.7L46.3 1.6c-2.2-2.1-5.6-2.1-7.8 0l-7.7 7.7 9.8 9.8c2.3-.8 4.9-.3 6.7 1.6 1.8 1.8 2.3 4.4 1.5 6.7l9.4 9.4c2.3-.8 4.9-.3 6.7 1.5 2.5 2.5 2.5 6.7 0 9.2s-6.7 2.5-9.2 0c-1.9-1.9-2.4-4.7-1.4-7.1l-8.8-8.8v23.1c.6.3 1.2.7 1.7 1.2 2.5 2.5 2.5 6.7 0 9.2s-6.7 2.5-9.2 0-2.5-6.7 0-9.2c.6-.6 1.4-1.1 2.1-1.4V31.3c-.8-.3-1.5-.8-2.1-1.4-1.9-1.9-2.4-4.8-1.4-7.1L27 13.2 1.6 38.5c-2.1 2.1-2.1 5.6 0 7.7l37.1 37.1c2.1 2.1 5.6 2.1 7.7 0l37-36.8c2.1-2.2 2.1-5.6 0-7.8z" />
		</symbol>

		<symbol id="gulp-simple" viewBox="0 0 158.4 350.8">
			<path d="M78.5 275.8c-20.6 0-36.4-3.1-44.1-4.9-5.2-1.3-9.4-2.6-12.6-3.9L32 284.4l4 54.4c0 6.1 19.4 11 43.3 11s43.3-4.9 43.3-11l3.2-55 9.7-16.9c-3.2 1.4-7.5 2.6-12.8 3.9-7.8 1.9-23.6 5-44.2 5zm57.2-177c-15.1 2.1-35.2 3.3-56.4 3.3s-41.3-1.2-56.4-3.3c-7.5-1-13.4-2.3-17.6-3.6-1-.4-2.7-.9-4.3-1.8l9.4 86.1c.5-1.5.9-3 1.5-4.5 1.1-3 2.4-6 3.8-8.8 1.5-2.9 3-5.6 4.7-8.2 1.7-2.6 3.5-4.9 5.4-7.1 1.9-2.2 3.9-4 5.9-5.6 2-1.5 4-2.7 6.1-3.6 2.1-.9 4.1-1.3 6.1-1.3 2.3 0 4.6.6 6.7 1.9 2.2 1.3 4.2 3.3 6.1 6.2.5.6.7 1.3.8 1.9.1.6.2 1.3.2 1.8 0 1.4-.4 2.5-1 3.2-.6.8-1.5 1.2-2.3 1.2s-1.5-.5-2.3-1.3c-.7-.8-1.5-2.1-2.4-3.7-.8-1.5-1.7-2.5-2.7-3.2-1-.6-2-1-3.2-1-1.8 0-3.7.7-5.7 2.2s-4 3.5-6 5.8c-2 2.5-3.9 5.2-5.7 8.4-1.8 3.1-3.5 6.4-4.8 9.7-1.4 3.3-2.6 6.6-3.4 9.7s-1.3 6-1.3 8.6c0 .8.1 1.7.2 2.6.1.9.4 1.7.6 2.5s.7 1.4 1.3 1.8 1.3.7 2.1.7c.9 0 2-.3 3.2-.9 1.2-.6 2.5-1.5 3.7-2.5s2.6-2.2 3.9-3.5c1.3-1.3 2.6-2.6 3.6-3.9 1.1-1.4 2.1-2.6 3-3.8s1.5-2.3 1.9-3.2l3.6-10.7c.5-1.2 1-2 1.7-2.5s1.5-.7 2.2-.7c.4 0 .7.1 1.1.2.4.1.6.3 1 .5.3.3.5.5.6 1 .2.4.3.9.3 1.5 0 1.5-.1 2.8-.4 4.1-.3 1.3-.5 2.6-1 3.7-.4 1.2-.8 2.5-1.4 3.6-.5 1.2-1 2.5-1.5 3.8-.1.2-.3.6-.5 1.5-.3.8-.6 1.8-1 3s-.8 2.6-1.3 4.1-.9 3-1.4 4.6c-.5 1.5-.9 3.1-1.4 4.6s-.8 2.8-1.2 4.1c-.4 1.2-.6 2.2-.8 3-.3.8-.4 1.3-.5 1.5-.1.5-.4 1-.6 1.6-.3.5-.6 1.2-1 1.6-.4.5-.8 1-1.3 1.3-.5.4-.9.5-1.5.5-.8 0-1.4-.3-1.8-.8-.4-.5-.5-1.5-.5-3v-1.1c0-.5.2-1.4.5-2.7.4-1.4.8-2.8 1.3-4.6.5-1.6 1-3.5 1.6-5.2.5-1.8 1.1-3.4 1.5-4.8-1.4 1.5-2.8 3-4.4 4.6-1.5 1.5-3.2 2.8-4.8 4s-3.4 2.2-5 2.9c-1.6.7-3.3 1.1-4.8 1.1-1.8 0-3.3-.4-4.6-1.2-.3-.2-.5-.3-.6-.5l5.2 54.6c1.4 3.4 26.9 11.8 60.5 11.8s59.1-8.4 60.5-11.8l7.5-64.9c-.6.5-1.2 1.1-1.8 1.6-2.2 2-4.2 3.7-6.1 5.1-1.9 1.5-3.7 2.6-5.6 3.4s-3.7 1.2-5.8 1.2c-1.9 0-3.5-.5-4.5-1.3-1.1-.8-1.5-2-1.5-3.5v-.8c.1-.9.5-1.9 1.2-3.1.7-1.2 1.5-2.4 2.5-3.6 1-1.3 2-2.6 3.1-3.8 1.1-1.3 2.1-2.6 3-3.7.9-1.2 1.7-2.2 2.3-3.2s.9-1.7.9-2.4c0-.4-.1-.6-.4-.8-.3-.2-.6-.3-1.3-.3-1 0-2.1.3-3.2.8s-2.2 1.3-3.2 2.1c-1.1.9-2.1 1.9-3.1 3.1-1 1.2-1.9 2.4-2.8 3.6-.9 1.3-1.6 2.5-2.4 3.7-.7 1.3-1.4 2.4-1.8 3.5-.2.4-.4.8-.6 1.4-.3.6-.5 1.3-.9 2s-.7 1.5-1.1 2.4c-.4.8-.7 1.5-1 2.3-.3.7-.5 1.4-.8 1.9s-.5.9-.5 1.2c-.1.3-.4.8-.6 1.5-.3.7-.6 1.6-1 2.6s-.8 2.1-1.2 3.2c-.5 1.1-.8 2.2-1.2 3.2-.4 1-.7 1.9-1 2.6-.3.7-.5 1.3-.5 1.5-.3.8-.5 1.5-.9 2.2s-.7 1.3-1.2 1.8-1 .9-1.5 1.3-1.2.5-1.9.5c-.9 0-1.6-.2-2.3-.6-.6-.5-.9-1.3-.9-2.6 0-.6.1-1.2.3-1.8.2-.6.4-1.3.5-1.9.3-.6.5-1.2.7-1.8.3-.5.5-1.2.6-1.7 1.4-3 2.8-6 4.2-9.1 1.5-3 2.8-6 4.1-9 .3-.6.5-1.3.8-1.8l-.3.3c-1.6 1.6-3.3 3-4.9 4.3-1.6 1.2-3.3 2.2-4.9 2.9s-3.2 1.1-4.7 1.1c-1 0-1.9-.2-2.6-.5-.7-.4-1.3-.8-1.6-1.4-.5-.5-.7-1.3-.9-2-.1-.3-.1-.5-.2-.8-.5.4-.9.7-1.4 1-1.5 1.1-3.1 2-4.6 2.7-1.5.6-2.9 1-4.1 1s-2.2-.4-3-1.2c-.7-.8-1.2-2.2-1.2-4.2 0-1.4.2-3 .6-4.8-.6 1.2-1.5 2.4-2.5 3.6-1 1.2-2.1 2.3-3.4 3.3s-2.7 1.8-4.3 2.5-3.3.9-5.2.9c-.8 0-1.6-.1-2.5-.3-.8-.2-1.5-.5-2-1.1-.5-.5-1.1-1.2-1.5-2.1-.4-.8-.5-1.9-.5-3.3 0 0 .1-.5.2-1.4.1-.9.5-2.3 1-4.2s1.4-4.4 2.6-7.5c1.2-3.1 2.7-6.7 4.8-11.1.5-1.2 1.2-2 1.8-2.5.7-.5 1.5-.7 2.3-.7.4 0 .7.1 1.1.2.4.1.7.3 1.1.5s.6.5.8.8c.2.4.3.7.3 1.2 0 .3 0 .5-.1.8-.1.5-.4 1.2-.8 2-.5.8-.9 1.8-1.5 2.8-.5 1.1-1.2 2.2-1.8 3.5-.6 1.3-1.2 2.6-1.7 3.8-.5 1.4-1 2.6-1.4 4.1-.4 1.4-.6 2.7-.6 4 0 .5.1 1 .4 1.5s.6.6 1.3.6c1.6 0 3.3-.5 4.7-1.6 1.5-1.1 2.9-2.5 4.2-4.1s2.5-3.4 3.5-5.2 1.9-3.6 2.6-5.1c.5-1 .9-2.1 1.3-3.3s.7-2.3 1.2-3.3.9-1.8 1.5-2.5c.5-.6 1.3-1 2.1-1 .9 0 1.6.4 2.2 1 .5.7.8 1.5.8 2.5 0 .5-.2 1.3-.5 2.3-.4.9-.8 2-1.3 3.3-.5 1.2-1.1 2.6-1.7 3.9-.6 1.4-1.2 2.8-1.7 4.3s-1 2.8-1.3 4.2c-.4 1.4-.5 2.6-.5 3.8 0 1.1.5 1.6 1.6 1.6.8 0 1.7-.3 2.9-.8s2.4-1.3 3.7-2.3c.4-.3.6-.5 1-.7.4-1.5.8-2.8 1.3-4.1.9-2.4 1.8-4.7 2.7-7 .9-2.4 1.7-4.5 2.6-6.4l11.6-29.2c.5-1.2 1.1-2 1.8-2.5.8-.5 1.5-.7 2.4-.7.8 0 1.5.3 2.2.7.6.5 1 1.4 1 2.5 0 .5-.1 1.1-.4 1.7-.2.6-.5 1.3-.8 1.9-.6 1.5-1.4 3.2-2.3 5.2-.9 2.1-1.8 4.3-2.8 6.7-1 2.5-2 4.9-3.1 7.6-1.1 2.6-2.1 5.2-3.1 7.7s-1.9 4.8-2.8 7-1.6 4.2-2.3 5.7c-.3.7-.5 1.5-.8 2.5s-.4 1.7-.4 2.5c0 .5.1.8.3 1.1.2.3.5.4.9.4.5 0 1.2-.2 2-.5.8-.4 1.6-.9 2.6-1.5.9-.6 1.9-1.4 2.9-2.1 1-.8 2-1.6 3-2.5 1-.8 1.9-1.7 2.8-2.6.9-.8 1.7-1.6 2.5-2.4.2-.2.4-.3.5-.4.5-1.3.8-2.6 1.2-3.8.2-.5.5-1.3.8-2.3.4-1 .7-2 1.2-2.9.5-1 1-1.8 1.5-2.6.5-.7 1.2-1.1 1.8-1.1 1 0 1.7.3 2.2.7s.7 1.2.7 2.1c0 .2 0 .5-.1.8s-.1.8-.2 1.3-.2.8-.3 1.3c-.1.4-.2.6-.3.8.9-1 2-2 3.1-3.1 1.1-1 2.3-1.9 3.4-2.7 1.2-.8 2.4-1.5 3.6-2 1.2-.5 2.5-.7 3.6-.7.8 0 1.6.1 2.6.4.8.3 1.5.6 2.2 1.1.6.5 1.2 1.1 1.5 1.7.4.7.6 1.5.6 2.5 0 1.3-.3 2.6-.9 4-.6 1.4-1.4 2.8-2.4 4.3-.9 1.5-2 2.8-3.1 4.2s-2.1 2.6-3.1 3.6-1.7 2-2.4 2.8c-.6.7-1 1.3-1 1.5 0 .4.1.6.4.9.3.2.6.4 1.2.4.5 0 1.1-.3 1.9-.7.8-.5 2-1.4 3.6-2.6 1.5-1.2 3.5-2.8 5.7-4.8 1.6-1.4 3.5-3 5.6-4.9l10.1-93.7c-1.6.9-3.4 1.5-4.4 1.8-3.7.9-9.7 2.1-17.1 3.1zM79.2 76.6C35.5 76.6 0 81.5 0 87.5s35.5 10.9 79.2 10.9 79.2-4.9 79.2-10.9c.1-6-35.5-10.9-79.2-10.9zm31.6 14.1c0 1.5-4.2 2.6-9.4 2.6S92 92.1 92 90.7c0-1.5 4.2-2.6 9.4-2.6s9.4 1.2 9.4 2.6z" />
			<path d="M93.9 89.6c-.1.1-.1.2-.1.3 0 .9 3.4 1.6 7.6 1.6s7.6-.7 7.6-1.6l9.9-40.2 39.3-41.5c.8-.9-.8-3.8-3.6-6.4-2.8-2.5-5.8-3.4-6.7-2.4l-42 44.2-12 46z" />
		</symbol>

		<symbol id="html5-simple" viewBox="0 0 79.2 90">
			<path fill="#fff" d="M26.6 36.7h13.1V26.5h-14l.9 10.2zM0 0l7.2 81 32.4 9L72 81l7.2-81H0zm65.9 75.8l-26.2 7.3V72.8l-20.4-5.6-1.4-16h10l.7 8.3 11.1 3V46.6H17.5l-2.7-30h24.9V6.7h32.4l-6.2 69.1z" />
			<path fill="#fff" opacity=".8" d="M51.9 46.6H39.7v15.9l11.1-3 1.1-12.9zm-12.2-40v9.9h24.9l-.9 9.9h-24v10.2h23.1l-2.7 30.5-20.4 5.6V83l26.2-7.3 6.2-69.2-32.4.1z" />
			<path fill="#fff" opacity=".2" d="M39.7 16.6H14.8l2.7 30h22.2v-9.9H26.6l-.9-10.2h14zm0 45.9l-11.1-3-.7-8.3h-10l1.4 16 20.4 5.6z" />
		</symbol>

		<symbol id="illustrator-simple" viewBox="0 0 82.6 75">
			<path fill="#fff" d="M36.5 44.3l-4-15.3c-1.2-4.3-2.3-9.6-3.3-13.9H29c-1 4.3-1.9 9.7-3 13.9l-3.9 15.3h14.4zM19.9 56.5L15.2 75H0L19.9 2.9h19.4L59.8 75h-16l-5.1-18.5H19.9zM67.4 75V22.7h14.8V75H67.4zM82.6 8.1c0 4.5-3 8.1-8 8.1-4.7 0-7.7-3.6-7.7-8.1C66.9 3.5 70 0 74.8 0s7.7 3.5 7.8 8.1z" />
		</symbol>


		<symbol id="jquery-simple" viewBox="0 0 95 91.7">
			<path fill="#fff" d="M6 21.5C.4 29.6-1.1 39.8.7 49.4c.9 4.8 2.6 9.4 4.8 13.7 1 2.2 2.4 4.3 3.8 6.2 0 .5 1.2 1.6 1.5 2 .8.9 1.8 1.9 2.4 2.9 5.9 6.6 13.7 11.7 22 14.8 8 2.9 17.2 3.4 25.5 1.9 13.6-2.4 26.8-11.7 31.8-24.8C81 81 58.9 83.1 42.3 76.7c-8.8-3.7-16.2-8.9-22.5-16.1C13.6 53 9.4 44 8.5 34.1c-.6-7.1.6-14.4 3.9-20.8"/>
			<path fill="#fff" d="M32.2 11.3c-5.6 8.1-5.8 18.8-2 27.6 3.7 8.6 10.4 15.1 18.6 19.4 12.6 6.3 29.9 4.6 39.8-5.8 2.8-2.9 5.2-6.5 6.4-10.3-9.6 13.9-29.2 14.2-42.8 6.2-14.4-8.7-24.6-28-15.1-44.1"/>
			<path fill="#fff" d="M54.1 3.7c-9.5 13.9 4.2 31.3 19 32.2 5.3.3 10.6-1 14.6-4.6 2.1-1.9 3.2-4.3 4.8-6.6-6.2 8.8-19.4 7.1-27.3 1.8C57 20.9 51.7 9.4 56.8 0"/>
		</symbol>
		
		<symbol id="javascript-simple" viewBox="0 0 110.1 74.8">
			<path fill="#fff" d="M3.1 58.7c2.9 2.1 7 3.2 10.5 3.4 3.7.3 7.9 0 10.8-2.7 2.7-2.7 3.6-6.8 3.9-10.5.4-3.8.5-7.6.5-11.3V.6c0-.6 1.1-.3 1.6-.3h12.3c.6 0 .4.4.4 1v39.1c-.2 8.2-.4 17.3-4.8 24.5-3 4.8-7.9 7.8-13.4 9-6.1 1.3-12.9 1.3-18.8-.6C5.3 73-.3 71 0 70.1c.3-1.2.7-2.4 1-3.5.7-2.6 1.4-5.3 2.1-7.9 1 .7 0 0 0 0zm98.1-39.1c-2.6-2.6-6.7-4.3-10.1-5.5-4.2-1.4-8.6-2.1-13-1.5-3.2.5-6.5 1.9-7.7 5.1-1.4 3.9.2 7.4 3.7 9.3s7.6 2.8 11.4 3.8c4.3 1.1 8.7 2.3 12.8 4.2 3.7 1.7 7.1 4.1 9.2 7.6 2.2 3.5 2.7 7.7 2.5 11.8-.5 8.4-5.5 15-13.4 18-8.5 3.2-18.5 2.8-27.2.6-4.3-1.1-8.6-2.7-12.5-4.8-.4-.2-4.9-2.7-4.7-3 .2-.4.4-.8.7-1.3 1.8-3.6 3.7-7.2 5.5-10.7 0-.1.1-.2.1-.3 2.6 2.6 6.6 4.4 10 5.8 4.1 1.7 8.5 2.9 13 3.1 5.3.3 13.5-.5 13.5-7.5 0-4.2-3.7-6.4-7.2-7.8-4-1.6-8.2-2.6-12.3-3.8-7.5-2.1-16.4-5.2-19.2-13.2-2.7-7.7-.2-17.2 5.8-22.7C68.6.9 78-.6 86.4.2c4.3.4 8.5 1.5 12.5 3.2 1 .4 9.1 4.1 8.7 4.9-1.9 3.5-3.8 6.9-5.7 10.4-.4.3-.6.6-.7.9-.5-.5 0 0 0 0z" />
		</symbol>	

		<symbol id="mysql-simple" viewBox="0 0 168.1 114">
			<path fill="#fff" d="M114.9 11.5c-.8 0-1.4.1-1.9.2v.1h.1c.4.7 1 1.3 1.5 1.9.4.7.7 1.5 1.1 2.2l.1-.1c.7-.5 1-1.2 1-2.3-.3-.3-.3-.7-.6-1-.4-.4-1-.7-1.3-1m-74.5 92.4h-6.5c-.2-11-.8-21.3-1.9-30.9l-9.9 30.9h-4.9L7.3 73c-.7 9.2-1.2 19.5-1.4 30.9H0c.4-13.8 1.3-26.7 2.9-38.7h8l9.4 28.5h.1l9.4-28.5h7.7c1.6 14 2.6 27 2.9 38.7m28.1-28.6c-2.6 14.3-6.1 24.7-10.4 31.2-3.4 5-7.1 7.5-11.1 7.5-1.1 0-2.4-.3-4-1v-3.5c.8.1 1.7.2 2.7.2 1.9 0 3.4-.5 4.5-1.6 1.4-1.3 2.1-2.7 2.1-4.2 0-1.1-.5-3.3-1.6-6.6l-7.1-22.1H50l5.1 16.5c1.1 3.8 1.6 6.4 1.4 7.9 2.8-7.5 4.7-15.6 5.9-24.4l6.1.1zm86.3 28.6h-18.4V65.1h6.2v34h12.2zm-23.2.9l-7.1-3.5c.6-.5 1.2-1.1 1.8-1.7 3-3.6 4.5-8.8 4.5-15.8 0-12.8-5-19.2-15.1-19.2-4.9 0-8.8 1.6-11.5 4.9-3 3.6-4.5 8.8-4.5 15.7 0 6.8 1.3 11.8 4 15 2.4 2.9 6.1 4.3 11.1 4.3 1.8 0 3.5-.2 5.1-.7l9.3 5.4 2.4-4.4zm-23.1-8.7c-1.6-2.5-2.4-6.6-2.4-12.2 0-9.8 3-14.6 8.9-14.6 3.1 0 5.4 1.2 6.8 3.5 1.6 2.5 2.4 6.5 2.4 12.1 0 9.8-3 14.8-8.9 14.8-3.1-.1-5.3-1.3-6.8-3.6m-11.6-3c0 3.3-1.2 6-3.6 8.1s-5.6 3.2-9.7 3.2c-3.8 0-7.5-1.2-11-3.6l1.7-3.3c3.1 1.5 5.8 2.3 8.3 2.3 2.3 0 4.2-.5 5.5-1.5s2.1-2.5 2.1-4.3c0-2.3-1.6-4.3-4.5-5.9-2.7-1.5-8.1-4.6-8.1-4.6-3.1-2.3-4.6-4.6-4.6-8.4 0-3.1 1.1-5.7 3.3-7.6 2.2-1.9 5-2.9 8.5-2.9 3.6 0 6.9 1 9.8 2.9l-1.5 3.3c-2.5-1.1-5-1.6-7.5-1.6-2 0-3.5.5-4.6 1.4-1.1 1-1.7 2.2-1.7 3.7 0 2.3 1.6 4.3 4.7 6 2.8 1.5 8.3 4.7 8.3 4.7 3.1 2.1 4.6 4.4 4.6 8.1"/>
			<path fill="#fff" d="M162.6 52.1c-3.7-.1-6.6.3-9.1 1.3-.7.3-1.8.3-1.9 1.2.4.4.4 1 .8 1.5.6.9 1.5 2.2 2.4 2.9 1 .7 2 1.5 3 2.2 1.8 1.1 3.9 1.8 5.7 2.9 1 .7 2.1 1.5 3.1 2.2.5.4.8 1 1.5 1.2v-.1c-.3-.4-.4-1-.7-1.5l-1.4-1.4c-1.4-1.8-3-3.4-4.9-4.7-1.5-1-4.8-2.4-5.4-4.2l-.1-.1c1-.1 2.2-.5 3.2-.8 1.6-.4 3-.3 4.7-.7.8-.2 1.5-.4 2.3-.7v-.4c-.8-.8-1.5-2-2.3-2.8-2.4-2.1-5-4.1-7.7-5.8-1.5-.9-3.3-1.5-4.9-2.3-.6-.3-1.5-.4-1.8-.9-.8-1-1.3-2.4-1.9-3.6-1.4-2.6-2.7-5.4-3.8-8.1-.8-1.8-1.4-3.6-2.4-5.3-4.8-8-10.1-12.8-18.1-17.5-1.7-1-3.8-1.4-6-1.9-1.2 0-2.3-.1-3.5-.2-.8-.3-1.5-1.2-2.2-1.6-2.7-1.7-9.5-5.3-11.5-.5-1.3 3 1.9 6 2.9 7.6.8 1.1 1.8 2.3 2.4 3.5.3.8.4 1.6.8 2.5.7 2.1 1.4 4.4 2.4 6.3.5 1 1.1 2 1.7 2.9.4.5 1 .7 1.2 1.6-.7.9-.7 2.3-1.1 3.5-1.7 5.3-1 11.8 1.4 15.7.7 1.2 2.5 3.7 4.9 2.8 2.1-.8 1.6-3.5 2.2-5.8.1-.6 0-.9.3-1.3v.1c.7 1.3 1.3 2.6 1.9 3.9 1.5 2.3 4 4.7 6.1 6.3 1.1.8 2 2.3 3.4 2.8v-.1h-.2c-.3-.4-.7-.6-1.1-.9-.8-.8-1.8-1.9-2.4-2.8-2-2.6-3.7-5.5-5.2-8.5-.8-1.5-1.4-3-2-4.5-.3-.6-.3-1.4-.7-1.7-.7 1-1.7 1.9-2.2 3.2-.9 2-1 4.5-1.3 7.1-.2 0-.1 0-.2.1-1.5-.4-2-1.9-2.6-3.2-1.4-3.3-1.6-8.7-.4-12.5.3-1 1.7-4.1 1.2-5-.3-.9-1.2-1.4-1.7-2.1-.6-.9-1.3-2-1.7-3-1.1-2.6-1.7-5.5-2.9-8.1-.6-1.2-1.5-2.5-2.3-3.6-.9-1.3-1.9-2.2-2.6-3.6-.2-.5-.6-1.4-.2-1.9.1-.4.3-.5.7-.6.6-.5 2.3.1 2.9.4 1.7.7 3.2 1.4 4.6 2.3.7.5 1.4 1.4 2.2 1.6h1c1.5.3 3.2.1 4.6.5 2.5.8 4.7 2 6.7 3.2 6.1 3.9 11.2 9.4 14.6 16 .6 1.1.8 2.1 1.3 3.2 1 2.3 2.2 4.6 3.2 6.9 1 2.2 1.9 4.4 3.3 6.3.7 1 3.5 1.5 4.8 2 .9.4 2.4.8 3.2 1.3 1.6 1 3.2 2.1 4.7 3.2.6 0 3 1.2 3.1 2.1m4.5 51.8h1v-4.7h-1.5l-1.2 3.2-1.3-3.2h-1.4v4.7h.9v-3.6h.1l1.4 3.6h.7l1.3-3.6v3.6zm-7.9 0h1v-4h1.3v-.8h-3.8v.8h1.4v4h.1z"/>
		</symbol>

		<symbol id="photoshop-simple" viewBox="0 0 90.5 75">
			<path fill="#fff" d="M15.2 34.9c1.3.3 2.8.4 5.1.4 8 0 13-4.5 13-11.9 0-6.8-4.3-10.8-11.9-10.8-3 0-5.1.2-6.2.5v21.8zM.2 1.5C4.8.7 11.4 0 20.6 0c9.3 0 16 2 20.4 5.9 4.4 3.7 7.1 9.8 7.1 17S46 36.3 41.9 40.4c-5.2 5.2-12.8 7.8-21.7 7.8-2 0-3.8-.1-5.2-.4v26.4H0V1.5h.2zm56.6 59.2c3.1 1.8 8.1 3.6 13.2 3.6 5.5 0 8.3-2.5 8.3-6.3 0-3.6-2.5-5.7-8.8-8.1C60.8 46.5 55 41.2 55 32.7c0-9.9 7.6-17.3 19.9-17.3 6 0 10.3 1.3 13.4 2.9l-2.6 10.5c-2-1.1-5.8-2.7-10.9-2.7s-7.6 2.7-7.6 5.6c0 3.7 2.9 5.3 9.7 8.2 9.3 3.8 13.6 9.1 13.6 17.2 0 9.7-6.7 17.9-21.1 17.9-6 0-11.9-1.8-14.9-3.6l2.3-10.7z" />
		</symbol>

		<symbol id="php-simple" viewBox="0 0 223.1 106.5">
			<path fill="#fff" d="M44.7 35.6c7 0 11.6 1.3 13.9 3.9 2.3 2.6 2.9 7 1.7 13.2-1.3 6.5-3.7 11.2-7.3 13.9-3.6 2.8-9.1 4.2-16.5 4.2H25.3l6.8-35.2h12.6zM0 106.5h18.3l4.3-22.4h15.7c6.9 0 12.6-.7 17.1-2.2s8.5-3.9 12.2-7.3c3.1-2.8 5.6-5.9 7.5-9.3s3.3-7.2 4-11.3c1.9-10 .5-17.7-4.4-23.3s-12.6-8.3-23.2-8.3H16.4L0 106.5zM92.6 0h18.2l-4.3 22.4h16.2c10.2 0 17.2 1.8 21.1 5.3 3.9 3.6 5 9.3 3.5 17.3l-7.6 39.2h-18.5l7.2-37.2c.8-4.2.5-7.1-.9-8.7-1.4-1.5-4.5-2.3-9.1-2.3h-14.5l-9.4 48.2H76.3L92.6 0zm95.1 35.6c7 0 11.6 1.3 13.9 3.9 2.3 2.6 2.9 7 1.7 13.2-1.3 6.5-3.7 11.2-7.3 13.9-3.6 2.8-9.1 4.2-16.5 4.2h-11.1l6.8-35.2h12.5zM143 106.5h18.3l4.3-22.4h15.7c6.9 0 12.6-.7 17.1-2.2s8.5-3.9 12.2-7.3c3.1-2.8 5.6-5.9 7.5-9.3s3.3-7.2 4-11.3c1.9-10 .5-17.7-4.4-23.3s-12.6-8.3-23.2-8.3h-35.2L143 106.5z" />
		</symbol>

		<symbol id="sass-simple" viewBox="0 0 547.8 410.6">
			<path fill="#fff" d="M471.4 236c-19.1.1-35.7 4.7-49.6 11.5-5.1-10.1-10.2-19.1-11.1-25.7-1-7.7-2.2-12.4-1-21.6 1.2-9.2 6.6-22.3 6.5-23.3s-1.2-5.7-12.2-5.8c-11-.1-20.5 2.1-21.6 5-1.1 2.9-3.2 9.5-4.6 16.3-1.9 10-22 45.7-33.5 64.4-3.7-7.3-6.9-13.7-7.6-18.8-1-7.7-2.2-12.4-1-21.6 1.2-9.2 6.6-22.3 6.5-23.3-.1-1-1.2-5.7-12.2-5.8-11-.1-20.5 2.1-21.6 5-1.1 2.9-2.3 9.7-4.6 16.3-2.3 6.6-29 66.2-36 81.6-3.6 7.9-6.7 14.2-8.9 18.5s-.1.3-.4.8c-1.9 3.7-3 5.7-3 5.7v.1c-1.5 2.7-3.1 5.2-3.9 5.2-.6 0-1.7-7.2.2-17 4-20.7 13.5-52.9 13.4-54 0-.6 1.8-6.2-6.2-9.1-7.8-2.9-10.6 1.9-11.3 1.9-.7 0-1.2 1.7-1.2 1.7s8.7-36.2-16.6-36.2c-15.8 0-37.6 17.3-48.4 32.9-6.8 3.7-21.3 11.6-36.8 20.1-5.9 3.3-12 6.6-17.7 9.7-.4-.4-.8-.9-1.2-1.3-30.6-32.7-87.2-55.8-84.8-99.7.9-16 6.4-58 108.7-109 84.2-41.5 151.2-30 162.8-4.5 16.6 36.4-35.9 104-122.9 113.8-33.2 3.7-50.6-9.1-55-13.9-4.6-5-5.3-5.3-7-4.3-2.8 1.5-1 6 0 8.6 2.6 6.8 13.3 18.8 31.4 24.7 16 5.2 54.9 8.1 102-10.1 52.7-20.4 93.9-77.1 81.8-124.6C330.7 2 250.7-13.9 175 13 130 29 81.2 54.2 46.1 87 4.4 126-2.2 159.9.5 174.1c9.7 50.4 79.2 83.2 107 107.5-1.4.8-2.7 1.5-3.8 2.1-13.9 6.9-66.9 34.6-80.1 63.9-15 33.2 2.4 57 13.9 60.2 35.7 9.9 72.4-7.9 92.1-37.3 19.7-29.4 17.3-67.6 8.2-85.1-.1-.2-.2-.4-.4-.6 3.6-2.1 7.3-4.3 10.9-6.4 7.1-4.2 14.1-8.1 20.1-11.3-3.4 9.3-5.9 20.4-7.1 36.4-1.5 18.8 6.2 43.2 16.3 52.8 4.5 4.2 9.8 4.3 13.2 4.3 11.8 0 17.1-9.8 23-21.4 7.2-14.2 13.7-30.7 13.7-30.7s-8.1 44.6 13.9 44.6c8 0 16.1-10.4 19.7-15.7v.1s.2-.3.6-1c.8-1.3 1.3-2.1 1.3-2.1v-.2c3.2-5.6 10.4-18.3 21.1-39.4 13.8-27.2 27.1-61.2 27.1-61.2s1.2 8.3 5.3 22.1c2.4 8.1 7.4 17 11.4 25.6-3.2 4.5-5.2 7-5.2 7l.1.1c-2.6 3.4-5.4 7.1-8.5 10.7-10.9 13-23.9 27.9-25.7 32.2-2.1 5.1-1.6 8.8 2.4 11.8 2.9 2.2 8.1 2.5 13.4 2.2 9.8-.7 16.7-3.1 20.1-4.6 5.3-1.9 11.5-4.8 17.3-9.1 10.7-7.9 17.2-19.2 16.6-34.1-.3-8.2-3-16.4-6.3-24.1 1-1.4 1.9-2.8 2.9-4.2 16.9-24.7 30-51.8 30-51.8s1.2 8.3 5.3 22.1c2 7 6.1 14.6 9.7 22-15.9 12.9-25.7 27.9-29.2 37.7-6.3 18.2-1.4 26.4 7.9 28.3 4.2.9 10.2-1.1 14.6-3 5.6-1.8 12.2-4.9 18.5-9.5 10.7-7.9 21-18.9 20.4-33.8-.3-6.8-2.1-13.5-4.6-20 13.5-5.6 30.9-8.7 53.1-6.1 47.6 5.6 57 35.3 55.2 47.8-1.8 12.5-11.8 19.3-15.1 21.4-3.3 2.1-4.4 2.8-4.1 4.3.4 2.2 2 2.1 4.8 1.7 3.9-.7 25-10.1 25.9-33.1 1.5-29.4-26.5-61.5-76-61.2zM104.2 359.8C88.4 377 66.4 383.5 56.9 378c-10.2-5.9-6.2-31.3 13.2-49.5 11.8-11.1 27-21.4 37.1-27.7 2.3-1.4 5.7-3.4 9.8-5.9.7-.4 1.1-.6 1.1-.6l2.4-1.5c7.1 26 .3 48.9-16.3 67zm115-78.2c-5.5 13.4-17 47.7-24 45.8-6-1.6-9.7-27.6-1.2-53.3 4.3-12.9 13.4-28.3 18.7-34.3 8.6-9.6 18.1-12.8 20.4-8.9 2.9 5.1-10.5 42.3-13.9 50.7zm94.9 45.4c-2.3 1.2-4.5 2-5.5 1.4-.7-.4 1-2 1-2s11.9-12.8 16.6-18.6c2.7-3.4 5.9-7.4 9.3-11.9v1.3c0 15.3-14.8 25.6-21.4 29.8zm73.2-16.7c-1.7-1.2-1.4-5.2 4.3-17.7 2.2-4.9 7.4-13.1 16.3-21 1 3.2 1.7 6.3 1.6 9.2-.1 19.3-13.9 26.5-22.2 29.5z" />
		</symbol>

		<symbol id="vscode-simple" viewBox="0 0 260 260">
  			<path fill="#fff" d="M195 0v223.3l-195-29L195 260l65-27V27.1L195 0z"/>
 			<path fill="#fff" d="M126.7 38L67 97.1 31.1 70l-14.8 4.9 36.6 36.2-36.6 36.2 14.8 5 36-27.1 59.7 59 35.8-15.2V53.2L126.7 38zm0 42.2V142l-41.1-30.9 41.1-30.9z"/>
		</symbol>

		<symbol id="wordpress-simple" viewBox="0 0 166 166">
			<path fill="#fff" d="M83 0C37.2 0 0 37.2 0 83s37.2 83 83 83 83-37.2 83-83S128.8 0 83 0zM8.3 83c0-10.8 2.3-21.1 6.5-30.4l35.6 97.5C25.6 138.1 8.3 112.5 8.3 83zM83 157.7c-7.3 0-14.4-1.1-21.1-3.1l22.4-65.1 22.9 62.8c.2.4.4.7.5 1.1-7.7 2.8-16 4.3-24.7 4.3zM93.3 48c4.5-.3 8.5-.7 8.5-.7 4-.4 3.5-6.4-.4-6.1 0 0-12.1 1-19.8 1-7.3 0-19.7-1-19.7-1-4-.3-4.5 5.9-.4 6.1 0 0 3.8.4 7.8.7l11.6 31.8-16.3 49L37.3 48c4.5-.3 8.5-.7 8.5-.7 4-.4 3.5-6.4-.4-6.1 0 0-12.1 1-19.8 1-1.4 0-3.1 0-4.8-.1C34.1 21.8 57 8.4 83.1 8.4c19.4 0 37.2 7.5 50.4 19.6-.4 0-.6-.1-1-.1-7.3 0-12.6 6.4-12.6 13.3 0 6.1 3.5 11.3 7.3 17.5 2.8 5 6.1 11.3 6.1 20.6 0 6.4-2.5 13.8-5.7 24.2l-7.5 24.9L93.3 48zm55.2-.8c5.8 10.6 9.1 22.8 9.1 35.8 0 27.5-14.9 51.6-37.1 64.5l22.8-65.9c4.2-10.6 5.7-19.1 5.7-26.7 0-2.8-.2-5.4-.5-7.7z" />
		</symbol>

	</defs>
</svg>