<svg xmlns="http://www.w3.org/2000/svg" style="display: none;">
	<defs>
	
		<symbol id="github" viewBox="0 0 24 24">
			<path d="M12,2A10,10 0 0,0 2,12C2,16.42 4.87,20.17 8.84,21.5C9.34,21.58 9.5,21.27 9.5,21C9.5,20.77 9.5,20.14 9.5,19.31C6.73,19.91 6.14,17.97 6.14,17.97C5.68,16.81 5.03,16.5 5.03,16.5C4.12,15.88 5.1,15.9 5.1,15.9C6.1,15.97 6.63,16.93 6.63,16.93C7.5,18.45 8.97,18 9.54,17.76C9.63,17.11 9.89,16.67 10.17,16.42C7.95,16.17 5.62,15.31 5.62,11.5C5.62,10.39 6,9.5 6.65,8.79C6.55,8.54 6.2,7.5 6.75,6.15C6.75,6.15 7.59,5.88 9.5,7.17C10.29,6.95 11.15,6.84 12,6.84C12.85,6.84 13.71,6.95 14.5,7.17C16.41,5.88 17.25,6.15 17.25,6.15C17.8,7.5 17.45,8.54 17.35,8.79C18,9.5 18.38,10.39 18.38,11.5C18.38,15.32 16.04,16.16 13.81,16.41C14.17,16.72 14.5,17.33 14.5,18.26C14.5,19.6 14.5,20.68 14.5,21C14.5,21.27 14.66,21.59 15.17,21.5C19.14,20.16 22,16.42 22,12A10,10 0 0,0 12,2Z"/>
		</symbol>

		<symbol id="arrow" viewBox="0 0 24 24">
			<path d="M4,11V13H16L10.5,18.5L11.92,19.92L19.84,12L11.92,4.08L10.5,5.5L16,11H4Z"/>
		</symbol>

		<symbol id="html5" viewBox="0 0 362.7 512">
  			<path d="M33 470.9L0 100.6h362.7l-33 370.2L181.1 512 33 470.9z" fill="#e44d26"/>
  			<path d="M181.4 480.5l120-33.3 28.2-316.4H181.4v349.7z" fill="#f16529"/>
  			<path d="M181.4 268.2h-60.1l-4.1-46.5h64.2v-45.4H67.5l1.1 12.2 11.2 125.1h101.6v-45.4zm0 118l-.2.1-50.6-13.7-3.2-36.2H81.8l6.4 71.3 93 25.8.2-.1v-47.2z" fill="#ebebeb"/>
  			<path d="M33.7 0h23.1v22.8h21.1V0H101v69H77.9V45.9H56.8V69h-23l-.1-69zm97.7 22.9H111V0h63.7v22.9h-20.3V69h-23.1l.1-46.1zM184.9 0H209l14.8 24.3L238.5 0h24.1v69h-23V34.8l-15.9 24.5h-.4l-15.9-24.5V69h-22.6V0zm89.2 0h23.1v46.2h32.5V69h-55.5V0z"/>
 			<path d="M181.2 268.2v45.4h55.9l-5.3 58.9-50.6 13.7v47.2l93.1-25.8.7-7.7 10.7-119.6 1.1-12.2h-12.2l-93.4.1zm0-91.9v45.4h109.7l.9-10.2 2.1-23 1.1-12.2H181.2z" fill="#fff"/>
		</symbol>

		<symbol id="css3" viewBox="0 0 362.734 512">
		 	<path fill="#264de4" d="M362.734 100.62l-33.046 370.199L181.145 512 33.011 470.877 0 100.62z"/>
			<path fill="#2965f1" d="M301.397 447.246l28.24-316.352h-148.27v349.629z"/>
			<path fill="#ebebeb" d="M75.677 268.217l4.07 45.41h101.62v-45.41zM181.367 176.305H67.499l4.128 45.411h109.74zM181.367 433.399v-47.246l-.199.053-50.574-13.656-3.233-36.217H81.776l6.362 71.301 93.02 25.823z"/>
			<path d="M85.367 0h55v23h-32v23h32v23h-55zM151.367 0h55v20h-32v4h32v46h-55V49h32v-4h-32zM217.367 0h55v20h-32v4h32v46h-55V49h32v-4h-32z"/>
			<path fill="#fff" d="M237.128 313.627l-5.271 58.894-50.647 13.67v47.244l93.094-25.801.683-7.672 10.671-119.551 1.108-12.194 8.198-91.912H181.21v45.411h63.988l-4.132 46.501H181.21v45.41z"/>
		</symbol>

		<symbol id="javascript" viewBox="0 0 362.6 512">
			<path fill="#efc725" d="M33 470.9L0 100.7h362.6l-33 370.1L181.1 512z"/>
			<path fill="#fbde34" d="M181 480.1l120-33.3 28.3-316.3H181z"/>
			<path fill="#ebebeb" d="M181 385.8h-.2l-50.6-13.6-3.2-36.3H81.4l6.3 71.3 93 25.8h.3zM187.1 313.2v-45.4h-55.9l6.5-71.2 49.5-1.3-.1-47.3H96.7l-3.4 33.5L82.6 301l-1.1 12.2h12.3z"/>
			<path fill="#fff" d="M186.8 195.3h.2l49.5 2.9 4.3 46.9h45.5l-7.9-87.7L187 148l-.2.1z"/>
			<path fill="#ebebeb" d="M281.6 195.5l-3.8-47.5h-95.9v47.5h99.7M180.8 267.8v45.4h55.9l-5.3 58.9-50.6 13.7V433l93.1-25.8.6-7.6L285.2 280l1.1-12.2h-12.2z"/>
			<path fill="#fff" d="M245.3 19h-30.1l31.3 33.9v16.2H182V50.2h31.3l-31.3-34V0h63.3z"/>
			<path d="M170.5 0v69H115V46.2h32.4V0h23.1z" fill="#fff"/>
		</symbol>

		<symbol id="wordpress" viewBox="0 0 500 500">
			<path fill="#fff" d="M235.7 34.1c52.1 0 99.6 20 135.2 52.7-17.4-.5-34.8 9.9-35.6 33.6-1.5 48 57.4 58.2 25.7 154.8l-26.2 79.9-71.5-210.5c-1.1-3.3.2-5.1 4.2-5.1h20.2c1 0 1.9-.9 1.9-2v-12c0-1.1-.9-2-1.9-2-38.3 1.7-76.3 1.7-114.1 0-1.1 0-1.9.9-1.9 2v12c0 1.1.9 2 1.9 2h20.3c4.5 0 5.8 1.5 6.8 4.4l29.4 80.3L186 357.5l-72.6-213.8c-.9-2.7.2-4.2 2.8-4.2h23.1c1 0 1.9-.9 1.9-2v-12c0-1.1-.9-2-1.9-2-24.3 1.3-48.7 1.5-71.4 1.8 35.7-54.9 97.5-91.2 167.8-91.2zM411.5 138.8c15.4 28.3 24.1 60.7 24.1 95.2 0 75.6-42 141.4-103.9 175.4L394 232.8c9.6-27.3 18.6-64.3 17.5-94z" transform="translate(-3.51 -1.668) scale(1.0755)"/>
			<path fill="#fff" d="M302.6 422.3c-20.9 7.4-43.4 11.5-66.9 11.5-20.2 0-39.7-3-58.1-8.6l61.6-176.5 63.4 173.6zM150.2 414.7C82.6 382.6 35.8 313.7 35.8 234c0-29.6 6.4-57.6 18-82.9l96.4 263.6z" transform="translate(-3.51 -1.668) scale(1.0755)"/>
			<path fill="#fff" d="M235.7 1.5C107.3 1.5 3.3 105.6 3.3 234s104.1 232.4 232.4 232.4S468.1 362.3 468.1 234 364 1.5 235.7 1.5zm0 451.1C115 452.6 17.1 354.7 17.1 234S115 15.4 235.7 15.4 454.3 113.3 454.3 234s-97.9 218.6-218.6 218.6z" transform="translate(-3.51 -1.668) scale(1.0755)"/>
		</symbol>
	
	</defs>
</svg>